<svg width="12" height="11" viewBox="0 0 12 11" fill="none" xmlns="http://www.w3.org/2000/svg">
<path d="M10.8 4.6C10.96 4.6 11.04 4.68 11.04 4.84V6.352C11.04 6.512 10.96 6.592 10.8 6.592H7.032C6.968 6.592 6.936 6.624 6.936 6.688V10.384C6.936 10.544 6.856 10.624 6.696 10.624H5.184C5.024 10.624 4.944 10.544 4.944 10.384V6.688C4.944 6.624 4.912 6.592 4.848 6.592H1.08C0.92 6.592 0.84 6.512 0.84 6.352V4.84C0.84 4.68 0.92 4.6 1.08 4.6H4.848C4.912 4.6 4.944 4.568 4.944 4.504V0.664C4.944 0.503999 5.024 0.423999 5.184 0.423999H6.696C6.856 0.423999 6.936 0.503999 6.936 0.664V4.504C6.936 4.568 6.968 4.6 7.032 4.6H10.8Z" fill="#212E30"/>
</svg>
