<svg width="23" height="20" viewBox="0 0 23 20" fill="none" xmlns="http://www.w3.org/2000/svg">
<path d="M1.116 19.407C0.806 19.407 0.589 19.314 0.465 19.128C0.341 18.88 0.341 18.601 0.465 18.291L7.161 1.644C7.347 1.148 7.688 0.899996 8.184 0.899996H10.416C11.098 0.899996 11.346 1.241 11.16 1.923L5.487 18.663C5.301 19.159 4.929 19.407 4.371 19.407H1.116ZM21.9502 0.899996C22.2602 0.899996 22.4772 1.024 22.6012 1.272C22.7252 1.458 22.7252 1.706 22.6012 2.016L15.9052 18.663C15.7192 19.159 15.3782 19.407 14.8822 19.407H12.6502C11.9682 19.407 11.7202 19.066 11.9062 18.384L17.5792 1.644C17.7652 1.148 18.1372 0.899996 18.6952 0.899996H21.9502Z" fill="#212E30"/>
</svg>
