<svg width="22" height="28" viewBox="0 0 22 28" fill="none" xmlns="http://www.w3.org/2000/svg">
<path d="M2.17804 8.12232C1.77399 5.4683 3.65531 3.0783 6.52926 2.20384C7.03941 2.04825 7.58994 2.0923 8.0686 2.32701C8.54726 2.56172 8.91799 2.96941 9.10521 3.46696L10.0268 5.91715C10.1752 6.31142 10.2019 6.74086 10.1034 7.15035C10.005 7.55983 9.78588 7.93067 9.47427 8.21526L6.73288 10.7183C6.59768 10.8419 6.49693 10.9984 6.44044 11.1724C6.38394 11.3463 6.37362 11.5319 6.41049 11.711L6.43488 11.8208L6.50275 12.0965C6.5632 12.3299 6.6544 12.6573 6.78272 13.047C7.03724 13.8232 7.44341 14.8667 8.0479 15.9091C8.65238 16.9525 9.35655 17.8238 9.90377 18.4321C10.1888 18.7483 10.4867 19.0527 10.7967 19.3446L10.8815 19.4217C11.0186 19.5428 11.1848 19.6265 11.3639 19.6647C11.5431 19.7028 11.7291 19.694 11.9039 19.6393L15.4523 18.5272C15.8554 18.4009 16.2871 18.3973 16.6922 18.517C17.0973 18.6366 17.4573 18.8741 17.726 19.1989L19.4048 21.2298C20.1047 22.0747 20.022 23.3156 19.2171 24.0623C17.0176 26.1048 13.993 26.523 11.889 24.8385C9.30995 22.7668 7.13577 20.24 5.47513 17.3845C3.80064 14.5312 2.68202 11.3888 2.17804 8.12232V8.12232ZM8.63223 11.8504L10.9081 9.77197C11.5309 9.20276 11.9687 8.46121 12.1655 7.64246C12.3622 6.82372 12.3087 5.96511 12.012 5.17681L11.0894 2.72662C10.713 1.72555 9.96741 0.90513 9.00461 0.432586C8.04181 -0.0399568 6.93429 -0.129042 5.90781 0.183489C2.3403 1.27235 -0.52517 4.45759 0.0814352 8.43915C0.505634 11.2189 1.48447 14.7547 3.64153 18.4469C5.43278 21.5259 7.77771 24.2503 10.5592 26.484C13.7141 29.0091 17.9286 28.1473 20.6636 25.6074C21.4459 24.881 21.9205 23.8849 21.9909 22.8221C22.0612 21.7593 21.7219 20.7098 21.0422 19.8875L19.3634 17.8565C18.8261 17.2066 18.106 16.7314 17.2956 16.4918C16.4851 16.2523 15.6213 16.2593 14.8149 16.5121L11.8699 17.4352C11.7575 17.319 11.626 17.1806 11.4828 17.0212C10.8776 16.3543 10.3421 15.6279 9.88468 14.8529C9.43943 14.0712 9.07521 13.2463 8.79767 12.3911C8.73883 12.212 8.68367 12.0318 8.63223 11.8504V11.8504Z" fill="#F4F4F4"/>
</svg>
