<svg width="19" height="20" viewBox="0 0 19 20" fill="none" xmlns="http://www.w3.org/2000/svg">
<path d="M17.9198 14.0937V16.6281C17.9207 16.8633 17.8725 17.0962 17.7783 17.3118C17.684 17.5274 17.5458 17.7209 17.3724 17.8799C17.199 18.039 16.9944 18.1601 16.7715 18.2354C16.5486 18.3108 16.3125 18.3388 16.0781 18.3176C13.4786 18.0352 10.9816 17.1469 8.78767 15.7241C6.74654 14.4271 5.01601 12.6966 3.71899 10.6555C2.29129 8.4516 1.4028 5.94242 1.12551 3.33121C1.1044 3.0976 1.13216 2.86215 1.20703 2.63986C1.2819 2.41757 1.40223 2.2133 1.56037 2.04006C1.71851 1.86682 1.91099 1.72841 2.12555 1.63364C2.34012 1.53886 2.57206 1.4898 2.80662 1.48958H5.34097C5.75094 1.48555 6.1484 1.63073 6.45926 1.89806C6.77011 2.1654 6.97315 2.53664 7.03053 2.94261C7.1375 3.75365 7.33587 4.54999 7.62188 5.31644C7.73554 5.61881 7.76013 5.94742 7.69276 6.26334C7.62538 6.57926 7.46885 6.86924 7.24172 7.09893L6.16885 8.1718C7.37144 10.2867 9.12259 12.0379 11.2375 13.2405L12.3104 12.1676C12.5401 11.9405 12.8301 11.784 13.146 11.7166C13.4619 11.6492 13.7905 11.6738 14.0929 11.7875C14.8593 12.0735 15.6557 12.2718 16.4667 12.3788C16.8771 12.4367 17.2519 12.6434 17.5198 12.9596C17.7877 13.2758 17.93 13.6794 17.9198 14.0937Z" stroke="#F4F4F4" stroke-width="2" stroke-linecap="round" stroke-linejoin="round"/>
</svg>
