<svg width="15" height="19" viewBox="0 0 15 19" fill="none" xmlns="http://www.w3.org/2000/svg">
<path d="M1.47185 5.51157C1.19881 3.71063 2.47014 2.08885 4.41227 1.49546C4.75701 1.38988 5.12904 1.41977 5.4525 1.57904C5.77596 1.73831 6.0265 2.01496 6.15301 2.35258L6.77578 4.01521C6.87607 4.28275 6.8941 4.57416 6.82757 4.85202C6.76104 5.12989 6.61298 5.38153 6.40241 5.57464L4.54986 7.2731C4.4585 7.35704 4.39042 7.46319 4.35224 7.58124C4.31406 7.69929 4.30709 7.82521 4.332 7.94675L4.34849 8.02128L4.39435 8.20833C4.4352 8.36671 4.49683 8.58887 4.58355 8.85332C4.75554 9.38005 5.03002 10.0881 5.43851 10.7954C5.847 11.5035 6.32286 12.0947 6.69265 12.5075C6.88524 12.7221 7.08655 12.9286 7.29607 13.1267L7.3534 13.179C7.44599 13.2612 7.5583 13.318 7.67937 13.3439C7.80045 13.3697 7.92616 13.3638 8.04425 13.3266L10.4422 12.572C10.7145 12.4863 11.0063 12.4839 11.2801 12.5651C11.5538 12.6463 11.7971 12.8074 11.9787 13.0278L13.1131 14.4059C13.5861 14.9792 13.5302 15.8213 12.9863 16.328C11.4999 17.714 9.45605 17.9978 8.03422 16.8547C6.29136 15.4489 4.82213 13.7343 3.69992 11.7966C2.56835 9.86046 1.81243 7.72812 1.47185 5.51157ZM5.83339 8.04135L7.37132 6.63098C7.79221 6.24473 8.0881 5.74154 8.22102 5.18596C8.35395 4.63038 8.31785 4.04775 8.11735 3.51283L7.49387 1.85021C7.23951 1.17091 6.73566 0.614195 6.08503 0.293541C5.4344 -0.0271135 4.68597 -0.0875645 3.99231 0.12451C1.5815 0.863377 -0.354893 3.0248 0.0550313 5.72657C0.341692 7.61279 1.00316 10.0121 2.46083 12.5176C3.6713 14.6068 5.25593 16.4555 7.13554 17.9713C9.26758 19.6848 12.1155 19.1 13.9638 17.3764C14.4924 16.8836 14.8132 16.2076 14.8607 15.4864C14.9083 14.7652 14.679 14.0531 14.2196 13.4951L13.0852 12.1169C12.7221 11.6759 12.2355 11.3534 11.6878 11.1909C11.1401 11.0283 10.5564 11.0331 10.0115 11.2046L8.02132 11.831C7.94536 11.7522 7.85649 11.6583 7.75974 11.5501C7.35071 11.0976 6.98885 10.6046 6.67975 10.0788C6.37886 9.54831 6.13274 8.98859 5.94518 8.40827C5.90542 8.28674 5.86815 8.16441 5.83339 8.04135Z" fill="#212E30"/>
</svg>
