<svg width="19" height="19" viewBox="0 0 19 19" fill="none" xmlns="http://www.w3.org/2000/svg">
<path d="M17.8011 13.6042V16.1386C17.8021 16.3738 17.7539 16.6067 17.6596 16.8223C17.5654 17.0378 17.4271 17.2314 17.2538 17.3904C17.0804 17.5495 16.8757 17.6706 16.6528 17.7459C16.43 17.8213 16.1938 17.8493 15.9595 17.8281C13.3599 17.5457 10.8629 16.6574 8.66902 15.2346C6.62788 13.9376 4.89736 12.2071 3.60033 10.166C2.17264 7.9621 1.28415 5.45292 1.00686 2.8417C0.985746 2.60809 1.01351 2.37265 1.08838 2.15036C1.16325 1.92806 1.28358 1.7238 1.44172 1.55056C1.59986 1.37732 1.79234 1.23891 2.0069 1.14414C2.22146 1.04936 2.45341 1.0003 2.68797 1.00008H5.22231C5.63229 0.996047 6.02975 1.14123 6.3406 1.40856C6.65146 1.6759 6.8545 2.04714 6.91188 2.45311C7.01884 3.26415 7.21722 4.06049 7.50322 4.82694C7.61688 5.12931 7.64148 5.45792 7.57411 5.77384C7.50673 6.08976 7.3502 6.37974 7.12307 6.60943L6.0502 7.6823C7.25279 9.79725 9.00394 11.5484 11.1189 12.751L12.1918 11.6781C12.4214 11.451 12.7114 11.2945 13.0273 11.2271C13.3433 11.1597 13.6719 11.1843 13.9742 11.298C14.7407 11.584 15.537 11.7823 16.3481 11.8893C16.7584 11.9472 17.1332 12.1539 17.4011 12.4701C17.669 12.7863 17.8114 13.1899 17.8011 13.6042Z" stroke="#55C2F0" stroke-width="2" stroke-linecap="round" stroke-linejoin="round"/>
</svg>
