<svg width="21" height="14" viewBox="0 0 21 14" fill="none" xmlns="http://www.w3.org/2000/svg">
<path d="M21 14H10.5V11.6667H21V14ZM21 8.16667H10.5V5.83333H21V8.16667ZM21 2.33333H0V0H21V2.33333Z" fill="#212E30"/>
<path d="M7.17678 7.77678L7.35355 7.6L7.17678 7.42322L6.57678 6.82322L6.4 6.64645L6.22322 6.82322L4 9.04645L1.77678 6.82322L1.6 6.64645L1.42322 6.82322L0.823223 7.42322L0.646447 7.6L0.823223 7.77678L3.04645 10L0.823223 12.2232L0.646447 12.4L0.823223 12.5768L1.42322 13.1768L1.6 13.3536L1.77678 13.1768L4 10.9536L6.22322 13.1768L6.4 13.3536L6.57678 13.1768L7.17678 12.5768L7.35355 12.4L7.17678 12.2232L4.95355 10L7.17678 7.77678Z" fill="#212E30" stroke="#212E30" stroke-width="0.5"/>
</svg>
