<svg width="27" height="27" viewBox="0 0 27 27" fill="none" xmlns="http://www.w3.org/2000/svg">
<path fill-rule="evenodd" clip-rule="evenodd" d="M25.875 0H1.125C0.826631 0 0.540483 0.118526 0.329505 0.329505C0.118526 0.540483 0 0.826631 0 1.125L0 25.875C0 26.1734 0.118526 26.4595 0.329505 26.6705C0.540483 26.8815 0.826631 27 1.125 27H14.3438V16.875H10.9688V12.6562H14.3438V9.28125C14.3438 5.79375 16.5521 4.07812 19.6628 4.07812C21.1523 4.07812 22.4336 4.1895 22.806 4.23787V7.88287L20.6494 7.884C18.9574 7.884 18.5625 8.68837 18.5625 9.86737V12.6562H22.7812L21.9375 16.875H18.5625L18.63 27H25.875C26.1734 27 26.4595 26.8815 26.6705 26.6705C26.8815 26.4595 27 26.1734 27 25.875V1.125C27 0.826631 26.8815 0.540483 26.6705 0.329505C26.4595 0.118526 26.1734 0 25.875 0" fill="#395185"/>
</svg>
