<svg width="20" height="19" viewBox="0 0 20 19" fill="none" xmlns="http://www.w3.org/2000/svg">
<path d="M6.66667 1.33333C7.32594 1.33333 7.97041 1.52883 8.51857 1.8951C9.06673 2.26137 9.49397 2.78197 9.74627 3.39105C9.99856 4.00014 10.0646 4.67036 9.93595 5.31697C9.80734 5.96357 9.48987 6.55751 9.02369 7.02369C8.55752 7.48986 7.96357 7.80733 7.31697 7.93595C6.67037 8.06457 6.00014 7.99856 5.39106 7.74626C4.78197 7.49397 4.26137 7.06673 3.8951 6.51857C3.52883 5.9704 3.33334 5.32594 3.33334 4.66667C3.33334 3.78261 3.68452 2.93477 4.30965 2.30964C4.93477 1.68452 5.78261 1.33333 6.66667 1.33333ZM6.66667 0C5.74369 0 4.84144 0.273695 4.07401 0.786475C3.30658 1.29926 2.70844 2.02809 2.35523 2.88081C2.00202 3.73353 1.90961 4.67184 2.08967 5.57709C2.26974 6.48233 2.71419 7.31385 3.36684 7.9665C4.01948 8.61914 4.851 9.0636 5.75625 9.24366C6.66149 9.42373 7.5998 9.33131 8.45252 8.9781C9.30525 8.6249 10.0341 8.02676 10.5469 7.25933C11.0596 6.4919 11.3333 5.58965 11.3333 4.66667C11.3333 3.42899 10.8417 2.242 9.9665 1.36683C9.09133 0.491665 7.90435 0 6.66667 0Z" fill="#5D7072"/>
<path d="M13.3333 18.6667H12V15.3333C12 14.4493 11.6488 13.6014 11.0237 12.9763C10.3986 12.3512 9.55072 12 8.66667 12H4.66667C3.78261 12 2.93477 12.3512 2.30964 12.9763C1.68452 13.6014 1.33333 14.4493 1.33333 15.3333V18.6667H0V15.3333C0 14.0957 0.491665 12.9087 1.36683 12.0335C2.242 11.1583 3.42899 10.6667 4.66667 10.6667H8.66667C9.90434 10.6667 11.0913 11.1583 11.9665 12.0335C12.8417 12.9087 13.3333 14.0957 13.3333 15.3333V18.6667Z" fill="#5D7072"/>
<path d="M13.3333 1.33333H20V2.66667H13.3333V1.33333Z" fill="#5D7072"/>
<path d="M13.3333 4.66667H20V6H13.3333V4.66667Z" fill="#5D7072"/>
<path d="M13.3333 8H18V9.33333H13.3333V8Z" fill="#5D7072"/>
</svg>
