<svg id="Layer_1" data-name="Layer 1" xmlns="http://www.w3.org/2000/svg" viewBox="0 0 197.29 197.71"><defs><style>.cls-1{fill:#fff;}</style></defs><path class="cls-1" d="M32.42,198.85c-5.63-.64-9.37-4.26-13-8.11-4.18-4.38-8.56-8.58-12.83-12.88C.24,171.51.77,162.58,7.76,157c4.41-3.49,8.88-6.9,13.28-10.4a13.57,13.57,0,0,1,12.09-2.91,2.82,2.82,0,0,0,2.24-.56Q62.15,116.64,88.81,90a7.3,7.3,0,0,0,.64-.86c-.56-.58-1.08-1.16-1.63-1.71C81,80.57,74.21,73.57,67.17,66.88A19.81,19.81,0,0,1,60.58,53.1c-.35-5.45-1.08-10.89-1.7-16.32-.6-5.19.72-9.59,4.6-13.28C68.4,18.81,73.17,14,77.9,9.1c3.43-3.53,6.83-7,11.95-7.95h3.07c3.52.47,7,1,10.55,1.4s7,.84,10.44,1.14a13.36,13.36,0,0,1,8.55,4.39q11.13,11.18,22.31,22.31c.56.56,1.14,1.1,2.31,2.21a62.83,62.83,0,0,1,5.14-5.84,15.47,15.47,0,0,1,25.37,7.88,14.68,14.68,0,0,1-3.6,14,74.4,74.4,0,0,1-5.71,5.08c1,1.09,1.52,1.67,2.07,2.22,6.92,6.92,13.78,13.91,20.79,20.73,3.53,3.44,5.93,7.2,6.27,12.32.42,6.47,1.32,12.9,2,19.36.42,4.28-1.09,7.73-4.25,10.74-5.92,5.64-11.76,11.39-17.35,17.36-4,4.3-8.59,6.17-14.47,5.36-6.42-.89-12.89-1.47-19.35-2.1a13.15,13.15,0,0,1-8.21-4.14q-11.15-11.17-22.3-22.33a17.86,17.86,0,0,1-1.65-2.3c-1,1-1.63,1.46-2.18,2q-26,25.94-51.94,51.88a3.23,3.23,0,0,0-1,3.44,12.06,12.06,0,0,1-1.94,10q-5.86,7.92-12,15.66a12.15,12.15,0,0,1-7.62,4.38,9,9,0,0,0-1.4.5Zm154-114.74c-1.61-1.51-3.13-2.86-4.57-4.29q-32.77-32.64-65.5-65.31A8.23,8.23,0,0,0,111,11.92c-6.17-.56-12.33-1.3-18.49-2a6.25,6.25,0,0,0-5.52,2c-5.23,5.31-10.36,10.73-15.85,15.76-3.25,3-4.91,6-3.84,10.5.84,3.55,1,7.27,1.51,11.43,1-.91,1.52-1.44,2.07-2L93.39,25.08c1.34-1.34,2.64-2.73,4-4a4.22,4.22,0,0,1,5.92.06,4.11,4.11,0,0,1,.11,5.9c-.42.5-.91.95-1.37,1.41Q87.84,42.72,73.56,57a10.78,10.78,0,0,1-2.24,1.38c.78,1,1,1.27,1.23,1.52q34.82,34.92,69.67,69.81a6.32,6.32,0,0,0,3.42,1.7c6.59.84,13.18,1.62,19.8,2.12a6.86,6.86,0,0,0,4.75-1.54c6.55-6.26,12.91-12.71,19.24-19.19a4.67,4.67,0,0,0,1.18-3.09c-.06-2.54-.47-5.08-.77-7.61s-.61-5.09-.92-7.64l-.92-.56a9.57,9.57,0,0,1-1.25,2.08q-12.51,12.6-25.09,25.13a20.53,20.53,0,0,1-1.58,1.51,4.26,4.26,0,0,1-5.76-.32,4.07,4.07,0,0,1-.28-5.56,16.21,16.21,0,0,1,1.51-1.59l28.82-28.83C185,85.66,185.56,85,186.44,84.11ZM29.81,151.84a22.47,22.47,0,0,0-3.23,1.66c-4.47,3.41-8.9,6.88-13.3,10.37-3.1,2.45-3.25,5.13-.43,8Q21,180,29.13,188.11c2.57,2.55,5.47,2.4,7.7-.44q5.4-6.9,10.64-13.93c1.74-2.32,1.62-4.18-.41-6.26-4.56-4.64-9.15-9.25-13.82-13.77A15,15,0,0,0,29.81,151.84Zm20.94,6.74,37.67-37.66-8.78-8.73L42,149.82Zm44.91-44.3,9.07-9.12-9.1-9-9,9.15Zm66.9-66.34c1.47-1.61,3-3.29,4.49-4.94a6.65,6.65,0,0,0,.24-9.1c-2.19-2.53-6.46-3.23-9.09-1.12a55.56,55.56,0,0,0-5.28,5.49Z" transform="translate(-2.14 -1.15)"/></svg>