<svg xmlns="http://www.w3.org/2000/svg" x="0" y="0" version="1.1" viewBox="0 0 27 27" xml:space="preserve"><linearGradient id="a" x1="13.5" x2="13.5" y1="26.872" y2=".067" gradientUnits="userSpaceOnUse"><stop offset="0" stop-color="#ffdd84"/><stop offset=".237" stop-color="#f37231"/><stop offset=".494" stop-color="#de316e"/><stop offset=".751" stop-color="#af3a95"/><stop offset="1" stop-color="#5367b0"/></linearGradient><path d="M24.2 26.9H2.8c-1.5 0-2.7-1.2-2.7-2.7V2.8C.1 1.3 1.3.1 2.8.1h21.4c1.5 0 2.7 1.2 2.7 2.7v21.4c0 1.5-1.2 2.7-2.7 2.7z" fill="url(#a)"/><path d="M18.2 3.7H9.3c-3 0-5.4 2.4-5.4 5.4V18c0 3 2.4 5.4 5.4 5.4h8.9c3 0 5.4-2.4 5.4-5.4V9.1c0-3-2.4-5.4-5.4-5.4zm3.7 14c0 2.2-1.8 3.9-3.9 3.9H9.5c-2.2 0-3.9-1.8-3.9-3.9V9.3c0-2.2 1.8-3.9 3.9-3.9h8.4c2.2 0 3.9 1.8 3.9 3.9v8.4z" fill="#fff"/><path d="M13.6 8.4c-2.8 0-5.1 2.3-5.1 5.1s2.3 5.1 5.1 5.1 5.1-2.3 5.1-5.1-2.2-5.1-5.1-5.1zm0 8.4c-1.8 0-3.3-1.5-3.3-3.3s1.5-3.3 3.3-3.3 3.3 1.5 3.3 3.3-1.4 3.3-3.3 3.3z" fill="#fff"/><circle fill="#fff" cx="19" cy="8.3" r="1.2"/></svg>