<svg width="28" height="28" viewBox="0 0 28 28" fill="none" xmlns="http://www.w3.org/2000/svg">
<path d="M0 1.94399C0 0.870217 0.892269 0 1.99319 0H25.1481C26.249 0 27.1413 0.870217 27.1413 1.94399V25.1973C27.1413 26.2711 26.249 27.1413 25.1481 27.1413H1.99319C0.892269 27.1413 0 26.2711 0 25.1973V1.94399ZM8.38496 22.7206V10.4647H4.31207V22.7206H8.38496ZM6.34936 8.79038C7.76919 8.79038 8.65298 7.85061 8.65298 6.67336C8.62753 5.47066 7.77089 4.55634 6.3765 4.55634C4.98212 4.55634 4.07119 5.47236 4.07119 6.67336C4.07119 7.85061 4.95498 8.79038 6.32222 8.79038H6.34936V8.79038ZM14.6749 22.7206V15.876C14.6749 15.5095 14.7021 15.1431 14.8107 14.8819C15.1041 14.1508 15.7742 13.3925 16.9005 13.3925C18.3746 13.3925 18.9633 14.5155 18.9633 16.1643V22.7206H23.0362V15.6911C23.0362 11.9252 21.0277 10.1746 18.3475 10.1746C16.1864 10.1746 15.2178 11.362 14.6749 12.1983V12.2407H14.6478C14.6568 12.2266 14.6659 12.2124 14.6749 12.1983V10.4647H10.6038C10.6546 11.6148 10.6038 22.7206 10.6038 22.7206H14.6749Z" fill="#0A66C2"/>
</svg>
