<svg width="18" height="22" viewBox="0 0 18 22" fill="none" xmlns="http://www.w3.org/2000/svg">
<path d="M8.8001 11.7251C10.4156 11.7251 11.7251 10.4156 11.7251 8.8001C11.7251 7.18464 10.4156 5.87506 8.8001 5.87506C7.18464 5.87506 5.87506 7.18464 5.87506 8.8001C5.87506 10.4156 7.18464 11.7251 8.8001 11.7251Z" stroke="#212E30" stroke-width="1.5" stroke-linecap="round" stroke-linejoin="round"/>
<path d="M8.8001 1C6.73138 1 4.7474 1.82179 3.2846 3.2846C1.82179 4.7474 1 6.73138 1 8.8001C1 10.6448 1.39195 11.8519 2.46252 13.1877L8.8001 20.5002L15.1377 13.1877C16.2082 11.8519 16.6002 10.6448 16.6002 8.8001C16.6002 6.73138 15.7784 4.7474 14.3156 3.2846C12.8528 1.82179 10.8688 1 8.8001 1V1Z" stroke="#212E30" stroke-width="1.5" stroke-linecap="round" stroke-linejoin="round"/>
</svg>
