<svg width="22" height="27" viewBox="0 0 22 27" fill="none" xmlns="http://www.w3.org/2000/svg">
<path d="M10.8924 14.8773C12.986 14.8773 14.6832 13.1801 14.6832 11.0865C14.6832 8.99287 12.986 7.29565 10.8924 7.29565C8.79878 7.29565 7.10156 8.99287 7.10156 11.0865C7.10156 13.1801 8.79878 14.8773 10.8924 14.8773Z" stroke="#F4F4F4" stroke-width="1.5" stroke-linecap="round" stroke-linejoin="round"/>
<path d="M10.8921 0.977539C8.21106 0.977539 5.63982 2.04258 3.74403 3.93837C1.84825 5.83416 0.783203 8.40539 0.783203 11.0864C0.783203 13.4772 1.29118 15.0416 2.67862 16.7727L10.8921 26.2498L19.1056 16.7727C20.493 15.0416 21.001 13.4772 21.001 11.0864C21.001 8.40539 19.936 5.83416 18.0402 3.93837C16.1444 2.04258 13.5732 0.977539 10.8921 0.977539V0.977539Z" stroke="#F4F4F4" stroke-width="1.5" stroke-linecap="round" stroke-linejoin="round"/>
</svg>
