<svg width="14" height="22" viewBox="0 0 14 22" fill="none" xmlns="http://www.w3.org/2000/svg">
<path d="M7 0C5.14348 0 3.36301 0.724328 2.05025 2.01364C0.737498 3.30295 0 5.05164 0 6.875V15.125C0 16.9484 0.737498 18.697 2.05025 19.9864C3.36301 21.2757 5.14348 22 7 22C8.85652 22 10.637 21.2757 11.9497 19.9864C13.2625 18.697 14 16.9484 14 15.125V6.875C14 5.97216 13.8189 5.07816 13.4672 4.24405C13.1154 3.40994 12.5998 2.65204 11.9497 2.01364C11.2997 1.37524 10.5281 0.868829 9.67878 0.523328C8.8295 0.177827 7.91925 0 7 0ZM7.91 7.865C7.91 8.10204 7.81413 8.32937 7.64347 8.49698C7.47281 8.66459 7.24135 8.75875 7 8.75875C6.75865 8.75875 6.52719 8.66459 6.35653 8.49698C6.18587 8.32937 6.09 8.10204 6.09 7.865V5.5C6.09 5.26296 6.18587 5.03563 6.35653 4.86802C6.52719 4.70041 6.75865 4.60625 7 4.60625C7.24135 4.60625 7.47281 4.70041 7.64347 4.86802C7.81413 5.03563 7.91 5.26296 7.91 5.5V7.865Z" fill="#212E30"/>
</svg>
