<svg width="19" height="19" viewBox="0 0 19 19" fill="none" xmlns="http://www.w3.org/2000/svg">
<path d="M8.29303 16.2924C10.0678 16.292 11.7914 15.6979 13.1895 14.6046L17.585 19.0001L18.9988 17.5862L14.6033 13.1907C15.6972 11.7925 16.2917 10.0685 16.2921 8.29328C16.2921 3.88278 12.7035 0.294189 8.29303 0.294189C3.88254 0.294189 0.293945 3.88278 0.293945 8.29328C0.293945 12.7038 3.88254 16.2924 8.29303 16.2924ZM8.29303 2.29396C11.6017 2.29396 14.2923 4.98465 14.2923 8.29328C14.2923 11.6019 11.6017 14.2926 8.29303 14.2926C4.98441 14.2926 2.29372 11.6019 2.29372 8.29328C2.29372 4.98465 4.98441 2.29396 8.29303 2.29396Z" fill="#B2AFAF"/>
<path d="M9.7048 6.88003C10.0838 7.26003 10.2928 7.76203 10.2928 8.29403H12.2928C12.2937 7.76846 12.1904 7.24792 11.9889 6.76252C11.7874 6.27711 11.4916 5.83646 11.1188 5.46603C9.6048 3.95403 6.9798 3.95403 5.4668 5.46603L6.8788 6.88203C7.6388 6.12403 8.9488 6.12603 9.7048 6.88003Z" fill="#B2AFAF"/>
</svg>
