<svg width="23" height="45" viewBox="0 0 23 45" fill="none" xmlns="http://www.w3.org/2000/svg">
<path d="M0.511979 0.529547C0.183754 0.875747 0 1.34049 0 1.82444C0 2.30838 0.183754 2.77312 0.511979 3.11932L18.8495 22.5L0.511979 41.8768C0.183754 42.223 0 42.6877 0 43.1717C0 43.6556 0.183754 44.1204 0.511979 44.4666C0.67152 44.6354 0.862269 44.7696 1.07297 44.8612C1.28367 44.9528 1.51005 45 1.73874 45C1.96744 45 2.19382 44.9528 2.40452 44.8612C2.61522 44.7696 2.80597 44.6354 2.96551 44.4666L22.4658 23.853C22.8083 23.491 23 23.0055 23 22.5C23 21.9945 22.8083 21.509 22.4658 21.147L2.96551 0.533425C2.80597 0.364611 2.61522 0.230435 2.40452 0.138818C2.19382 0.0472014 1.96744 0 1.73874 0C1.51005 0 1.28367 0.0472014 1.07297 0.138818C0.862269 0.230435 0.67152 0.364611 0.511979 0.533425V0.529547Z" fill="#485455"/>
</svg>
