<svg width="18" height="17" viewBox="0 0 18 17" fill="none" xmlns="http://www.w3.org/2000/svg">
<path d="M13.1236 10.1873C12.8997 10.0817 11.7988 9.57314 11.5938 9.50231C11.3881 9.43218 11.2389 9.39747 11.0889 9.60855C10.9404 9.81893 10.5109 10.2928 10.3805 10.4331C10.2502 10.574 10.119 10.591 9.89523 10.4862C9.67142 10.3799 8.94949 10.1582 8.09418 9.44139C7.42877 8.88322 6.97888 8.19402 6.84851 7.98293C6.71815 7.77256 6.83495 7.65852 6.94648 7.55368C7.04746 7.45947 7.17105 7.30789 7.28257 7.18535C7.39486 7.0621 7.43178 6.97427 7.50714 6.83331C7.58175 6.69306 7.54482 6.57052 7.4883 6.46498C7.43178 6.35944 6.98416 5.32315 6.79802 4.90169C6.61566 4.49156 6.43103 4.54752 6.29388 4.54044C6.15078 4.53508 6.00756 4.53272 5.86434 4.53336C5.71513 4.53336 5.47248 4.58577 5.26751 4.79685C5.06253 5.00723 4.48379 5.51652 4.48379 6.55281C4.48379 7.58839 5.28635 8.58926 5.39788 8.73022C5.51016 8.87047 6.97738 10.9969 9.22379 11.9085C9.75808 12.1253 10.1748 12.2549 10.5004 12.3512C11.0369 12.512 11.5252 12.4893 11.9103 12.4348C12.3406 12.3746 13.2351 11.9255 13.422 11.4339C13.6089 10.9423 13.6089 10.5209 13.5523 10.4331C13.4966 10.3452 13.3474 10.2928 13.1228 10.1873H13.1236ZM9.03766 15.431H9.03464C7.70064 15.4311 6.39115 15.094 5.24339 14.455L4.97135 14.3034L2.15222 14.999L2.90429 12.415L2.7272 12.1501C1.98149 11.0339 1.58699 9.74221 1.5893 8.42422C1.59005 4.56381 4.93217 1.42307 9.04067 1.42307C11.0301 1.42307 12.9005 2.15265 14.3067 3.47582C15.0005 4.12508 15.5504 4.89724 15.9246 5.74761C16.2988 6.59797 16.4899 7.50965 16.4868 8.42989C16.4845 12.2903 13.1431 15.431 9.03766 15.431V15.431ZM15.3775 2.47069C14.5472 1.6851 13.5593 1.0622 12.471 0.638095C11.3827 0.213991 10.2158 -0.00288734 9.03766 2.90257e-05C4.09796 2.90257e-05 0.0776185 3.77898 0.0753578 8.42352C0.0753578 9.90818 0.487565 11.3574 1.27204 12.6345L0 17L4.75131 15.8284C6.06524 16.5013 7.53761 16.8539 9.03389 16.8541H9.03766C13.9766 16.8541 17.9977 13.0751 18 8.42989C18.0036 7.32296 17.7737 6.22634 17.3236 5.20346C16.8734 4.18058 16.212 3.25175 15.3775 2.47069V2.47069Z" fill="#F4F4F4"/>
</svg>
