<svg width="27" height="27" viewBox="0 0 27 27" fill="none" xmlns="http://www.w3.org/2000/svg">
<path d="M11.258 10.2516L16.9955 13.5121L11.258 16.7725V10.2516ZM27 2.89286V24.1071C27 25.7042 25.7042 27 24.1071 27H2.89286C1.29576 27 0 25.7042 0 24.1071V2.89286C0 1.29576 1.29576 0 2.89286 0H24.1071C25.7042 0 27 1.29576 27 2.89286ZM24.4688 13.5181C24.4688 13.5181 24.4688 9.92612 24.0107 8.20246C23.7576 7.25022 23.0163 6.5029 22.0701 6.24978C20.3645 5.78571 13.5 5.78571 13.5 5.78571C13.5 5.78571 6.63549 5.78571 4.92991 6.24978C3.98371 6.5029 3.24241 7.25022 2.98929 8.20246C2.53125 9.92009 2.53125 13.5181 2.53125 13.5181C2.53125 13.5181 2.53125 17.11 2.98929 18.8337C3.24241 19.7859 3.98371 20.5031 4.92991 20.7563C6.63549 21.2143 13.5 21.2143 13.5 21.2143C13.5 21.2143 20.3645 21.2143 22.0701 20.7502C23.0163 20.4971 23.7576 19.7799 24.0107 18.8277C24.4688 17.11 24.4688 13.5181 24.4688 13.5181Z" fill="#FD1E1E"/>
</svg>
