<svg width="341" height="335" viewBox="0 0 341 335" fill="none" xmlns="http://www.w3.org/2000/svg">
<path d="M67.5 43.5C56.3333 43.5 32.4 43.5 26 43.5C18 43.5 2 48.5 2 64.5C2 80.5 2 193 2 200.5C2 208 6.5 222.5 24.5 222.5C42.5 222.5 95 222.5 99.5 222.5C104 222.5 106 226 108 229.5C110 233 121.5 252.036 123.5 255.5C125.5 258.964 128 261.5 132.5 261.5C137 261.5 137.5 260 139 258.5C140.2 257.3 152.167 237.333 158 227.5C159.5 225.61 163 221.964 165 222.5C167.5 223.17 232.5 222.5 237.5 222.5C242.5 222.5 261.5 221 263 202C264.5 183 263 40 263 35.5C263 31 263.5 10.5 287 10.5C305.8 10.5 323.833 10.5 330.5 10.5" stroke="#304B9F" stroke-width="4"/>
<circle cx="330.5" cy="10" r="10" fill="#304B9F"/>
<circle cx="132.5" cy="285" r="5" fill="#304B9F"/>
<circle cx="132.5" cy="300" r="5" fill="#304B9F"/>
<circle cx="132.5" cy="315" r="5" fill="#304B9F"/>
<circle cx="132.5" cy="330" r="5" fill="#304B9F"/>
</svg>
