<?xml version="1.0" encoding="utf-8"?>
<!-- Generator: Adobe Illustrator 26.0.0, SVG Export Plug-In . SVG Version: 6.00 Build 0)  -->
<svg version="1.1" id="Layer_1" xmlns="http://www.w3.org/2000/svg" xmlns:xlink="http://www.w3.org/1999/xlink" x="0px" y="0px"
	 viewBox="0 0 60 60" style="enable-background:new 0 0 60 60;" xml:space="preserve">
<style type="text/css">
	.st0{fill:#FFFFFF;}
</style>
<g>
	<path d="M92,25.9c0.5-1.1,1.5-0.9,2.5-0.9c0-0.7,0-1.4,0-2.1c0-1.1,0.5-1.6,1.6-1.6c1,0,2.1,0,3.1,0c0.3,0,0.5-0.1,0.6-0.4
		c1.3-3.5,5.4-4.4,8.1-2c0.1,0.1,0.2,0.2,0.3,0.2c3.2-2.2,4.6-2.2,7.5,0c1-1,2.2-1.7,3.7-1.7c1.5,0,2.7,0.6,3.7,1.6
		c3.2-2.2,4.7-2.2,7.6,0c1-1,2.2-1.7,3.7-1.7c1.5,0,2.7,0.6,3.6,1.6c0.8-0.5,1.5-1,2.3-1.3c3-1.1,6.3,1.1,6.5,4.3
		c0.1,0.9,0,1.9,0,2.9c0.9,0,1.7,0,2.5,0c0-0.3,0-0.5,0-0.7c0-2.9,0-5.7,0-8.6c0-0.2,0-0.4,0-0.6c0.1-0.8,0.6-1.3,1.3-1.2
		c0.7,0,1.2,0.6,1.2,1.3c0,2.6,0,5.1,0,7.7c0,1.1,0,2.1,0,3.2c0,1-0.5,1.5-1.5,1.5c-1.1,0-2.2,0-3.4,0c0,0.3,0,0.5,0,0.8
		c0,8.7,0,17.4,0,26.2c0,0.9-0.1,1.8-0.5,2.7c-0.7,1.5-1.9,2.4-3.4,2.7c-0.1,0-0.2,0.1-0.3,0.1c-0.5,0-1,0-1.5,0
		c-1.1-0.3-2.2-0.8-3-1.7c-0.8,1-1.8,1.3-2.9,1.7c-0.5,0-1.1,0-1.6,0c-1.1-0.3-2.2-0.8-2.9-1.6c-0.5,0.4-0.9,0.7-1.4,1
		c-0.5,0.3-1,0.4-1.5,0.6c-0.5,0-1.1,0-1.6,0c-1.1-0.3-2.2-0.8-3-1.7c-0.8,0.9-1.8,1.3-2.9,1.7c-0.5,0-1.1,0-1.6,0
		c-1.1-0.3-2.2-0.8-3-1.7c-0.8,0.9-1.8,1.3-2.9,1.7c-0.5,0-1.1,0-1.6,0c-1.1-0.3-2.2-0.8-3-1.7c-0.8,0.9-1.8,1.3-2.9,1.7
		c-0.5,0-1.1,0-1.6,0c0,0-0.1-0.1-0.1-0.1c-2.6-0.5-4.2-2.8-4.2-5.5c0.1-7.5,0-15,0-22.4c0-0.2,0-0.5,0-0.7c-1.2,0-2.3,0-3.4,0
		c-1.1,0-1.6-0.5-1.6-1.6c0-0.7,0-1.4,0-2.1c-1,0-2,0.2-2.5-0.9C92,26.4,92,26.1,92,25.9z M107,38.8c0-5.3,0-10.5,0-15.8
		c0-0.4,0-0.8-0.1-1.2c-0.3-1.1-1.3-1.8-2.4-1.8c-1.1,0-2.1,0.7-2.4,1.8c-0.1,0.4-0.1,0.8-0.1,1.2c0,10.5,0,20.9,0,31.4
		c0,0.3,0,0.6,0.1,0.9c0.1,1,1,1.9,2,2c1.7,0.2,2.9-0.9,2.9-2.7C107,49.4,107,44.1,107,38.8z M109.5,38.7c0,5.2,0,10.4,0,15.6
		c0,0.3,0,0.6,0,0.9c0.1,0.8,0.5,1.4,1.1,1.8c0.8,0.5,1.7,0.5,2.5,0.1c0.9-0.5,1.3-1.3,1.3-2.3c0-10.7,0-21.4,0-32.1
		c0-0.3,0-0.5-0.1-0.8c-0.3-1-0.9-1.6-1.9-1.8c-1-0.2-1.8,0.1-2.4,0.9c-0.5,0.6-0.5,1.3-0.5,2C109.5,28.2,109.5,33.5,109.5,38.7z
		 M117,38.7c0,5.2,0,10.4,0,15.6c0,0.3,0,0.6,0,0.9c0.1,0.8,0.5,1.4,1.1,1.8c0.8,0.5,1.7,0.5,2.5,0.1c0.9-0.5,1.3-1.3,1.3-2.3
		c0-10.7,0-21.4,0-32.1c0-0.3,0-0.5-0.1-0.8c-0.3-1-0.9-1.6-1.9-1.8c-1-0.2-1.8,0.1-2.4,0.9c-0.5,0.6-0.5,1.3-0.5,2
		C117,28.2,117,33.5,117,38.7z M129.5,38.7c0-4.7,0-9.5,0-14.2c0-0.7,0-1.3,0-2c-0.1-1.8-1.8-3-3.4-2.3c-1.2,0.5-1.6,1.4-1.6,2.6
		c0,10.6,0,21.2,0,31.9c0,0.3,0,0.5,0.1,0.8c0.2,1,1,1.9,2,2c1.7,0.2,2.9-0.9,2.9-2.7C129.5,49.4,129.5,44,129.5,38.7z M137,38.8
		c0-5.3,0-10.5,0-15.8c0-0.3,0-0.7-0.1-1c-0.2-1.1-1.2-1.9-2.3-1.9c-1.2,0-2.2,0.7-2.5,1.8c-0.1,0.4-0.1,0.8-0.1,1.3
		c0,10.5,0,20.9,0,31.4c0,0.3,0,0.6,0.1,0.9c0.1,1.1,1,1.9,2.1,2c1.6,0.2,2.8-0.9,2.8-2.7C137,49.4,137,44.1,137,38.8z M139.5,38.8
		c0,5.2,0,10.4,0,15.6c0,0.3,0,0.6,0,0.9c0.1,0.8,0.5,1.5,1.2,1.9c1.7,1,3.7-0.3,3.7-2.4c0-10.7,0-21.4,0-32c0-0.3,0-0.6-0.1-0.9
		c-0.3-1-0.9-1.6-2-1.8c-1-0.2-1.8,0.2-2.4,1c-0.4,0.6-0.5,1.3-0.5,1.9C139.5,28.2,139.5,33.5,139.5,38.8z M99.5,28.7
		c0-1.7,0-3.3,0-4.9c-0.8,0-1.6,0-2.4,0c0,1.7,0,3.3,0,4.9C97.9,28.7,98.7,28.7,99.5,28.7z"/>
	<path d="M125.7,4.6c0,1.3-0.4,2.4-1.2,3.4c-1.4,1.6-1.3,3.2-0.3,4.9c0.4,0.7,0.4,1.4-0.1,1.8c-0.6,0.5-1.4,0.4-1.8-0.2
		c-1.6-2.3-2.1-5.2-0.1-7.6c1.3-1.5,1.1-3.1,0.3-4.5c-0.1-0.2-0.2-0.3-0.3-0.5c-0.3-0.6-0.1-1.3,0.5-1.7c0.6-0.3,1.3-0.2,1.7,0.4
		C125.1,1.8,125.6,3.1,125.7,4.6z"/>
	<path d="M135.3,8.3c0,0.9-0.3,1.7-0.9,2.4c-0.7,0.8-0.7,1.2-0.2,2.2c0.2,0.4,0.3,0.8,0.3,1.2c0,0.5-0.4,0.8-0.9,0.9
		c-0.5,0.1-0.9,0-1.2-0.4c-1.2-1.5-1.6-3.6-0.2-5.3c0.8-0.9,0.8-1.2,0.2-2.2c-0.2-0.3-0.3-0.7-0.3-1c0-0.5,0.3-0.9,0.8-1
		c0.5-0.2,1,0,1.4,0.4C134.9,6.3,135.3,7.2,135.3,8.3z"/>
	<path d="M115.3,8.6c0,0.6-0.3,1.4-0.9,2c-0.7,0.9-0.8,1.3-0.2,2.2c0.1,0.2,0.3,0.4,0.3,0.7c0.1,0.5-0.2,1.1-0.7,1.3
		c-0.5,0.3-1.1,0.2-1.5-0.2c-1.1-1.4-1.7-3.5-0.2-5.3c0.8-0.9,0.8-1.2,0.2-2.2c-0.3-0.4-0.4-0.9-0.2-1.4c0.4-0.9,1.5-1,2.2-0.2
		C114.9,6.2,115.3,7.4,115.3,8.6z"/>
</g>
<g>
	<path d="M503.2-17.7c0,1.2,0.2,2.6-0.1,3.7c-0.4,1.7,0.3,2.5,1.6,3.3c4.6,2.9,9.1,5.9,13.7,8.8c1.8,1.2,2.1,2,1.4,4
		c-2.8,8.5-7.3,16-13.3,22.6c-1.3,1.4-2.3,1.6-4,0.7c-5.2-2.7-10.5-5.3-15.7-8.1c-0.8-0.4-1.3-0.4-2,0.1c-8.2,5.7-17.4,8.3-27.3,7.7
		c-8-0.5-15.4-3.1-22-7.7c-0.8-0.6-1.4-0.6-2.2-0.1c-5.2,2.7-10.4,5.3-15.5,8c-1.7,0.9-2.7,0.7-4-0.7c-5.9-6.6-10.4-14.1-13.2-22.5
		c-0.7-2.2-0.5-2.9,1.5-4.2c4.8-3.1,9.5-6.2,14.3-9.2c0.8-0.5,1.1-0.9,1-1.9c-1.2-11.5,1.7-21.8,8.7-31c4.4-5.8,9.9-10,16.5-13
		c0.4-0.2,0.9-0.9,0.9-1.4c0.4-5.7,0.6-11.3,0.9-17c0.1-2.7,0.6-3.3,3.2-3.8c8.5-1.7,16.9-1.7,25.4,0c2.4,0.5,3,1.2,3.1,3.6
		c0.3,5.7,0.6,11.3,0.8,17c0,0.9,0.3,1.3,1.1,1.7c14.1,6.7,22.2,17.8,24.9,33c0.2,1,0.3,2,0.3,3C503.3-19.8,503.3-18.8,503.2-17.7
		C503.2-17.7,503.2-17.7,503.2-17.7z M416.8,20.3c5.5-2.8,10.9-5.5,16.2-8.4c1.5-0.8,2.7-0.6,4,0.4c13.2,10.2,31.2,10.7,44.7,1.3
		c4.1-2.8,3.2-2.9,7.9-0.5c4.6,2.4,9.3,4.8,13.9,7.1c0.2-0.1,0.3-0.1,0.4-0.2c4.6-5.2,8-11,10.4-17.5c0.1-0.3-0.3-1.2-0.7-1.4
		c-4.7-3.1-9.4-6.2-14.2-9.2c-1.5-0.9-1.9-2.1-1.7-3.8c1.2-7.2,0.3-14.2-2.6-20.9c-4.2-9.6-11.2-16.4-21-20.4
		c-1.5-0.6-2.2-1.5-2.2-3.1c0-1.8-0.2-3.6-0.3-5.4c-0.2-4.3-0.5-8.5-0.7-12.9c-7.2-1.3-14.3-1.4-21.4,0c-0.3,6.2-0.7,12.2-1,18.3
		c-0.1,1.5-0.7,2.4-2.1,3c-6.7,2.6-12.2,6.7-16.5,12.4c-6.4,8.4-8.9,17.9-7.4,28.4c0.3,2.2-0.2,3.4-2,4.6c-4.6,2.8-9.1,5.8-13.7,8.8
		c-0.4,0.3-0.9,1.1-0.8,1.4C408.6,9.1,412.1,15,416.8,20.3z"/>
	<path d="M415.1,4.8c1.6,2.5,3.2,4.9,4.7,7.3c0.4,0.8,0.9,1.8,0.7,2.6c-0.4,2.1-3.1,2.8-4.2,1.1c-2.4-3.7-4.6-7.5-6.7-11.4
		c-0.6-1.1,0.2-2.3,1.3-3c4.5-2.9,8.9-5.8,13.4-8.6c1.2-0.7,1.4-1.4,1.1-2.8c-2-9.6-0.5-18.6,4.8-26.9c4.4-6.8,10.4-11.7,18-14.3
		c2-0.7,2.7-1.6,2.7-3.7c0.1-4.8,0.4-9.7,0.6-14.5c0.1-2.4,0.7-3.3,3-3.4c3.7-0.1,7.5-0.2,11.2,0c2.3,0.1,3,1,3.1,3.4
		c0.2,5.3,0.5,10.6,0.8,15.8c0,1.1,0.4,1.5,1.4,1.9c7,2.3,12.8,6.3,17.3,12.2c0.3,0.4,0.5,0.7,0.8,1.1c0.9,1.4,0.8,2.9-0.4,3.7
		c-1.3,0.9-2.7,0.7-3.8-0.7c-2.6-3.5-5.6-6.5-9.4-8.6c-2.7-1.4-5.6-2.6-8.5-3.7c-1.7-0.6-2.4-1.6-2.5-3.4c-0.2-5.5-0.6-11-0.9-16.7
		c-2.3,0-4.6,0-7.1,0c-0.2,4.2-0.5,8.4-0.7,12.6c-0.1,1.4-0.2,2.9-0.2,4.3c0,1.7-0.9,2.6-2.4,3.2c-3.1,1.3-6.4,2.4-9.2,4.1
		c-10.7,6.3-16.2,19-14,31.1c0.3,1.5,0.4,3,0.8,4.4c0.4,1.7-0.3,2.7-1.6,3.6c-4.4,2.8-8.8,5.7-13.2,8.5
		C415.8,4.2,415.6,4.4,415.1,4.8z"/>
	<path d="M484-18.2c0,13-10.7,23.8-23.7,23.8c-13,0-23.7-10.7-23.8-23.8c0-13,10.6-23.7,23.6-23.8C473.3-41.9,483.9-31.4,484-18.2z
		 M460.2,0.4c10.3,0,18.6-8.3,18.6-18.6c0-10.3-8.3-18.6-18.6-18.6c-10.2,0-18.6,8.4-18.6,18.6C441.6-7.9,449.9,0.4,460.2,0.4z"/>
</g>
<path d="M235.8-51.6c0.7-1.3,1.8-1.8,3.3-1.7c2.1,0.1,4.2,0,6.4,0c0-2.4,0-4.6,0-6.9c0-2.2,0.8-3.1,3.1-3.1c2.2,0,4.4,0,6.6,0
	c0-2.4,0.5-4.6,1.7-6.6c2.3-3.8,5.7-6,10.2-6.1c23.9-0.1,47.8,0,71.8,0c6.3,0,11.7,5.4,11.9,11.7c0,0.3,0,0.6,0,1c2.2,0,4.4,0,6.6,0
	c2.3,0,3.1,0.8,3.1,3.2c0,17.4,0,34.8,0,52.1c0,2.3-0.8,3.2-3.1,3.2c-2.1,0-4.1,0-6.2,0c-0.1,0-0.2,0-0.4,0.1c-0.2,2.6-1,5-2.7,7.1
	c-1.7,2-3.8,3.4-6.4,4.2c0.2,0.7,0.4,1.4,0.6,2.1c1,3,2,6.1,3,9.1c0.8,2.4-0.2,3.8-2.7,3.8c-10.2,0-20.4,0-30.6,0
	c-2.4,0-3.4-1.4-2.7-3.7c1.2-3.6,2.4-7.2,3.6-10.9c-6.5,0-12.9,0-19.4,0c0.6,1.8,1.1,3.5,1.7,5.3c0.6,1.9,1.3,3.8,1.9,5.6
	c0.7,2.2-0.3,3.6-2.6,3.6c-10.3,0-20.5,0-30.8,0c-2.3,0-3.4-1.4-2.6-3.7c1.1-3.5,2.3-6.9,3.4-10.4c0.1-0.2,0.1-0.4,0.2-0.7
	c-5.7-1.7-8.9-5.5-9.6-11.5c-2.1,0-4.2,0-6.3,0c-0.5,0-1,0-1.5-0.1c-1.2-0.2-1.9-1.2-2-2.6c0-1.2,0-2.4,0-3.7c0-1.2,0-2.4,0-3.7
	c-1.3,0-2.6,0-3.9,0c-0.9,0-1.9-0.1-2.8,0c-1.4,0.1-2.4-0.5-3.1-1.7C235.8-28.2,235.8-39.9,235.8-51.6z M303,2c11.5,0,23.1,0,34.6,0
	c5.3,0,8.3-3,8.3-8.3c0-18.8,0-37.7,0-56.5c0-5.3-3-8.3-8.3-8.3c-23.1,0-46.1,0-69.2,0c-5.3,0-8.3,3-8.3,8.3c0,18.8,0,37.7,0,56.5
	c0,5.3,3,8.3,8.3,8.3C280,2,291.5,2,303,2z M255.2-9.8c0-16.3,0-32.5,0-48.6c-1.6,0-3.2,0-4.7,0c0,16.2,0,32.4,0,48.6
	C252.1-9.8,253.6-9.8,255.2-9.8z M350.9-58.4c0,16.3,0,32.4,0,48.6c1.6,0,3.2,0,4.7,0c0-16.2,0-32.4,0-48.6
	C354-58.4,352.5-58.4,350.9-58.4z M240.7-48.4c0,9.6,0,19.2,0,28.7c1.6,0,3.2,0,4.7,0c0-9.6,0-19.1,0-28.7
	C243.9-48.4,242.3-48.4,240.7-48.4z M278.6,16.6c1.1-3.2,2.1-6.4,3.2-9.7c-4,0-7.9,0-11.9,0c-1.1,3.2-2.1,6.4-3.2,9.7
	C270.8,16.6,274.6,16.6,278.6,16.6z M330.1,6.9c-3.9,0-7.6,0-11.3,0c-0.2,0-0.6,0.2-0.7,0.5c-1.1,3-2.1,6.1-3.1,9.3
	c3.9,0,7.6,0,11.3,0c0.2,0,0.6-0.2,0.7-0.5C328,13.1,329,10,330.1,6.9z M291.6,16.6c-1-3.1-2.1-6.2-3.1-9.2
	c-0.1-0.2-0.4-0.5-0.7-0.5c-0.3,0-0.8,0.2-0.8,0.4c-1.1,3.1-2.1,6.2-3.1,9.3C286.4,16.6,288.9,16.6,291.6,16.6z M339.8,16.6
	c-1-3.1-2.1-6.2-3.1-9.2c-0.2-0.5-1.2-0.7-1.5-0.3c-0.2,0.3-0.2,0.6-0.3,0.9c-1,2.9-1.9,5.7-2.9,8.6
	C334.7,16.6,337.2,16.6,339.8,16.6z"/>
<path d="M303-56.5c10.2,0,20.4,0,30.6,0c4.4,0,7.7,3.5,7.4,7.8c-0.2,3.5-3.2,6.5-6.7,6.7c-0.3,0-0.6,0-1,0c-20.2,0-40.4,0-60.7,0
	c-4.4,0-7.7-3.1-7.7-7.2c0-4,3.1-7.3,7.2-7.4c4.5,0,9.1,0,13.6,0C291.6-56.5,297.3-56.5,303-56.5z M303-46.8c9.9,0,19.7,0,29.6,0
	c2.3,0,3.5-0.8,3.6-2.4c0-1.6-1.2-2.5-3.5-2.5c-19.7,0-39.5,0-59.2,0c-2.3,0-3.5,0.9-3.5,2.5c0,1.6,1.3,2.4,3.6,2.4
	C283.3-46.8,293.2-46.8,303-46.8z"/>
<path d="M303.2-37c10.1,0,20.3,0,30.4,0c4.4,0,7.7,3.5,7.4,7.9c-0.2,3.5-3.2,6.5-6.7,6.7c-0.3,0-0.6,0-1,0c-20.2,0-40.4,0-60.7,0
	c-4.4,0-7.7-3.1-7.7-7.2c0-4,3.1-7.3,7.2-7.3c4.7,0,9.5,0,14.2,0C292-37,297.6-37,303.2-37z M303-27.3c9.9,0,19.7,0,29.6,0
	c2.3,0,3.5-0.8,3.6-2.4c0-1.6-1.2-2.5-3.5-2.5c-19.7,0-39.5,0-59.2,0c-2.3,0-3.5,0.9-3.5,2.5c0,1.6,1.3,2.4,3.6,2.4
	C283.3-27.3,293.2-27.3,303-27.3z"/>
<path d="M303-17.5c10.2,0,20.4,0,30.6,0c4.4,0,7.7,3.5,7.4,7.8c-0.2,3.5-3.2,6.5-6.7,6.7c-0.3,0-0.6,0-0.9,0c-20.3,0-40.6,0-60.9,0
	c-4.2,0-7.4-3-7.6-7c-0.1-4.3,3.1-7.6,7.4-7.6c8.3,0,16.6,0,25,0C299.3-17.5,301.2-17.5,303-17.5z M303.1-7.8c9.9,0,19.7,0,29.6,0
	c0.6,0,1.3-0.1,1.9-0.2c1.1-0.3,1.6-1.2,1.5-2.2c0-1-0.5-1.8-1.5-2.1c-0.5-0.2-1.1-0.2-1.7-0.2c-19.9,0-39.9,0-59.8,0
	c-2,0-3.2,0.9-3.2,2.4c0,1.5,1.2,2.4,3.2,2.4c0.2,0,0.5,0,0.7,0C283.6-7.8,293.3-7.8,303.1-7.8z"/>
<path d="M308.1-61.4c-9.7,0-19.5,0-29.2,0c-0.4,0-0.7,0-1.1,0c-1.5-0.1-2.5-1.1-2.5-2.5c0-1.3,1-2.3,2.4-2.4c0.3,0,0.6,0,1,0
	c19.7,0,39.3,0,59,0c2.2,0,3.4,0.8,3.4,2.4c0,1.6-1.1,2.5-3.5,2.5C327.8-61.4,317.9-61.4,308.1-61.4z"/>
<path d="M270.4-63.8c0,1.4-1.1,2.5-2.5,2.5c-1.3,0-2.4-1.1-2.4-2.4c0-1.3,1.1-2.5,2.5-2.5C269.3-66.2,270.4-65.1,270.4-63.8z"/>
<path class="st0" d="M26.7,26.5c-0.2-0.1-0.5-0.2-0.6-0.4c-2.3-2.2-4.5-4.5-6.7-6.7c-0.8-0.8-1.3-1.8-1.4-3
	c-0.2-1.9-0.4-3.7-0.6-5.6c-0.2-1.6,0.2-3,1.5-4.1c1.7-1.6,3.3-3.2,4.8-4.9c1.3-1.4,2.8-2,4.7-1.7c1.8,0.3,3.7,0.4,5.6,0.6
	c1.1,0.1,2.1,0.6,2.8,1.4c2.2,2.3,4.5,4.5,6.7,6.7c0.2,0.2,0.3,0.3,0.7,0.7c0.5-0.6,1-1.3,1.6-1.8c2.7-2.4,6.9-1.1,7.7,2.4
	c0.4,1.6,0,3.1-1.1,4.3c-0.5,0.6-1.1,1-1.7,1.6c0.3,0.3,0.4,0.5,0.6,0.6c2.2,2.2,4.5,4.5,6.7,6.7c0.9,0.9,1.4,1.8,1.5,3.1
	c0.2,1.9,0.4,3.7,0.6,5.6c0.2,1.6-0.2,2.8-1.4,3.9c-1.9,1.8-3.7,3.7-5.6,5.5c-1,1.1-2.3,1.4-3.7,1.3c-2-0.2-4.1-0.4-6.2-0.6
	c-1-0.1-1.8-0.6-2.6-1.3c-2.2-2.3-4.5-4.5-6.7-6.7c-0.2-0.2-0.3-0.4-0.6-0.7c-0.2,0.2-0.4,0.4-0.6,0.5c-5.3,5.3-10.5,10.6-15.8,15.8
	c-0.3,0.3-0.4,0.6-0.3,1c0.2,1.1,0.1,2.2-0.7,3.2c-1.2,1.5-2.3,3.1-3.5,4.6c-1.5,1.8-4.1,2-5.8,0.4c-1.9-1.8-3.7-3.6-5.5-5.5
	c-1.6-1.6-1.5-4.3,0.3-5.8c1.6-1.3,3.2-2.6,4.8-3.8c0.9-0.7,2-0.8,3.2-0.6c0.2,0.1,0.6,0,0.8-0.2c5.4-5.3,10.7-10.6,16.1-16
	C26.3,27,26.4,26.8,26.7,26.5z M56.8,28.3c-0.1-0.1-0.2-0.1-0.2-0.2c-0.1,0.2-0.3,0.4-0.4,0.6c-2.5,2.5-5.1,5.1-7.6,7.6
	c-0.2,0.2-0.3,0.4-0.5,0.5c-0.5,0.4-1.2,0.3-1.7-0.1c-0.5-0.5-0.5-1.1-0.1-1.7c0.1-0.2,0.3-0.4,0.5-0.5c2.9-2.9,5.8-5.8,8.8-8.8
	c0.2-0.2,0.4-0.4,0.5-0.6c-0.1-0.1-0.2-0.2-0.2-0.3c-7.1-7.1-14.1-14.1-21.2-21.1c-0.3-0.3-0.8-0.5-1.2-0.5
	c-1.9-0.3-3.8-0.4-5.8-0.7c-0.7-0.1-1.2,0.1-1.7,0.6C24.2,4.8,22.7,6.5,21,8c-1,0.9-1.5,1.8-1.2,3.2c0.3,1.1,0.3,2.2,0.4,3.3
	c0.1,0,0.2,0.1,0.3,0.1c0.1-0.2,0.2-0.4,0.4-0.6c2.5-2.6,5.1-5.1,7.6-7.6C28.7,6.2,28.9,6.1,29,6c0.6-0.5,1.3-0.5,1.8,0.1
	c0.5,0.5,0.5,1.2,0,1.8c-0.1,0.2-0.3,0.3-0.4,0.4c-2.9,2.9-5.8,5.8-8.7,8.7c-0.2,0.2-0.4,0.3-0.7,0.4c0.2,0.3,0.3,0.4,0.4,0.5
	c7,7,14,14.1,21.1,21.1c0.3,0.3,0.7,0.5,1.1,0.6c2,0.3,4,0.5,6,0.6c0.5,0,1.1-0.2,1.4-0.5c2-1.9,3.9-3.8,5.8-5.8
	c0.2-0.2,0.4-0.6,0.4-0.9C57.2,31.4,57,29.9,56.8,28.3z M8.5,45.7c-0.4,0.2-0.7,0.3-1,0.5c-1.4,1-2.7,2.1-4.1,3.2
	c-0.9,0.7-0.9,1.5-0.1,2.3c1.7,1.7,3.3,3.3,5,5c0.8,0.8,1.7,0.7,2.3-0.1c1.1-1.4,2.1-2.8,3.2-4.2c0.6-0.7,0.5-1.3-0.1-2
	c-1.4-1.4-2.7-2.8-4.1-4.1C9.2,46.1,8.8,46,8.5,45.7z M26.3,36.4c-0.9-1-1.9-1.9-2.8-2.8c-3.8,3.8-7.6,7.6-11.4,11.4
	c0.9,0.9,1.9,1.9,2.8,2.8C18.7,44,22.5,40.2,26.3,36.4z M31.2,31.6c-0.9-0.9-1.9-1.8-2.7-2.7c-0.9,0.9-1.8,1.8-2.7,2.7
	c0.9,0.9,1.8,1.8,2.7,2.7C29.4,33.4,30.3,32.5,31.2,31.6z M45.8,11.1c1,1,2,2,3,3c0.4-0.4,0.8-0.9,1.2-1.4c0.8-0.9,0.9-2.1,0-2.9
	C49.4,9,48.1,9,47.2,9.7C46.7,10.2,46.2,10.7,45.8,11.1z"/>
</svg>
