<?xml version="1.0" encoding="utf-8"?>
<!-- Generator: Adobe Illustrator 26.0.0, SVG Export Plug-In . SVG Version: 6.00 Build 0)  -->
<svg version="1.1" id="Layer_1" xmlns="http://www.w3.org/2000/svg" xmlns:xlink="http://www.w3.org/1999/xlink" x="0px" y="0px"
	 viewBox="0 0 60 60" style="enable-background:new 0 0 60 60;" xml:space="preserve">
<style type="text/css">
	.st0{fill:#FFFFFF;}
</style>
<g>
	<path class="st0" d="M0.1-42.1C0.6-43.2,1.6-43,2.6-43c0-0.7,0-1.4,0-2.1c0-1.1,0.5-1.6,1.6-1.6c1,0,2.1,0,3.1,0
		c0.3,0,0.5-0.1,0.6-0.4c1.3-3.5,5.4-4.4,8.1-2c0.1,0.1,0.2,0.2,0.3,0.2c3.2-2.2,4.6-2.2,7.5,0c1-1,2.2-1.7,3.7-1.7s2.7,0.6,3.7,1.6
		c3.2-2.2,4.7-2.2,7.6,0c1-1,2.2-1.7,3.7-1.7s2.7,0.6,3.6,1.6c0.8-0.5,1.5-1,2.3-1.3c3-1.1,6.3,1.1,6.5,4.3c0.1,0.9,0,1.9,0,2.9
		c0.9,0,1.7,0,2.5,0c0-0.3,0-0.5,0-0.7c0-2.9,0-5.7,0-8.6c0-0.2,0-0.4,0-0.6c0.1-0.8,0.6-1.3,1.3-1.2c0.7,0,1.2,0.6,1.2,1.3
		c0,2.6,0,5.1,0,7.7c0,1.1,0,2.1,0,3.2c0,1-0.5,1.5-1.5,1.5c-1.1,0-2.2,0-3.4,0c0,0.3,0,0.5,0,0.8c0,8.7,0,17.4,0,26.2
		c0,0.9-0.1,1.8-0.5,2.7c-0.7,1.5-1.9,2.4-3.4,2.7c-0.1,0-0.2,0.1-0.3,0.1c-0.5,0-1,0-1.5,0c-1.1-0.3-2.2-0.8-3-1.7
		c-0.8,1-1.8,1.3-2.9,1.7c-0.5,0-1.1,0-1.6,0c-1.1-0.3-2.2-0.8-2.9-1.6c-0.5,0.4-0.9,0.7-1.4,1s-1,0.4-1.5,0.6c-0.5,0-1.1,0-1.6,0
		c-1.1-0.3-2.2-0.8-3-1.7c-0.8,0.9-1.8,1.3-2.9,1.7c-0.5,0-1.1,0-1.6,0c-1.1-0.3-2.2-0.8-3-1.7c-0.8,0.9-1.8,1.3-2.9,1.7
		c-0.5,0-1.1,0-1.6,0c-1.1-0.3-2.2-0.8-3-1.7c-0.8,0.9-1.8,1.3-2.9,1.7c-0.5,0-1.1,0-1.6,0l-0.1-0.1C9.2-8.7,7.6-11,7.6-13.7
		c0.1-7.5,0-15,0-22.4c0-0.2,0-0.5,0-0.7c-1.2,0-2.3,0-3.4,0s-1.6-0.5-1.6-1.6c0-0.7,0-1.4,0-2.1c-1,0-2,0.2-2.5-0.9
		C0.1-41.6,0.1-41.9,0.1-42.1z M15.1-29.2c0-5.3,0-10.5,0-15.8c0-0.4,0-0.8-0.1-1.2c-0.3-1.1-1.3-1.8-2.4-1.8s-2.1,0.7-2.4,1.8
		c-0.1,0.4-0.1,0.8-0.1,1.2c0,10.5,0,20.9,0,31.4c0,0.3,0,0.6,0.1,0.9c0.1,1,1,1.9,2,2c1.7,0.2,2.9-0.9,2.9-2.7
		C15.1-18.6,15.1-23.9,15.1-29.2z M17.6-29.3c0,5.2,0,10.4,0,15.6c0,0.3,0,0.6,0,0.9c0.1,0.8,0.5,1.4,1.1,1.8
		c0.8,0.5,1.7,0.5,2.5,0.1c0.9-0.5,1.3-1.3,1.3-2.3c0-10.7,0-21.4,0-32.1c0-0.3,0-0.5-0.1-0.8c-0.3-1-0.9-1.6-1.9-1.8
		s-1.8,0.1-2.4,0.9c-0.5,0.6-0.5,1.3-0.5,2C17.6-39.8,17.6-34.5,17.6-29.3z M25.1-29.3c0,5.2,0,10.4,0,15.6c0,0.3,0,0.6,0,0.9
		c0.1,0.8,0.5,1.4,1.1,1.8c0.8,0.5,1.7,0.5,2.5,0.1c0.9-0.5,1.3-1.3,1.3-2.3c0-10.7,0-21.4,0-32.1c0-0.3,0-0.5-0.1-0.8
		c-0.3-1-0.9-1.6-1.9-1.8s-1.8,0.1-2.4,0.9c-0.5,0.6-0.5,1.3-0.5,2C25.1-39.8,25.1-34.5,25.1-29.3z M37.6-29.3c0-4.7,0-9.5,0-14.2
		c0-0.7,0-1.3,0-2c-0.1-1.8-1.8-3-3.4-2.3c-1.2,0.5-1.6,1.4-1.6,2.6c0,10.6,0,21.2,0,31.9c0,0.3,0,0.5,0.1,0.8c0.2,1,1,1.9,2,2
		c1.7,0.2,2.9-0.9,2.9-2.7C37.6-18.6,37.6-24,37.6-29.3z M45.1-29.2c0-5.3,0-10.5,0-15.8c0-0.3,0-0.7-0.1-1
		c-0.2-1.1-1.2-1.9-2.3-1.9c-1.2,0-2.2,0.7-2.5,1.8c-0.1,0.4-0.1,0.8-0.1,1.3c0,10.5,0,20.9,0,31.4c0,0.3,0,0.6,0.1,0.9
		c0.1,1.1,1,1.9,2.1,2c1.6,0.2,2.8-0.9,2.8-2.7C45.1-18.6,45.1-23.9,45.1-29.2z M47.6-29.2c0,5.2,0,10.4,0,15.6c0,0.3,0,0.6,0,0.9
		c0.1,0.8,0.5,1.5,1.2,1.9c1.7,1,3.7-0.3,3.7-2.4c0-10.7,0-21.4,0-32c0-0.3,0-0.6-0.1-0.9c-0.3-1-0.9-1.6-2-1.8
		c-1-0.2-1.8,0.2-2.4,1c-0.4,0.6-0.5,1.3-0.5,1.9C47.6-39.8,47.6-34.5,47.6-29.2z M7.6-39.3c0-1.7,0-3.3,0-4.9c-0.8,0-1.6,0-2.4,0
		c0,1.7,0,3.3,0,4.9C6-39.3,6.8-39.3,7.6-39.3z"/>
	<path class="st0" d="M33.8-63.4c0,1.3-0.4,2.4-1.2,3.4c-1.4,1.6-1.3,3.2-0.3,4.9c0.4,0.7,0.4,1.4-0.1,1.8c-0.6,0.5-1.4,0.4-1.8-0.2
		c-1.6-2.3-2.1-5.2-0.1-7.6c1.3-1.5,1.1-3.1,0.3-4.5c-0.1-0.2-0.2-0.3-0.3-0.5c-0.3-0.6-0.1-1.3,0.5-1.7c0.6-0.3,1.3-0.2,1.7,0.4
		C33.2-66.2,33.7-64.9,33.8-63.4z"/>
	<path class="st0" d="M43.4-59.7c0,0.9-0.3,1.7-0.9,2.4c-0.7,0.8-0.7,1.2-0.2,2.2c0.2,0.4,0.3,0.8,0.3,1.2c0,0.5-0.4,0.8-0.9,0.9
		c-0.5,0.1-0.9,0-1.2-0.4c-1.2-1.5-1.6-3.6-0.2-5.3c0.8-0.9,0.8-1.2,0.2-2.2c-0.2-0.3-0.3-0.7-0.3-1c0-0.5,0.3-0.9,0.8-1
		c0.5-0.2,1,0,1.4,0.4C43-61.7,43.4-60.8,43.4-59.7z"/>
	<path class="st0" d="M23.4-59.4c0,0.6-0.3,1.4-0.9,2c-0.7,0.9-0.8,1.3-0.2,2.2c0.1,0.2,0.3,0.4,0.3,0.7c0.1,0.5-0.2,1.1-0.7,1.3
		c-0.5,0.3-1.1,0.2-1.5-0.2c-1.1-1.4-1.7-3.5-0.2-5.3c0.8-0.9,0.8-1.2,0.2-2.2c-0.3-0.4-0.4-0.9-0.2-1.4c0.4-0.9,1.5-1,2.2-0.2
		C23-61.8,23.4-60.6,23.4-59.4z"/>
</g>
<g>
	<path class="st0" d="M176.1-58.5c0,0.6,0.1,1.3,0,1.8c-0.2,0.8,0.1,1.2,0.8,1.6c2.3,1.4,4.5,2.9,6.8,4.4c0.9,0.6,1,1,0.7,2
		c-1.4,4.2-3.6,8-6.6,11.3c-0.6,0.7-1.1,0.8-2,0.3c-2.6-1.3-5.2-2.6-7.8-4c-0.4-0.2-0.6-0.2-1,0c-4.1,2.8-8.7,4.1-13.6,3.8
		c-4-0.2-7.7-1.5-11-3.8c-0.4-0.3-0.7-0.3-1.1,0c-2.6,1.3-5.2,2.6-7.7,4c-0.8,0.4-1.3,0.3-2-0.3c-2.9-3.3-5.2-7-6.6-11.2
		c-0.3-1.1-0.2-1.4,0.7-2.1c2.4-1.5,4.7-3.1,7.1-4.6c0.4-0.2,0.5-0.4,0.5-0.9c-0.6-5.7,0.8-10.9,4.3-15.5c2.2-2.9,4.9-5,8.2-6.5
		c0.2-0.1,0.4-0.4,0.4-0.7c0.2-2.8,0.3-5.6,0.4-8.5c0-1.3,0.3-1.6,1.6-1.9c4.2-0.8,8.4-0.8,12.7,0c1.2,0.2,1.5,0.6,1.5,1.8
		c0.1,2.8,0.3,5.6,0.4,8.5c0,0.4,0.1,0.6,0.5,0.8c7,3.3,11.1,8.9,12.4,16.5c0.1,0.5,0.1,1,0.1,1.5C176.2-59.6,176.2-59.1,176.1-58.5
		L176.1-58.5z M133-39.6c2.7-1.4,5.4-2.7,8.1-4.2c0.7-0.4,1.3-0.3,2,0.2c6.6,5.1,15.6,5.3,22.3,0.6c2-1.4,1.6-1.4,3.9-0.2
		c2.3,1.2,4.6,2.4,6.9,3.5c0.1,0,0.1,0,0.2-0.1c2.3-2.6,4-5.5,5.2-8.7c0-0.1-0.1-0.6-0.3-0.7c-2.3-1.5-4.7-3.1-7.1-4.6
		c-0.7-0.4-0.9-1-0.8-1.9c0.6-3.6,0.1-7.1-1.3-10.4c-2.1-4.8-5.6-8.2-10.5-10.2c-0.7-0.3-1.1-0.7-1.1-1.5c0-0.9-0.1-1.8-0.1-2.7
		c-0.1-2.1-0.2-4.2-0.3-6.4c-3.6-0.6-7.1-0.7-10.7,0c-0.1,3.1-0.3,6.1-0.5,9.1c0,0.7-0.3,1.2-1,1.5c-3.3,1.3-6.1,3.3-8.2,6.2
		c-3.2,4.2-4.4,8.9-3.7,14.2c0.1,1.1-0.1,1.7-1,2.3c-2.3,1.4-4.5,2.9-6.8,4.4c-0.2,0.1-0.4,0.5-0.4,0.7
		C128.9-45.1,130.7-42.2,133-39.6z"/>
	<path class="st0" d="M132.2-47.3c0.8,1.2,1.6,2.4,2.3,3.6c0.2,0.4,0.4,0.9,0.3,1.3c-0.2,1-1.5,1.4-2.1,0.5
		c-1.2-1.8-2.3-3.7-3.3-5.7c-0.3-0.5,0.1-1.1,0.6-1.5c2.2-1.4,4.4-2.9,6.7-4.3c0.6-0.3,0.7-0.7,0.5-1.4c-1-4.8-0.2-9.3,2.4-13.4
		c2.2-3.4,5.2-5.8,9-7.1c1-0.3,1.3-0.8,1.3-1.8c0-2.4,0.2-4.8,0.3-7.2c0-1.2,0.3-1.6,1.5-1.7c1.8,0,3.7-0.1,5.6,0
		c1.1,0,1.5,0.5,1.5,1.7c0.1,2.6,0.2,5.3,0.4,7.9c0,0.5,0.2,0.7,0.7,0.9c3.5,1.1,6.4,3.1,8.6,6.1c0.1,0.2,0.2,0.3,0.4,0.5
		c0.4,0.7,0.4,1.4-0.2,1.8c-0.6,0.4-1.3,0.3-1.9-0.3c-1.3-1.7-2.8-3.2-4.7-4.3c-1.3-0.7-2.8-1.3-4.2-1.8c-0.8-0.3-1.2-0.8-1.2-1.7
		c-0.1-2.7-0.3-5.5-0.4-8.3c-1.1,0-2.3,0-3.5,0c-0.1,2.1-0.2,4.2-0.3,6.3c0,0.7-0.1,1.4-0.1,2.1c0,0.8-0.4,1.3-1.2,1.6
		c-1.5,0.6-3.2,1.2-4.6,2c-5.3,3.1-8.1,9.5-7,15.5c0.1,0.7,0.2,1.5,0.4,2.2c0.2,0.8-0.1,1.3-0.8,1.8c-2.2,1.4-4.4,2.8-6.6,4.2
		C132.5-47.6,132.4-47.5,132.2-47.3z"/>
	<path class="st0" d="M166.5-58.8c0,6.5-5.3,11.9-11.8,11.9s-11.8-5.3-11.9-11.9c0-6.5,5.3-11.8,11.8-11.9
		C161.2-70.6,166.5-65.3,166.5-58.8z M154.7-49.5c5.1,0,9.3-4.1,9.3-9.3s-4.1-9.3-9.3-9.3c-5.1,0-9.3,4.2-9.3,9.3
		C145.4-53.6,149.5-49.5,154.7-49.5z"/>
</g>
<g>
	<path class="st0" d="M-28-73.5c-1.1,0-2.1,0-3.2,0c0-0.2,0-0.3,0-0.5c-0.1-3-2.7-5.6-5.7-5.6c-11.5,0-23,0-34.4,0
		c-2.2,0-3.8,1.1-4.9,2.9c-0.6,1-0.8,2-0.8,3.2c-1.1,0-2.1,0-3.2,0c-1.1,0-1.5,0.4-1.5,1.5c0,1.1,0,2.2,0,3.3c-1.1,0-2.1,0-3.1,0
		c-0.7,0-1.2,0.2-1.6,0.8c0,5.6,0,11.2-0.1,16.8c0.3,0.6,0.8,0.9,1.5,0.8c0.4,0,0.9,0,1.3,0c0.6,0,1.2,0,1.9,0c0,0.6,0,1.2,0,1.8
		c0,0.6,0,1.2,0,1.8c0,0.7,0.4,1.2,1,1.2c0.2,0,0.5,0,0.7,0c1,0,2,0,3,0c0.3,2.9,1.9,4.7,4.6,5.5c0,0.1,0,0.2-0.1,0.3
		c-0.5,1.7-1.1,3.3-1.6,5c-0.4,1.1,0.1,1.8,1.2,1.8c4.9,0,9.8,0,14.8,0c1.1,0,1.6-0.7,1.2-1.7c-0.3-0.9-0.6-1.8-0.9-2.7
		c-0.3-0.9-0.5-1.7-0.8-2.5c3.1,0,6.2,0,9.3,0c-0.6,1.8-1.2,3.5-1.7,5.2c-0.3,1.1,0.1,1.8,1.3,1.8c4.9,0,9.8,0,14.7,0
		c1.2,0,1.7-0.7,1.3-1.8c-0.5-1.4-1-2.9-1.4-4.4c-0.1-0.3-0.2-0.7-0.3-1c1.2-0.4,2.3-1.1,3.1-2c0.8-1,1.2-2.2,1.3-3.4
		c0.1,0,0.1,0,0.2,0c1,0,2,0,3,0c1.1,0,1.5-0.4,1.5-1.5c0-8.3,0-16.6,0-25C-26.5-73.2-26.9-73.5-28-73.5z M-81.7-52.6
		c-0.7,0-1.5,0-2.3,0c0-4.6,0-9.2,0-13.8c0.8,0,1.5,0,2.3,0C-81.7-61.8-81.7-57.2-81.7-52.6z M-77-47.9c-0.8,0-1.5,0-2.3,0
		c0-7.8,0-15.5,0-23.3c0.7,0,1.5,0,2.3,0C-77-63.5-77-55.7-77-47.9z M-65.7-35.2c-1.9,0-3.7,0-5.7,0c0.5-1.6,1-3.1,1.5-4.7
		c1.9,0,3.8,0,5.7,0C-64.7-38.3-65.2-36.8-65.7-35.2z M-63.2-35.2c0.5-1.5,1-3,1.5-4.5c0-0.1,0.2-0.2,0.4-0.2c0.1,0,0.3,0.1,0.3,0.2
		c0.5,1.4,1,2.9,1.5,4.4C-60.8-35.2-62-35.2-63.2-35.2z M-42.5-35.4c0,0.1-0.2,0.2-0.3,0.2c-1.8,0-3.5,0-5.4,0c0.5-1.5,1-3,1.5-4.5
		c0-0.1,0.2-0.2,0.3-0.2c1.8,0,3.5,0,5.4,0C-41.6-38.4-42.1-36.9-42.5-35.4z M-40.1-35.2c0.5-1.4,0.9-2.7,1.4-4.1
		c0-0.1,0-0.3,0.1-0.4c0.1-0.2,0.6-0.1,0.7,0.1c0.5,1.4,1,2.9,1.5,4.4C-37.6-35.2-38.8-35.2-40.1-35.2z M-33.5-46.2c0,2.5-1.4,4-4,4
		c-5.5,0-11.1,0-16.6,0s-11,0-16.6,0c-2.5,0-4-1.4-4-4c0-9,0-18.1,0-27.1c0-2.5,1.4-4,4-4c11.1,0,22.1,0,33.2,0c2.5,0,4,1.4,4,4
		C-33.5-64.3-33.5-55.2-33.5-46.2z M-28.8-47.9c-0.7,0-1.5,0-2.3,0c0-7.8,0-15.5,0-23.3c0.8,0,1.5,0,2.3,0
		C-28.8-63.4-28.8-55.7-28.8-47.9z"/>
	<path class="st0" d="M-39.4-70.3c-4.9,0-9.8,0-14.7,0c-2.7,0-5.5,0-8.3,0c-2.2,0-4.4,0-6.5,0c-2,0-3.5,1.6-3.5,3.5
		c0,2,1.6,3.5,3.7,3.5c9.7,0,19.4,0,29.1,0c0.2,0,0.3,0,0.5,0c1.7-0.1,3.1-1.5,3.2-3.2C-35.7-68.6-37.3-70.3-39.4-70.3z M-39.9-65.6
		c-4.7,0-9.4,0-14.2,0c-4.7,0-9.4,0-14.1,0c-1.1,0-1.7-0.4-1.7-1.2c0-0.8,0.6-1.2,1.7-1.2c9.4,0,18.9,0,28.4,0
		c1.1,0,1.7,0.4,1.7,1.2C-38.2-66-38.7-65.6-39.9-65.6z"/>
	<path class="st0" d="M-39.4-60.9c-4.8,0-9.7,0-14.6,0c-2.7,0-5.4,0-8.1,0c-2.3,0-4.6,0-6.8,0c-2,0-3.5,1.6-3.5,3.5
		c0,2,1.6,3.5,3.7,3.5c9.7,0,19.4,0,29.1,0c0.2,0,0.3,0,0.5,0c1.7-0.1,3.1-1.5,3.2-3.2C-35.7-59.3-37.3-60.9-39.4-60.9z M-39.9-56.3
		c-4.7,0-9.4,0-14.2,0c-4.7,0-9.4,0-14.1,0c-1.1,0-1.7-0.4-1.7-1.2c0-0.8,0.6-1.2,1.7-1.2c9.4,0,18.9,0,28.4,0
		c1.1,0,1.7,0.4,1.7,1.2C-38.2-56.7-38.7-56.3-39.9-56.3z"/>
	<path class="st0" d="M-39.4-51.6c-4.9,0-9.8,0-14.7,0c-0.9,0-1.8,0-2.7,0c-4,0-8,0-12,0c-2.1,0-3.6,1.6-3.5,3.6
		c0.1,1.9,1.6,3.4,3.6,3.4c9.7,0,19.5,0,29.2,0c0.1,0,0.3,0,0.4,0c1.7-0.1,3.1-1.5,3.2-3.2C-35.7-49.9-37.3-51.6-39.4-51.6z
		 M-38.9-47c-0.3,0-0.6,0.1-0.9,0.1c-4.7,0-9.4,0-14.2,0c-4.7,0-9.3,0-14,0c-0.1,0-0.2,0-0.3,0c-1,0-1.5-0.4-1.5-1.2
		s0.6-1.2,1.5-1.2c9.5,0,19.1,0,28.7,0c0.3,0,0.6,0,0.8,0.1c0.5,0.1,0.7,0.5,0.7,1C-38.1-47.6-38.4-47.2-38.9-47z"/>
	<path class="st0" d="M-37.4-75c-9.4,0-18.8,0-28.3,0c-0.2,0-0.3,0-0.5,0c-0.7,0-1.2,0.5-1.2,1.2c0,0.7,0.5,1.2,1.2,1.2
		c0.2,0,0.3,0,0.5,0c4.7,0,9.3,0,14,0c4.7,0,9.4,0,14.1,0c1.2,0,1.7-0.4,1.7-1.2C-35.8-74.6-36.4-75-37.4-75z"/>
	
		<ellipse transform="matrix(0.7071 -0.7071 0.7071 0.7071 31.4027 -71.6952)" class="st0" cx="-70.8" cy="-73.8" rx="1.2" ry="1.2"/>
</g>
<path class="st0" d="M-80.4,26.5c-0.2-0.1-0.5-0.2-0.6-0.4c-2.3-2.2-4.5-4.5-6.7-6.7c-0.8-0.8-1.3-1.8-1.4-3
	c-0.2-1.9-0.4-3.7-0.6-5.6c-0.2-1.6,0.2-3,1.5-4.1c1.7-1.6,3.3-3.2,4.8-4.9c1.3-1.4,2.8-2,4.7-1.7c1.8,0.3,3.7,0.4,5.6,0.6
	c1.1,0.1,2.1,0.6,2.8,1.4c2.2,2.3,4.5,4.5,6.7,6.7c0.2,0.2,0.3,0.3,0.7,0.7c0.5-0.6,1-1.3,1.6-1.8c2.7-2.4,6.9-1.1,7.7,2.4
	c0.4,1.6,0,3.1-1.1,4.3c-0.5,0.6-1.1,1-1.7,1.6c0.3,0.3,0.4,0.5,0.6,0.6c2.2,2.2,4.5,4.5,6.7,6.7c0.9,0.9,1.4,1.8,1.5,3.1
	c0.2,1.9,0.4,3.7,0.6,5.6c0.2,1.6-0.2,2.8-1.4,3.9c-1.9,1.8-3.7,3.7-5.6,5.5c-1,1.1-2.3,1.4-3.7,1.3c-2-0.2-4.1-0.4-6.2-0.6
	c-1-0.1-1.8-0.6-2.6-1.3c-2.2-2.3-4.5-4.5-6.7-6.7c-0.2-0.2-0.3-0.4-0.6-0.7c-0.2,0.2-0.4,0.4-0.6,0.5c-5.3,5.3-10.4,10.5-15.7,15.7
	c-0.3,0.3-0.4,0.6-0.3,1c0.2,1.1,0.1,2.2-0.7,3.2c-1.2,1.5-2.3,3.1-3.5,4.6c-1.5,1.8-4.1,2-5.8,0.4c-1.9-1.8-3.7-3.6-5.5-5.5
	c-1.6-1.6-1.5-4.3,0.3-5.8c1.6-1.3,3.2-2.6,4.8-3.8c0.9-0.7,2-0.8,3.2-0.6c0.2,0.1,0.6,0,0.8-0.2c5.4-5.3,10.6-10.5,16-15.9
	C-80.8,27-80.7,26.8-80.4,26.5z M-50.5,28.3c-0.1-0.1-0.2-0.1-0.2-0.2c-0.1,0.2-0.3,0.4-0.4,0.6c-2.5,2.5-5.1,5.1-7.6,7.6
	c-0.2,0.2-0.3,0.4-0.5,0.5c-0.5,0.4-1.2,0.3-1.7-0.1c-0.5-0.5-0.5-1.1-0.1-1.7c0.1-0.2,0.3-0.4,0.5-0.5c2.9-2.9,5.8-5.8,8.7-8.7
	c0.2-0.2,0.4-0.4,0.5-0.6c-0.1-0.1-0.2-0.2-0.2-0.3c-7.1-7.1-14-14-21.1-21c-0.3-0.3-0.8-0.5-1.2-0.5c-1.9-0.3-3.8-0.4-5.8-0.7
	c-0.7-0.1-1.2,0.1-1.7,0.6c-1.8,1.7-3.3,3.4-5,4.9c-1,0.9-1.5,1.8-1.2,3.2c0.3,1.1,0.3,2.2,0.4,3.3c0.1,0,0.2,0.1,0.3,0.1
	c0.1-0.2,0.2-0.4,0.4-0.6c2.5-2.6,5.1-5.1,7.6-7.6c0.2-0.2,0.4-0.3,0.5-0.4c0.6-0.5,1.3-0.5,1.8,0.1c0.5,0.5,0.5,1.2,0,1.8
	c-0.1,0.2-0.3,0.3-0.4,0.4c-2.9,2.9-5.8,5.8-8.6,8.6c-0.2,0.2-0.4,0.3-0.7,0.4c0.2,0.3,0.3,0.4,0.4,0.5c7,7,13.9,14,21,21
	c0.3,0.3,0.7,0.5,1.1,0.6c2,0.3,4,0.5,6,0.6c0.5,0,1.1-0.2,1.4-0.5c2-1.9,3.9-3.8,5.8-5.8c0.2-0.2,0.4-0.6,0.4-0.9
	C-50.1,31.4-50.3,29.9-50.5,28.3z M-98.5,45.6c-0.4,0.2-0.7,0.3-1,0.5c-1.4,1-2.7,2.1-4.1,3.2c-0.9,0.7-0.9,1.5-0.1,2.3
	c1.7,1.7,3.3,3.3,5,5c0.8,0.8,1.7,0.7,2.3-0.1c1.1-1.4,2.1-2.8,3.2-4.2c0.6-0.7,0.5-1.3-0.1-2c-1.4-1.4-2.7-2.8-4.1-4.1
	C-97.8,46-98.2,45.9-98.5,45.6z M-80.8,36.4c-0.9-1-1.9-1.9-2.8-2.8c-3.8,3.8-7.6,7.6-11.3,11.3c0.9,0.9,1.9,1.9,2.8,2.8
	C-88.4,43.9-84.6,40.1-80.8,36.4z M-75.9,31.6c-0.9-0.9-1.9-1.8-2.7-2.7c-0.9,0.9-1.8,1.8-2.7,2.7c0.9,0.9,1.8,1.8,2.7,2.7
	C-77.7,33.4-76.8,32.5-75.9,31.6z M-61.4,11.2c1,1,2,2,3,3c0.4-0.4,0.8-0.9,1.2-1.4c0.8-0.9,0.9-2.1,0-2.9c-0.6-0.8-1.9-0.8-2.8-0.1
	C-60.5,10.3-61,10.8-61.4,11.2z"/>
<g>
	<path class="st0" d="M272.2-71.1c-0.4-1.4-1-2.4-2.1-2.9c-0.2-0.1-0.4-0.2-0.7-0.3c-0.1,0-0.2-0.1-0.3-0.1l-37.6,0l-0.1,0
		c-1.7,0.5-2.7,1.5-3,3.1c-0.1,0.4-0.1,0.8-0.1,1.1c0,1.1,0,2.2,0,3.3l0,1.7l-1,0c-1,0-2,0-3,0c0,0,0,0,0,0c-1,0-1.9,0.3-2.6,1
		c-0.9,0.8-1.3,1.8-1.3,3.1l0,6.5l-1,0c-0.9,0-1.9,0-2.8,0c-1.6,0-2.8,0.7-3.5,2.1c-0.3,0.5-0.4,1.2-0.4,1.8c0,10.6,0,21.3,0,31.9
		c0,2.3,1.6,3.9,3.9,3.9c5.9,0,11.8,0,17.7,0c6.1,0,12.3,0,18.4,0c2.3,0,3.8-1.5,3.9-3.8c0-0.7,0-1.5,0-2.2l0-0.8c0.4,0,0.8,0,1.2,0
		c0.8,0,1.6,0,2.3,0c1.1,0.1,2.1-0.3,2.9-1c0.8-0.8,1.3-1.9,1.3-3.1v-5l2.6,0c0.5,0,1,0,1.4,0c1.8,0,3.2-1.1,3.7-2.9
		c0-0.1,0.1-0.2,0.1-0.3l0.1-0.2L272.2-71.1z M222.5-22.2c0.7,0.3,1.5,0.4,2.1,0.4c7.7,0,15.3,0,23,0l6,0c0,0.2,0,0.5,0,0.7
		c0,0.9,0,1.8,0,2.7c0,0,0,0.2-0.6,0.5c-0.1,0.1-0.3,0.1-0.5,0l-0.2,0c-10.3,0-20.6,0-30.9,0H217c-1.2,0-1.4-0.2-1.4-1.4v-31.3
		c0-1.1,0.2-1.3,1.4-1.4h3.5v7.7c0,6,0,12,0,18C220.5-24.2,221.2-22.9,222.5-22.2z M223.3-26.1v-0.1c0-11.5,0-23,0-34.5
		c0-0.3,0-0.6,0.1-0.9c0.1-0.4,0.4-0.7,0.8-0.7c0.6,0,1.2,0,1.9,0c0.4,0,0.8,0,1.3,0l1,0v7.2c0,6.7,0,13.4,0,20
		c0,1.8,0.7,3.1,2.1,3.8c0.6,0.3,1.3,0.4,2.1,0.4c7.6,0,15.2,0,22.8,0l6,0l0,1.3c0,1.3,0,2.6,0,3.9c0,0.8-0.3,1.1-1.2,1.1h-35.6
		c-0.9,0-1.2-0.3-1.2-1.2C223.3-25.9,223.3-26,223.3-26.1z M269.4-70.1c0,11.7,0,23.3,0,35c0,1.1-0.3,1.4-1.4,1.4h-35.3
		c-1.1,0-1.4-0.3-1.4-1.4v-34.9c0-1.1,0.3-1.4,1.4-1.4H268C269.1-71.5,269.4-71.2,269.4-70.1z"/>
	<path class="st0" d="M257.6-67.3l-22.1,0c-0.7,0-1.2,0.2-1.6,0.5c-0.2,0.2-0.4,0.6-0.4,1c0,0.5,0.3,1.4,1.9,1.4l13.8,0l8.3,0
		c0.7,0,1.2-0.2,1.6-0.5c0.2-0.2,0.4-0.6,0.3-1C259.6-66.6,259.2-67.3,257.6-67.3z"/>
	<path class="st0" d="M262.9-62.9C262.9-62.9,262.9-62.9,262.9-62.9c-0.4,0-1.4,0.2-1.4,1.9v20c0,0.2,0,0.4,0,0.6
		c0.1,0.8,0.6,1.3,1.4,1.4c0,0,0,0,0,0c0.7,0,1.3-0.5,1.4-1.3c0-0.2,0-0.4,0-0.6c0-6.7,0-13.4,0-20.1c0-0.7-0.2-1.2-0.5-1.5
		C263.7-62.7,263.3-62.9,262.9-62.9z"/>
	<path class="st0" d="M262.8-64.5C262.8-64.5,262.8-64.5,262.8-64.5c0.8,0,1.4-0.6,1.4-1.4c0-0.4-0.1-0.8-0.4-1
		c-0.3-0.3-0.6-0.4-1-0.4c-0.8,0-1.4,0.7-1.4,1.4C261.4-65.1,262-64.5,262.8-64.5z"/>
</g>
<g>
	<path class="st0" d="M171,34.5c-1.7-1.7-3.4-3.4-5.1-5.1c-0.2-0.2-0.3-0.5-0.3-0.8c0-1.2,0-2.3,0-3.5c0-1,0.1-1.9,0.5-2.8
		c1-2.1,0.5-4.2-1.3-5.9c-4.5-4.5-8.9-9-13.4-13.4c-0.3-0.3-0.5-0.5-0.8-0.7c-2.6-2-6-1.7-8.4,0.7c-5.5,5.5-11,11-16.5,16.5
		c-0.2,0.2-0.6,0.4-0.9,0.5c-3,0.7-5.3,3.3-5.9,6.3c-0.1,0.6-0.2,1.2-0.3,1.8c-0.3,1.3-0.6,2.5-0.9,3.8c-1,4.1-1.9,8.2-2.9,12.4
		c-0.1,0.2-0.2,0.5-0.4,0.6c-1.8,0.8-2.6,2.2-2.6,4.2c0,2.8,0,5.6,0,8.4c0,1.3,0.4,1.7,1.7,1.7c15.5,0,31,0,46.5,0
		c1.1,0,1.7-0.4,1.7-1.2c0-0.8-0.6-1.1-1.7-1.1c-6,0-12.1,0-18.1,0c-0.2,0-0.4,0-0.7,0c0-0.3,0-0.6,0-0.8c0-2.5,0-5,0-7.4
		c0-1.7-0.9-2.9-2.4-3.6c-0.3-0.2-0.5-0.3-0.5-0.7c-1.2-5.1-2.4-10.2-3.6-15.3c-0.1-0.4,0-0.7,0.3-1c4.4-4.3,8.7-8.7,13.1-13
		c0.1-0.1,0.2-0.2,0.4-0.4c2.9,2.9,5.8,5.8,8.7,8.7c0.2,0.2,0.2,0.5,0.2,0.7c0,1.5,0,3,0,4.6c0,0.4-0.1,0.7-0.4,1
		c-1.8,1.8-3.5,3.5-5.3,5.3c-0.7,0.7-0.7,1.1-0.3,1.9c0.5,0.9,0.9,1.8,1.4,2.6c0.4,0.8,0.9,1.6,1.3,2.5c0.2,0.4,0.6,0.7,1.1,0.6
		c0.4-0.1,0.7-0.4,1-0.7c0.3-0.4,0.1-0.9-0.1-1.3c-0.7-1.3-1.4-2.6-2.1-3.9c-0.2-0.3-0.2-0.6,0.1-0.9c1.6-1.5,3.1-3.1,4.7-4.7
		c0.2-0.2,0.5-0.3,0.7-0.3c1.4,0,2.8,0,4.2,0c0.2,0,0.5,0.1,0.7,0.3c1.6,1.6,3.1,3.2,4.7,4.7c0.3,0.3,0.3,0.4,0.1,0.8
		c-0.7,1.2-1.3,2.4-2,3.7c-0.1,0.3-0.3,0.5-0.4,0.8c-0.2,0.5,0,0.9,0.4,1.2c0.4,0.3,0.9,0.3,1.3,0c0.2-0.2,0.4-0.4,0.5-0.7
		c1-1.8,1.9-3.6,2.9-5.3c0-0.2,0-0.5,0-0.7C171.6,35.2,171.4,34.8,171,34.5z M126.6,22.1c3,0,5.4,2.5,5.4,5.4c0,3-2.5,5.4-5.5,5.4
		c-3,0-5.4-2.4-5.4-5.4C121.2,24.5,123.6,22.1,126.6,22.1z M138.9,48.9c0,2.4,0,4.9,0,7.3c0,0.2,0,0.3,0,0.5c-8.2,0-16.4,0-24.6,0
		c0-0.2,0-0.3,0-0.5c0-2.4,0-4.8,0-7.3c0-1.4,0.7-2,2-2c6.8,0,13.7,0,20.5,0C138.2,46.9,138.9,47.5,138.9,48.9z M135.9,44.5
		c-6.3,0-12.4,0-18.7,0c1-4.2,1.9-8.3,2.9-12.6c1.7,2.2,3.8,3.4,6.4,3.4c2.7,0,4.8-1.1,6.5-3.4C134,36.2,135,40.3,135.9,44.5z
		 M134.1,25.3c-0.4-1.2-1-2.4-2-3.3c-1-1-2.1-1.6-3.4-2c4-4,8-8,11.9-12c0.6,3,2.4,4.8,5.4,5.4C142,17.4,138.1,21.4,134.1,25.3z
		 M146.8,11.1c-2.1,0-3.9-1.7-3.9-3.9c0-2.2,1.7-3.9,3.9-3.9c2.2,0,3.9,1.8,4,3.9C150.8,9.4,149,11.1,146.8,11.1z M163.2,28.3
		c-1.2,0-2.3,0-3.5,0c0-1.1,0-2.1,0-3c1.2,0,2.3,0,3.5,0C163.2,26.2,163.2,27.2,163.2,28.3z M163.6,22.1c-1,1.2-2.7,1.3-3.9,0.3
		c-0.2-0.1-0.4-0.3-0.5-0.5c-2.9-2.9-5.8-5.8-8.7-8.7c-0.1-0.1-0.3-0.3-0.4-0.5c1.5-1.3,2.7-2.8,3-4.9c0.2,0.2,0.3,0.2,0.4,0.3
		c3.3,3.3,6.5,6.5,9.8,9.8C164.5,19.3,164.6,20.9,163.6,22.1z"/>
	<path class="st0" d="M165.5,56.7c-0.6,0-1.2,0.5-1.2,1.1c0,0.6,0.5,1.2,1.1,1.2c0.6,0,1.2-0.5,1.2-1.1
		C166.6,57.3,166.1,56.7,165.5,56.7z"/>
	<path class="st0" d="M124.1,53c1.6,0,3.2,0,4.9,0c0.8,0,1.3-0.5,1.3-1.2c0-0.7-0.5-1.2-1.4-1.2c-0.8,0-1.6,0-2.4,0
		c-0.8,0-1.6,0-2.4,0c-0.8,0-1.3,0.5-1.3,1.2C122.8,52.5,123.3,53,124.1,53z"/>
	<path class="st0" d="M118.5,53c0.6,0,1.2-0.5,1.2-1.1c0-0.6-0.5-1.2-1.1-1.2c-0.6,0-1.2,0.5-1.2,1.1
		C117.3,52.4,117.9,52.9,118.5,53z"/>
	<path class="st0" d="M134.7,53c0.6,0,1.1-0.6,1.1-1.2c0-0.6-0.6-1.2-1.2-1.1c-0.6,0-1.2,0.6-1.1,1.2C133.5,52.4,134.1,53,134.7,53z
		"/>
	<path class="st0" d="M126.6,28.7c0.6,0,1.1-0.6,1.1-1.2c0-0.6-0.5-1.2-1.2-1.1c-0.6,0-1.2,0.6-1.1,1.2
		C125.4,28.2,126,28.7,126.6,28.7z"/>
	<path class="st0" d="M161.4,19.1c-0.6,0-1.1,0.5-1.1,1.2c0,0.6,0.5,1.2,1.2,1.1c0.6,0,1.2-0.6,1.2-1.2
		C162.6,19.7,162.1,19.1,161.4,19.1z"/>
	<path class="st0" d="M146.8,6.1c-0.6,0-1.2,0.5-1.2,1.2c0,0.6,0.5,1.1,1.2,1.1c0.6,0,1.2-0.5,1.2-1.2C148,6.6,147.5,6.1,146.8,6.1z
		"/>
</g>
<g>
	<path class="st0" d="M47.4,82c-10.3,0-20.5,0-30.8,0c-2.7,0-4.8,2.1-4.8,4.9c0,11.5,0,23.1,0,34.6c0,0.6,0.1,1.2,0.3,1.8
		c0.8,2,2.3,3,4.5,3.2c0,1.3,0,2.5,0,3.8c-0.3,0-0.5,0-0.7,0c-0.8,0-1.2,0.3-1.2,1.1c0,3.1,0,6.2,0,9.3c0,0.7,0.4,1.1,1.1,1.1
		c2.5,0,5,0,7.5,0c0.6,0,1-0.4,1-1c0-3.2,0-6.4,0-9.6c0-0.6-0.4-0.9-1-1c-0.3,0-0.6,0-0.9,0c0-1.3,0-2.6,0-3.8c2.2,0,4.4,0,6.7,0
		c0,1.3,0,2.5,0,3.8c-0.3,0-0.6,0-0.8,0c-0.7,0-1.1,0.4-1.1,1.1c0,3.1,0,6.3,0,9.4c0,0.7,0.4,1.1,1.1,1.1c2.5,0,5,0,7.5,0
		c0.7,0,1.1-0.4,1.1-1.1c0-0.6,0-1.2,0-1.9c0-2.5,0-4.9,0-7.4c0-0.9-0.3-1.2-1.2-1.2c-0.2,0-0.5,0-0.7,0c0-1.3,0-2.6,0-3.8
		c2.2,0,4.5,0,6.7,0c0,1.3,0,2.5,0,3.8c-0.3,0-0.6,0-0.9,0c-0.6,0-1,0.4-1,1c0,3.2,0,6.4,0,9.6c0,0.6,0.4,1,1,1c2.6,0,5.1,0,7.7,0
		c0.6,0,1-0.4,1-1c0-3.2,0-6.4,0-9.6c0-0.6-0.4-1-1-1c-0.3,0-0.6,0-0.9,0c0-1.3,0-2.6,0-3.8c3-0.4,4.8-2.2,4.8-4.9
		c0-11.6,0-23.1,0-34.7C52.2,84.1,50.1,82,47.4,82z M22.3,139.8c-1.9,0-3.8,0-5.7,0c0-2.6,0-5.1,0-7.6c1.9,0,3.8,0,5.7,0
		C22.3,134.7,22.3,137.2,22.3,139.8z M18.5,130.1c0-1.3,0-2.5,0-3.8c0.6,0,1.2,0,1.9,0c0,1.2,0,2.5,0,3.8
		C19.8,130.1,19.2,130.1,18.5,130.1z M34.8,139.8c-1.9,0-3.8,0-5.7,0c0-2.6,0-5.1,0-7.6c1.9,0,3.8,0,5.7,0
		C34.8,134.7,34.8,137.2,34.8,139.8z M31.1,130.2c0-1.3,0-2.5,0-3.8c0.6,0,1.2,0,1.8,0c0,1.2,0,2.5,0,3.8
		C32.3,130.2,31.7,130.2,31.1,130.2z M47.4,139.8c-1.9,0-3.8,0-5.7,0c0-2.5,0-5.1,0-7.6c1.9,0,3.8,0,5.7,0
		C47.4,134.7,47.4,137.2,47.4,139.8z M43.6,130.2c0-1.2,0-2.5,0-3.8c0.6,0,1.2,0,1.8,0c0,1.3,0,2.5,0,3.8
		C44.8,130.2,44.2,130.2,43.6,130.2z M50.3,121.1c0,2.2-1.1,3.3-3.3,3.3c-10,0-20,0-29.9,0c-2.2,0-3.3-1.1-3.3-3.4
		c0-5.6,0-11.2,0-16.9c0-5.7,0-11.3,0-17c0-2.1,1.1-3.3,3.3-3.3c10,0,20,0,30.1,0c2.2,0,3.3,1.1,3.3,3.3
		C50.3,98.5,50.3,109.8,50.3,121.1z"/>
	<path class="st0" d="M43.2,85.9c-7.5,0-15,0-22.5,0c-3.2,0-5.2,2-5.2,5.1c0,4.4,0,8.7,0,13.1c0,4.3,0,8.7,0,13c0,3.2,2,5.2,5.2,5.2
		c7.5,0,14.9,0,22.4,0c3.2,0,5.2-2,5.2-5.2c0-8.7,0-17.4,0-26.1C48.4,87.9,46.4,85.9,43.2,85.9z M43.5,120.4c-7.7,0-15.3,0-23,0
		c-1.8,0-3-1.2-3-3c0-4.1,0-8.2,0-12.3c0.9,0,1.7,0,2.5,0c1,0,1.3-0.3,1.3-1.3c0-2.4,0-4.7,0-7.1c0-0.9-0.3-1.3-1.3-1.3
		c-0.8,0-1.7,0-2.6,0c0-0.9,0-1.7,0-2.5c0-0.7,0-1.5,0-2.2c0-1.6,1.2-2.9,2.9-2.9c7.7,0,15.5,0,23.2,0c1.6,0,2.8,1.3,2.9,2.9
		c0,0.3,0,0.5,0,0.9c-0.9,0-1.7,0-2.6,0c-0.9,0-1.3,0.3-1.3,1.3c0,1.7,0,3.5,0,5.2c0,0.9,0.3,1.2,1.2,1.2c0.9,0,1.7,0,2.6,0
		c0,3.2,0,6.4,0,9.6c-0.4,0-0.7,0-1.1,0c-3,0-2.8-0.2-2.8,2.8c0,1.2,0,2.4,0,3.6c0,1.1,0.3,1.3,1.4,1.3c0.8,0,1.5,0,2.3,0
		c0,0,0.1,0,0.1,0C46.8,118.7,45.5,120.4,43.5,120.4z M17.5,103.2c0-1.9,0-3.8,0-5.7c0.6,0,1.2,0,1.9,0c0,1.9,0,3.8,0,5.7
		C18.8,103.2,18.2,103.2,17.5,103.2z M46.4,93.6c0,1.3,0,2.5,0,3.8c-0.6,0-1.2,0-1.9,0c0-1.2,0-2.5,0-3.8
		C45.2,93.6,45.8,93.6,46.4,93.6z M46.4,110.9c0,1.3,0,2.5,0,3.8c-0.6,0-1.2,0-1.9,0c0-1.3,0-2.5,0-3.8
		C45.1,110.9,45.7,110.9,46.4,110.9z"/>
	<path class="st0" d="M33,90.6c-0.2-0.4-0.5-0.8-1.1-0.8c-0.5,0-0.8,0.4-1,0.8c-3.1,5.6-6.2,11.1-9.3,16.7c-0.6,1.1-0.2,1.8,1.1,1.8
		c3.1,0,6.1,0,9.2,0c3.1,0,6.2,0,9.3,0c1.3,0,1.7-0.7,1-1.8C39.2,101.6,36.1,96.1,33,90.6z M24,107c2.7-4.8,5.3-9.5,8-14.4
		c2.7,4.8,5.3,9.6,8,14.4C34.6,107,29.3,107,24,107z"/>
	<path class="st0" d="M38.6,111.5c-0.2,0.2-0.5,0.3-0.8,0.3c-3.9,0-7.9,0-11.8,0c-0.2,0-0.5-0.1-0.7-0.3c-0.4-0.4-0.8-0.9-1.3-1.4
		c-0.5,0.5-0.9,1-1.4,1.5c0.6,0.6,1.3,1.3,1.9,1.9c0.2,0.2,0.5,0.3,0.8,0.3c4.4,0,8.8,0,13.1,0c0.3,0,0.6-0.1,0.8-0.2
		c0.7-0.6,1.3-1.3,1.9-2c-0.4-0.4-0.9-0.9-1.3-1.4C39.5,110.7,39.1,111.1,38.6,111.5z"/>
	<path class="st0" d="M38.6,115.4c-0.2,0.2-0.5,0.3-0.8,0.3c-3.9,0-7.8,0-11.7,0c-0.3,0-0.6-0.2-0.9-0.4c-0.4-0.4-0.8-0.9-1.1-1.3
		c-0.6,0.5-1,0.9-1.5,1.3c0.7,0.7,1.3,1.4,2,2c0.2,0.2,0.5,0.2,0.8,0.2c4.4,0,8.8,0,13.1,0c0.2,0,0.5,0,0.7-0.2
		c0.7-0.7,1.3-1.4,2-2.1c-0.4-0.4-0.8-0.8-1.3-1.4C39.5,114.5,39.1,115,38.6,115.4z"/>
	<path class="st0" d="M31,102.2c0.6,0,1.2,0,1.9,0c0-2.3,0-4.5,0-6.7c-0.7,0-1.3,0-1.9,0C31,97.8,31,100,31,102.2z"/>
	<path class="st0" d="M31,106c0.6,0,1.2,0,1.9,0c0-0.7,0-1.3,0-1.9c-0.6,0-1.2,0-1.9,0C31,104.8,31,105.4,31,106z"/>
</g>
<path class="st0" d="M242.7,5c-0.1-2.5-2.1-4.6-4.7-4.8c-1.2-0.1-2.4,0.2-3.4,0.9c-1.3,0.9-2,2.2-2.3,3.7c-0.4-0.1-0.8-0.2-1.2-0.3
	c-1-0.1-1.8,0.2-2.5,0.9c-0.7,0.7-1.4,1.5-2.2,2.2c-0.1-0.1-0.2-0.2-0.2-0.2c-1.5-1.5-3-3-4.6-4.5c-0.9-0.9-2.1-0.9-3-0.1
	c-0.4,0.4-0.8,0.8-1.2,1.2c-1.1,1.1-1.1,2.2,0,3.3c3.2,3.2,6.4,6.4,9.6,9.6c0.1,0.1,0.3,0.3,0.4,0.4c-0.3-0.1-0.5-0.2-0.8-0.3
	c-3.1-1.8-6.3-3.5-9.4-5.3c-0.8-0.4-1.6-0.7-2.5-0.5c-2.1,0.4-3.1,2.7-2.1,4.6c1.2,2.2,2.5,4.4,3.7,6.6c0.1,0.2,0.2,0.3,0.3,0.6
	c-0.3-0.2-0.5-0.2-0.6-0.3c-2.1-1.2-4.1-2.4-6.2-3.5c-0.5-0.3-1.1-0.5-1.7-0.6c-1.2-0.1-2.1,0.4-2.8,1.4c-0.7,1-0.7,2.1-0.1,3.2
	c1.2,2.2,2.5,4.4,3.7,6.6c0.1,0.2,0.2,0.4,0.3,0.7c-0.3-0.2-0.5-0.2-0.6-0.3c-2.1-1.2-4.2-2.4-6.3-3.5c-0.7-0.4-1.4-0.7-2.3-0.6
	c-2.2,0.3-3.4,2.6-2.3,4.6c1.2,2.2,2.5,4.4,3.7,6.6c0.1,0.2,0.2,0.4,0.3,0.7c-0.3-0.2-0.5-0.3-0.7-0.4c-2.2-1.2-4.3-2.4-6.5-3.7
	c-1.1-0.6-2.2-0.6-3.3,0c-0.5,0.3-0.9,0.7-1.5,1.1c-1.1-0.7-1.8-0.6-3,0.5c-0.4,0.4-0.7,0.7-1.1,1.1c-1,1-1,2.1,0,3.1
	c1,1,2,2,2.9,2.9c0.4,0.4,0.9,0.8,1.3,1.3c-0.8,0.8-1.5,1.5-2.3,2.2c-0.6,0.6-1,1.3-0.9,2.1c0,0.5,0.2,1.1,0.3,1.6
	c-2.4,0.5-3.8,1.8-4.4,3.9c-0.1,0.2-0.1,0.4-0.2,0.6c0,0.5,0,0.9,0,1.4c0.1,0.3,0.2,0.6,0.3,0.9c0.7,1.8,1.9,2.9,3.8,3.4
	c0.1,0,0.3,0.1,0.4,0.1c0.5,0,1,0,1.5,0c1-0.3,2-0.6,2.7-1.4c0.9-0.9,1.5-2,1.6-3.3c1.6,0.7,2.9,0.4,4-0.9c0.6-0.7,1.2-1.3,2-2
	c0.2,0.3,0.3,0.4,0.4,0.6c1.2,1.3,2.5,2.5,3.8,3.8c1,0.9,2.1,0.9,3,0c0.4-0.4,0.8-0.8,1.2-1.2c1.1-1.1,1.1-2.2,0-3.3
	c-3-3-6.1-6.1-9.1-9.1c-0.1-0.1-0.3-0.3-0.4-0.4c0.2,0,0.4,0.1,0.6,0.2c3.3,1.9,6.6,3.7,9.9,5.6c1.4,0.8,3,0.5,4-0.6
	c0.9-1,1-2.4,0.2-3.7c-1.2-2.2-2.4-4.3-3.7-6.5c-0.1-0.1-0.2-0.3-0.3-0.6c2.5,1.4,4.8,2.7,7.1,4c0.7,0.4,1.5,0.6,2.3,0.4
	c2.1-0.5,3.1-2.7,2-4.7c-1.2-2.2-2.5-4.4-3.7-6.6c-0.1-0.1-0.1-0.3-0.3-0.6c0.3,0.2,0.5,0.3,0.7,0.4c2.2,1.2,4.3,2.5,6.5,3.7
	c1.3,0.7,2.6,0.6,3.6-0.4c1.1-1,1.3-2.6,0.5-4c-1.2-2.1-2.4-4.3-3.6-6.4c-0.1-0.2-0.2-0.4-0.3-0.7c0.3,0.1,0.5,0.2,0.6,0.3
	c2.2,1.2,4.3,2.4,6.5,3.7c1.1,0.6,2.2,0.7,3.3,0c0.5-0.3,0.9-0.9,1.4-1.4c0.8,0.3,1.6,0.2,2.2-0.4c0.5-0.5,1-1,1.5-1.5
	c0.8-0.8,0.8-2,0-2.8c-0.5-0.5-1-1-1.5-1.5c-0.8-0.8-1.5-1.5-2.4-2.4c0.7-0.6,1.2-1.2,1.9-1.8c1.3-1.2,1.8-2.5,1-4.1
	C241.1,9.7,242.8,7.7,242.7,5z M188,58c-1.8,0-3.2-1.4-3.2-3.2c0-1.7,1.4-3.2,3.1-3.2c1.8,0,3.2,1.4,3.2,3.2
	C191.1,56.6,189.8,57.9,188,58z M195.3,53.5c-0.4,0.4-0.9,0.4-1.3,0c-1.5-1.5-3.1-3-4.6-4.6c-0.4-0.4-0.4-1,0.1-1.5
	c0.7-0.7,1.5-1.5,2.2-2.2c0.2,0.1,0.3,0.2,0.4,0.3c1.9,1.9,3.7,3.7,5.6,5.6C196.8,51.9,196.1,52.7,195.3,53.5z M206.3,54
	c-0.4,0.4-0.9,0.9-1.4,1.4c-5.8-5.8-11.6-11.6-17.5-17.5c0.5-0.5,1-1,1.4-1.4C194.6,42.3,200.4,48.2,206.3,54z M210.4,44.8
	c0.5,0.3,0.9,0.5,0.9,1.1c0,0.9-0.9,1.3-1.7,0.9c-1.6-0.9-3.2-1.8-4.8-2.7c-4-2.2-7.9-4.5-11.9-6.7c-0.7-0.4-1-1-0.6-1.6
	c0.3-0.5,1-0.7,1.6-0.3c1.9,1.1,3.9,2.2,5.8,3.3C203.2,40.8,206.8,42.8,210.4,44.8z M208.9,41.6c0,0,0,0,0,0.1
	c-1.2-0.7-2.3-1.3-3.3-1.9c-0.2-0.1-0.3-0.3-0.4-0.4c-1.8-3.3-3.7-6.5-5.5-9.8c-0.3-0.4-0.4-0.9,0-1.3c0.2-0.2,0.7-0.4,1-0.4
	c0.3,0,0.7,0.3,0.8,0.5C204,32.8,206.4,37.2,208.9,41.6z M217.8,37.5c0.3,0.2,0.7,0.6,0.7,0.9c0.1,0.3-0.1,0.8-0.4,1
	c-0.3,0.2-0.8,0.3-1.1,0.1c-0.6-0.2-1.2-0.6-1.7-0.9c-2.7-1.5-5.4-3-8.1-4.6c-0.3-0.2-0.5-0.4-0.7-0.7c-0.6-1-1.2-2-1.8-3.2
	c0.3,0.1,0.4,0.2,0.5,0.3C209.5,32.7,213.7,35.1,217.8,37.5z M216.2,34c0,0.1,0.1,0.1,0.2,0.3c-1.2-0.7-2.4-1.3-3.4-2
	c-0.2-0.1-0.3-0.3-0.4-0.4c-1.8-3.2-3.7-6.5-5.5-9.8c-0.4-0.7-0.2-1.3,0.3-1.6c0.6-0.3,1.2-0.1,1.6,0.5
	C211.4,25.4,213.8,29.7,216.2,34z M225.4,30.2c0.4,0.3,0.7,0.6,0.6,1.2c-0.1,0.5-0.4,0.8-0.8,0.9c-0.3,0-0.6,0-0.8-0.1
	c-3.3-1.8-6.6-3.7-9.9-5.6c-0.1,0-0.2-0.1-0.2-0.2c-0.7-1.1-1.3-2.3-2-3.4c0,0,0.1-0.1,0.1-0.1c3.2,1.8,6.3,3.6,9.5,5.3
	C223,28.8,224.2,29.5,225.4,30.2z M223.7,26.8C223.7,26.8,223.7,26.9,223.7,26.8c-1.2-0.6-2.4-1.2-3.5-1.9c-0.1-0.1-0.2-0.2-0.2-0.3
	c-1.9-3.3-3.7-6.6-5.6-9.9c-0.2-0.3-0.2-0.9,0-1.2c0.1-0.3,0.6-0.4,1-0.5c0.5-0.1,0.8,0.3,1,0.7c1.9,3.3,3.7,6.6,5.6,9.9
	C222.6,24.7,223.1,25.8,223.7,26.8z M233.3,24.3c-0.3,0.6-1,0.7-1.6,0.3c-3.3-1.8-6.5-3.7-9.8-5.5c-0.1-0.1-0.3-0.2-0.4-0.3
	c-0.6-1.1-1.3-2.3-1.9-3.4c0,0,0.1-0.1,0.1-0.1c3.4,1.9,6.9,3.9,10.3,5.8c0.9,0.5,1.8,1,2.7,1.5C233.4,23.1,233.6,23.7,233.3,24.3z
	 M237.6,21.7c-0.4,0.4-0.9,0.9-1.4,1.4c-5.8-5.8-11.7-11.7-17.5-17.5c0.4-0.4,0.9-0.9,1.3-1.4C225.9,10,231.7,15.9,237.6,21.7z
	 M236,12.7c-0.7,0.7-1.4,1.5-2.2,2.3c-1.9-1.9-3.8-3.8-5.7-5.7c-0.1-0.1-0.2-0.2-0.3-0.3c0.8-0.8,1.5-1.6,2.3-2.4
	c0.4-0.4,0.9-0.3,1.3,0c1.5,1.5,3.1,3,4.6,4.6C236.5,11.7,236.5,12.3,236,12.7z M237.5,8.4c-1.8,0-3.2-1.4-3.2-3.1
	c0-1.8,1.4-3.2,3.2-3.2c1.7,0,3.2,1.4,3.2,3.1C240.7,7,239.3,8.4,237.5,8.4z"/>
<g>
	<path class="st0" d="M57.3,49.5C57.3,49.5,57.2,49.4,57.3,49.5c-0.1-0.1-0.1-0.2,0-0.2c4.1-7.4,3.3-16.1-1.9-22.7
		c-0.1-0.2-0.2-0.4-0.2-0.7c0-1.2,0-2.3,0-3.5c0-1.3,0-2.7,0-4c0-2-1-3.6-2.8-4.6c-0.3-0.2-0.6-0.3-0.9-0.4c0,0-0.1,0-0.1,0v-0.4
		c0-3.3-2.2-5.5-5.6-5.5l-2.1,0c-1.3,0-2.6,0-3.8,0c-3.2,0-5.8,1.3-7.8,3.9c-0.8,1-1.5,2-2.3,3.1c-1,1.4-2.1,2.7-3.1,4.1
		C26.5,18.9,26.4,19,26,19c-7.1,0-14.2,0-21.3,0l-2.9,0c-1.2,0-1.7,0.5-1.7,1.7c0,3,0,6,0,9c0,1,0.4,1.5,1.3,1.7l15,2.9
		c0.9,0.2,1.7,0.3,2.6,0.5l0.6,0.1c-1.2,5.1-0.4,10,2.1,14.6c-0.3,0.3-0.6,0.6-0.9,0.9l-0.1,0.1c-2.2,2.3-2.2,5.6-0.1,7.8
		c1.1,1.1,2.4,1.6,3.8,1.6c1.4,0,2.8-0.6,3.9-1.7c0.3-0.3,0.6-0.6,0.9-0.9l0.1-0.1l0.3,0.2c2.9,1.6,6.1,2.4,9.3,2.5
		c3.6,0.1,7.1-0.8,10.3-2.6c0.1-0.1,0.1-0.1,0.2-0.1c0,0,0,0,0.1,0.1c0.3,0.4,0.7,0.7,1.2,1.2c2.2,2,5.4,1.9,7.5-0.2
		c2.1-2,2.2-5.4,0.2-7.5C58.1,50.2,57.7,49.8,57.3,49.5z M5.7,21.9v7.3l-0.2,0C4.7,29,3.8,28.9,3,28.7c0-2,0-4,0-6v-0.8H5.7z
		 M25.1,56.8c-1.1,0.2-2.2-0.2-2.8-1.2c-0.6-1-0.5-2.1,0.2-3c0.2-0.3,0.5-0.5,0.8-0.8l3.6,3.6c0,0,0,0,0,0
		C26.4,56.2,25.9,56.7,25.1,56.8z M39.5,21.9C39.5,21.9,39.5,21.9,39.5,21.9c4.7,0,9.1,1.8,12.4,5.2c3.3,3.3,5.1,7.7,5.1,12.4
		c0,4.7-1.8,9.1-5.2,12.4c-3.3,3.3-7.7,5.1-12.4,5.1c0,0,0,0,0,0c-4.7,0-9.1-1.8-12.4-5.2c-3.3-3.3-5.1-7.7-5.1-12.4
		C22,29.7,29.8,21.9,39.5,21.9z M41.9,13.3v2.9l3.2,0c1.6,0,3.1,0,4.7,0c1.5,0,2.5,1,2.5,2.5c0,1.3,0,2.7,0,4v0.8l-0.1-0.1
		c-3.7-2.9-7.9-4.4-12.5-4.4c-1.3,0-2.6,0-3.9,0c-1,0-1.9,0-2.9,0L30,19l2.1-2.8c0.8-1,1.5-2.1,2.3-3.1c1.3-1.8,3-2.6,5.2-2.6
		c0,0,0,0,0,0c0.6,0,1.2,0,1.8,0c1.4,0,2.7,0,4.1,0c1-0.1,1.8,0.2,2.3,0.8c0.5,0.5,0.7,1.2,0.6,2H41.9z M24.4,25.7
		c-1.7,1.8-3,4-3.9,6.3L8.7,29.8v-7.9H29C27.2,23,25.7,24.2,24.4,25.7z M55.7,51.9C55.7,51.9,55.7,52,55.7,51.9
		c0.6,0.6,1.1,1,1.3,1.8c0.3,1.1-0.2,2.2-1.1,2.8c-1,0.6-2.2,0.5-3-0.2c-0.3-0.2-0.5-0.5-0.8-0.8L55.7,51.9z"/>
	<path class="st0" d="M1.5,7.6c2.1,0,3.3,1.8,3.3,3.3c0,0.4,0.1,0.8,0.4,1c0.3,0.3,0.6,0.4,1,0.4c0,0,0,0,0,0c0.8,0,1.3-0.6,1.4-1.4
		C7.9,8.9,9,7.8,11,7.6c0.8-0.1,1.4-0.6,1.4-1.4c0-0.8-0.6-1.4-1.4-1.5C9,4.6,7.9,3.5,7.7,1.4C7.6,0.6,7.1,0,6.3,0
		c-0.4,0-0.8,0.1-1,0.4C5,0.7,4.8,1,4.8,1.4c0,1.8-1.5,3.3-3.3,3.3c-0.8,0-1.4,0.6-1.4,1.4C0.1,7,0.7,7.6,1.5,7.6z M5.6,6.2l0.6-0.6
		l0.6,0.6L6.3,6.8L5.6,6.2z"/>
	<path class="st0" d="M20.4,7.6c2.3,0.3,3.1,1.1,3.4,3.5c0.1,0.8,0.7,1.3,1.4,1.3c0,0,0,0,0,0c0.8,0,1.3-0.6,1.4-1.5
		c0.1-1.8,1.4-3.1,3.2-3.2c0.9-0.1,1.5-0.6,1.5-1.4c0-0.8-0.6-1.4-1.6-1.5c-1.8-0.1-3.1-1.4-3.2-3.2c-0.1-1-0.6-1.6-1.4-1.6
		c0,0,0,0,0,0c-1.1,0-1.4,1.1-1.5,1.5c-0.1,0.6-0.3,1.3-0.7,1.9c-0.5,0.8-1.4,1.3-2.6,1.3c-0.8,0-1.4,0.6-1.5,1.4
		C19,6.9,19.6,7.5,20.4,7.6z M24.6,6.2l0.6-0.6l0.6,0.6l-0.6,0.6L24.6,6.2z"/>
	<path class="st0" d="M39.5,32.3C39.5,32.3,39.5,32.3,39.5,32.3c-3.9,0-7.1,3.2-7.1,7.1c0,3.9,3.2,7.1,7.1,7.1
		c3.9,0,7.1-3.2,7.1-7.1c0-1.9-0.7-3.7-2.1-5C43.2,33,41.4,32.3,39.5,32.3z M43.7,39.4c0,1.1-0.5,2.2-1.3,3c-0.8,0.8-1.9,1.2-3,1.2
		c0,0,0,0,0,0c-1.1,0-2.2-0.5-3-1.3c-0.8-0.8-1.2-1.9-1.2-3c0-2.3,1.9-4.2,4.3-4.2c0,0,0,0,0,0c1.1,0,2.2,0.4,3,1.3
		C43.3,37.2,43.7,38.3,43.7,39.4z"/>
	<path class="st0" d="M33.6,31.3c4.7-2.8,8.9-2.5,12.5,0.8c3.9,3.6,4.4,8.1,1.5,13.2l-0.2,0.4l2.2,1.6l0.3-0.4
		c3.4-4.3,3.6-12-1.8-17c-5.1-4.6-12.3-4-16.1-0.8l-0.3,0.3l1.5,2.1L33.6,31.3z"/>
	<path class="st0" d="M31,49c2.6,2.3,5.6,3.3,8.6,3.3c2.9,0,5.6-0.9,7.4-2.5l0.3-0.3l-1.6-2.1l-0.4,0.2c-4.7,2.8-8.9,2.5-12.5-0.8
		c-4-3.6-4.5-8.1-1.5-13.3l0.2-0.4l-2.2-1.6l-0.3,0.4C25.7,36.3,25.5,44.1,31,49z"/>
</g>
</svg>
