<?xml version="1.0" encoding="utf-8"?>
<!-- Generator: Adobe Illustrator 26.0.0, SVG Export Plug-In . SVG Version: 6.00 Build 0)  -->
<svg version="1.1" id="Layer_1" xmlns="http://www.w3.org/2000/svg" xmlns:xlink="http://www.w3.org/1999/xlink" x="0px" y="0px"
	 viewBox="0 0 60 60" style="enable-background:new 0 0 60 60;" xml:space="preserve">
<style type="text/css">
	.st0{fill:#FFFFFF;}
</style>
<g>
	<path class="st0" d="M-259-42.1c0.5-1.1,1.5-0.9,2.5-0.9c0-0.7,0-1.4,0-2.1c0-1.1,0.5-1.6,1.6-1.6c1,0,2.1,0,3.1,0
		c0.3,0,0.5-0.1,0.6-0.4c1.3-3.5,5.4-4.4,8.1-2c0.1,0.1,0.2,0.2,0.3,0.2c3.2-2.2,4.6-2.2,7.5,0c1-1,2.2-1.7,3.7-1.7s2.7,0.6,3.7,1.6
		c3.2-2.2,4.7-2.2,7.6,0c1-1,2.2-1.7,3.7-1.7s2.7,0.6,3.6,1.6c0.8-0.5,1.5-1,2.3-1.3c3-1.1,6.3,1.1,6.5,4.3c0.1,0.9,0,1.9,0,2.9
		c0.9,0,1.7,0,2.5,0c0-0.3,0-0.5,0-0.7c0-2.9,0-5.7,0-8.6c0-0.2,0-0.4,0-0.6c0.1-0.8,0.6-1.3,1.3-1.2c0.7,0,1.2,0.6,1.2,1.3
		c0,2.6,0,5.1,0,7.7c0,1.1,0,2.1,0,3.2c0,1-0.5,1.5-1.5,1.5c-1.1,0-2.2,0-3.4,0c0,0.3,0,0.5,0,0.8c0,8.7,0,17.4,0,26.2
		c0,0.9-0.1,1.8-0.5,2.7c-0.7,1.5-1.9,2.4-3.4,2.7c-0.1,0-0.2,0.1-0.3,0.1c-0.5,0-1,0-1.5,0c-1.1-0.3-2.2-0.8-3-1.7
		c-0.8,1-1.8,1.3-2.9,1.7c-0.5,0-1.1,0-1.6,0c-1.1-0.3-2.2-0.8-2.9-1.6c-0.5,0.4-0.9,0.7-1.4,1s-1,0.4-1.5,0.6c-0.5,0-1.1,0-1.6,0
		c-1.1-0.3-2.2-0.8-3-1.7c-0.8,0.9-1.8,1.3-2.9,1.7c-0.5,0-1.1,0-1.6,0c-1.1-0.3-2.2-0.8-3-1.7c-0.8,0.9-1.8,1.3-2.9,1.7
		c-0.5,0-1.1,0-1.6,0c-1.1-0.3-2.2-0.8-3-1.7c-0.8,0.9-1.8,1.3-2.9,1.7c-0.5,0-1.1,0-1.6,0l-0.1-0.1c-2.6-0.5-4.2-2.8-4.2-5.5
		c0.1-7.5,0-15,0-22.4c0-0.2,0-0.5,0-0.7c-1.2,0-2.3,0-3.4,0c-1.1,0-1.6-0.5-1.6-1.6c0-0.7,0-1.4,0-2.1c-1,0-2,0.2-2.5-0.9
		C-259-41.6-259-41.9-259-42.1z M-244-29.2c0-5.3,0-10.5,0-15.8c0-0.4,0-0.8-0.1-1.2c-0.3-1.1-1.3-1.8-2.4-1.8
		c-1.1,0-2.1,0.7-2.4,1.8c-0.1,0.4-0.1,0.8-0.1,1.2c0,10.5,0,20.9,0,31.4c0,0.3,0,0.6,0.1,0.9c0.1,1,1,1.9,2,2
		c1.7,0.2,2.9-0.9,2.9-2.7C-244-18.6-244-23.9-244-29.2z M-241.5-29.3c0,5.2,0,10.4,0,15.6c0,0.3,0,0.6,0,0.9
		c0.1,0.8,0.5,1.4,1.1,1.8c0.8,0.5,1.7,0.5,2.5,0.1c0.9-0.5,1.3-1.3,1.3-2.3c0-10.7,0-21.4,0-32.1c0-0.3,0-0.5-0.1-0.8
		c-0.3-1-0.9-1.6-1.9-1.8s-1.8,0.1-2.4,0.9c-0.5,0.6-0.5,1.3-0.5,2C-241.5-39.8-241.5-34.5-241.5-29.3z M-234-29.3
		c0,5.2,0,10.4,0,15.6c0,0.3,0,0.6,0,0.9c0.1,0.8,0.5,1.4,1.1,1.8c0.8,0.5,1.7,0.5,2.5,0.1c0.9-0.5,1.3-1.3,1.3-2.3
		c0-10.7,0-21.4,0-32.1c0-0.3,0-0.5-0.1-0.8c-0.3-1-0.9-1.6-1.9-1.8s-1.8,0.1-2.4,0.9c-0.5,0.6-0.5,1.3-0.5,2
		C-234-39.8-234-34.5-234-29.3z M-221.5-29.3c0-4.7,0-9.5,0-14.2c0-0.7,0-1.3,0-2c-0.1-1.8-1.8-3-3.4-2.3c-1.2,0.5-1.6,1.4-1.6,2.6
		c0,10.6,0,21.2,0,31.9c0,0.3,0,0.5,0.1,0.8c0.2,1,1,1.9,2,2c1.7,0.2,2.9-0.9,2.9-2.7C-221.5-18.6-221.5-24-221.5-29.3z M-214-29.2
		c0-5.3,0-10.5,0-15.8c0-0.3,0-0.7-0.1-1c-0.2-1.1-1.2-1.9-2.3-1.9c-1.2,0-2.2,0.7-2.5,1.8c-0.1,0.4-0.1,0.8-0.1,1.3
		c0,10.5,0,20.9,0,31.4c0,0.3,0,0.6,0.1,0.9c0.1,1.1,1,1.9,2.1,2c1.6,0.2,2.8-0.9,2.8-2.7C-214-18.6-214-23.9-214-29.2z
		 M-211.5-29.2c0,5.2,0,10.4,0,15.6c0,0.3,0,0.6,0,0.9c0.1,0.8,0.5,1.5,1.2,1.9c1.7,1,3.7-0.3,3.7-2.4c0-10.7,0-21.4,0-32
		c0-0.3,0-0.6-0.1-0.9c-0.3-1-0.9-1.6-2-1.8c-1-0.2-1.8,0.2-2.4,1c-0.4,0.6-0.5,1.3-0.5,1.9C-211.5-39.8-211.5-34.5-211.5-29.2z
		 M-251.5-39.3c0-1.7,0-3.3,0-4.9c-0.8,0-1.6,0-2.4,0c0,1.7,0,3.3,0,4.9C-253.1-39.3-252.3-39.3-251.5-39.3z"/>
	<path class="st0" d="M-225.3-63.4c0,1.3-0.4,2.4-1.2,3.4c-1.4,1.6-1.3,3.2-0.3,4.9c0.4,0.7,0.4,1.4-0.1,1.8
		c-0.6,0.5-1.4,0.4-1.8-0.2c-1.6-2.3-2.1-5.2-0.1-7.6c1.3-1.5,1.1-3.1,0.3-4.5c-0.1-0.2-0.2-0.3-0.3-0.5c-0.3-0.6-0.1-1.3,0.5-1.7
		c0.6-0.3,1.3-0.2,1.7,0.4C-225.9-66.2-225.4-64.9-225.3-63.4z"/>
	<path class="st0" d="M-215.7-59.7c0,0.9-0.3,1.7-0.9,2.4c-0.7,0.8-0.7,1.2-0.2,2.2c0.2,0.4,0.3,0.8,0.3,1.2c0,0.5-0.4,0.8-0.9,0.9
		c-0.5,0.1-0.9,0-1.2-0.4c-1.2-1.5-1.6-3.6-0.2-5.3c0.8-0.9,0.8-1.2,0.2-2.2c-0.2-0.3-0.3-0.7-0.3-1c0-0.5,0.3-0.9,0.8-1
		c0.5-0.2,1,0,1.4,0.4C-216.1-61.7-215.7-60.8-215.7-59.7z"/>
	<path class="st0" d="M-235.7-59.4c0,0.6-0.3,1.4-0.9,2c-0.7,0.9-0.8,1.3-0.2,2.2c0.1,0.2,0.3,0.4,0.3,0.7c0.1,0.5-0.2,1.1-0.7,1.3
		c-0.5,0.3-1.1,0.2-1.5-0.2c-1.1-1.4-1.7-3.5-0.2-5.3c0.8-0.9,0.8-1.2,0.2-2.2c-0.3-0.4-0.4-0.9-0.2-1.4c0.4-0.9,1.5-1,2.2-0.2
		C-236.1-61.8-235.7-60.6-235.7-59.4z"/>
</g>
<g>
	<path class="st0" d="M579.2-58.5c0,0.6,0.1,1.3,0,1.8c-0.2,0.8,0.1,1.2,0.8,1.6c2.3,1.4,4.5,2.9,6.8,4.4c0.9,0.6,1,1,0.7,2
		c-1.4,4.2-3.6,8-6.6,11.3c-0.6,0.7-1.1,0.8-2,0.3c-2.6-1.3-5.2-2.6-7.8-4c-0.4-0.2-0.6-0.2-1,0c-4.1,2.8-8.7,4.1-13.6,3.8
		c-4-0.2-7.7-1.5-11-3.8c-0.4-0.3-0.7-0.3-1.1,0c-2.6,1.3-5.2,2.6-7.7,4c-0.8,0.4-1.3,0.3-2-0.3c-2.9-3.3-5.2-7-6.6-11.2
		c-0.3-1.1-0.2-1.4,0.7-2.1c2.4-1.5,4.7-3.1,7.1-4.6c0.4-0.2,0.5-0.4,0.5-0.9c-0.6-5.7,0.8-10.9,4.3-15.5c2.2-2.9,4.9-5,8.2-6.5
		c0.2-0.1,0.4-0.4,0.4-0.7c0.2-2.8,0.3-5.6,0.4-8.5c0-1.3,0.3-1.6,1.6-1.9c4.2-0.8,8.4-0.8,12.7,0c1.2,0.2,1.5,0.6,1.5,1.8
		c0.1,2.8,0.3,5.6,0.4,8.5c0,0.4,0.1,0.6,0.5,0.8c7,3.3,11.1,8.9,12.4,16.5c0.1,0.5,0.1,1,0.1,1.5C579.3-59.6,579.3-59.1,579.2-58.5
		L579.2-58.5z M536.2-39.6c2.7-1.4,5.4-2.7,8.1-4.2c0.7-0.4,1.3-0.3,2,0.2c6.6,5.1,15.6,5.3,22.3,0.6c2-1.4,1.6-1.4,3.9-0.2
		c2.3,1.2,4.6,2.4,6.9,3.5c0.1,0,0.1,0,0.2-0.1c2.3-2.6,4-5.5,5.2-8.7c0-0.1-0.1-0.6-0.3-0.7c-2.3-1.5-4.7-3.1-7.1-4.6
		c-0.7-0.4-0.9-1-0.8-1.9c0.6-3.6,0.1-7.1-1.3-10.4c-2.1-4.8-5.6-8.2-10.5-10.2c-0.7-0.3-1.1-0.7-1.1-1.5c0-0.9-0.1-1.8-0.1-2.7
		c-0.1-2.1-0.2-4.2-0.3-6.4c-3.6-0.6-7.1-0.7-10.7,0c-0.1,3.1-0.3,6.1-0.5,9.1c0,0.7-0.3,1.2-1,1.5c-3.3,1.3-6.1,3.3-8.2,6.2
		c-3.2,4.2-4.4,8.9-3.7,14.2c0.1,1.1-0.1,1.7-1,2.3c-2.3,1.4-4.5,2.9-6.8,4.4c-0.2,0.1-0.4,0.5-0.4,0.7
		C532.1-45.1,533.8-42.2,536.2-39.6z"/>
	<path class="st0" d="M535.3-47.3c0.8,1.2,1.6,2.4,2.3,3.6c0.2,0.4,0.4,0.9,0.3,1.3c-0.2,1-1.5,1.4-2.1,0.5
		c-1.2-1.8-2.3-3.7-3.3-5.7c-0.3-0.5,0.1-1.1,0.6-1.5c2.2-1.4,4.4-2.9,6.7-4.3c0.6-0.3,0.7-0.7,0.5-1.4c-1-4.8-0.2-9.3,2.4-13.4
		c2.2-3.4,5.2-5.8,9-7.1c1-0.3,1.3-0.8,1.3-1.8c0-2.4,0.2-4.8,0.3-7.2c0-1.2,0.3-1.6,1.5-1.7c1.8,0,3.7-0.1,5.6,0
		c1.1,0,1.5,0.5,1.5,1.7c0.1,2.6,0.2,5.3,0.4,7.9c0,0.5,0.2,0.7,0.7,0.9c3.5,1.1,6.4,3.1,8.6,6.1c0.1,0.2,0.2,0.3,0.4,0.5
		c0.4,0.7,0.4,1.4-0.2,1.8c-0.6,0.4-1.3,0.3-1.9-0.3c-1.3-1.7-2.8-3.2-4.7-4.3c-1.3-0.7-2.8-1.3-4.2-1.8c-0.8-0.3-1.2-0.8-1.2-1.7
		c-0.1-2.7-0.3-5.5-0.4-8.3c-1.1,0-2.3,0-3.5,0c-0.1,2.1-0.2,4.2-0.3,6.3c0,0.7-0.1,1.4-0.1,2.1c0,0.8-0.4,1.3-1.2,1.6
		c-1.5,0.6-3.2,1.2-4.6,2c-5.3,3.1-8.1,9.5-7,15.5c0.1,0.7,0.2,1.5,0.4,2.2c0.2,0.8-0.1,1.3-0.8,1.8c-2.2,1.4-4.4,2.8-6.6,4.2
		C535.7-47.6,535.6-47.5,535.3-47.3z"/>
	<path class="st0" d="M569.7-58.8c0,6.5-5.3,11.9-11.8,11.9S546-52.2,546-58.8c0-6.5,5.3-11.8,11.8-11.9
		C564.3-70.6,569.6-65.3,569.7-58.8z M557.8-49.5c5.1,0,9.3-4.1,9.3-9.3s-4.1-9.3-9.3-9.3c-5.1,0-9.3,4.2-9.3,9.3
		C548.5-53.6,552.7-49.5,557.8-49.5z"/>
</g>
<g>
	<path class="st0" d="M-287.1-73.5c-1.1,0-2.1,0-3.2,0c0-0.2,0-0.3,0-0.5c-0.1-3-2.7-5.6-5.7-5.6c-11.5,0-23,0-34.4,0
		c-2.2,0-3.8,1.1-4.9,2.9c-0.6,1-0.8,2-0.8,3.2c-1.1,0-2.1,0-3.2,0c-1.1,0-1.5,0.4-1.5,1.5c0,1.1,0,2.2,0,3.3c-1.1,0-2.1,0-3.1,0
		c-0.7,0-1.2,0.2-1.6,0.8c0,5.6,0,11.2-0.1,16.8c0.3,0.6,0.8,0.9,1.5,0.8c0.4,0,0.9,0,1.3,0c0.6,0,1.2,0,1.9,0c0,0.6,0,1.2,0,1.8
		c0,0.6,0,1.2,0,1.8c0,0.7,0.4,1.2,1,1.2c0.2,0,0.5,0,0.7,0c1,0,2,0,3,0c0.3,2.9,1.9,4.7,4.6,5.5c0,0.1,0,0.2-0.1,0.3
		c-0.5,1.7-1.1,3.3-1.6,5c-0.4,1.1,0.1,1.8,1.2,1.8c4.9,0,9.8,0,14.8,0c1.1,0,1.6-0.7,1.2-1.7c-0.3-0.9-0.6-1.8-0.9-2.7
		c-0.3-0.9-0.5-1.7-0.8-2.5c3.1,0,6.2,0,9.3,0c-0.6,1.8-1.2,3.5-1.7,5.2c-0.3,1.1,0.1,1.8,1.3,1.8c4.9,0,9.8,0,14.7,0
		c1.2,0,1.7-0.7,1.3-1.8c-0.5-1.4-1-2.9-1.4-4.4c-0.1-0.3-0.2-0.7-0.3-1c1.2-0.4,2.3-1.1,3.1-2c0.8-1,1.2-2.2,1.3-3.4
		c0.1,0,0.1,0,0.2,0c1,0,2,0,3,0c1.1,0,1.5-0.4,1.5-1.5c0-8.3,0-16.6,0-25C-285.6-73.2-286-73.5-287.1-73.5z M-340.8-52.6
		c-0.7,0-1.5,0-2.3,0c0-4.6,0-9.2,0-13.8c0.8,0,1.5,0,2.3,0C-340.8-61.8-340.8-57.2-340.8-52.6z M-336.1-47.9c-0.8,0-1.5,0-2.3,0
		c0-7.8,0-15.5,0-23.3c0.7,0,1.5,0,2.3,0C-336.1-63.5-336.1-55.7-336.1-47.9z M-324.9-35.2c-1.9,0-3.7,0-5.7,0
		c0.5-1.6,1-3.1,1.5-4.7c1.9,0,3.8,0,5.7,0C-323.9-38.3-324.3-36.8-324.9-35.2z M-322.3-35.2c0.5-1.5,1-3,1.5-4.5
		c0-0.1,0.2-0.2,0.4-0.2c0.1,0,0.3,0.1,0.3,0.2c0.5,1.4,1,2.9,1.5,4.4C-319.9-35.2-321.1-35.2-322.3-35.2z M-301.7-35.4
		c0,0.1-0.2,0.2-0.3,0.2c-1.8,0-3.5,0-5.4,0c0.5-1.5,1-3,1.5-4.5c0-0.1,0.2-0.2,0.3-0.2c1.8,0,3.5,0,5.4,0
		C-300.7-38.4-301.2-36.9-301.7-35.4z M-299.3-35.2c0.5-1.4,0.9-2.7,1.4-4.1c0-0.1,0-0.3,0.1-0.4c0.1-0.2,0.6-0.1,0.7,0.1
		c0.5,1.4,1,2.9,1.5,4.4C-296.8-35.2-298-35.2-299.3-35.2z M-292.6-46.2c0,2.5-1.4,4-4,4c-5.5,0-11.1,0-16.6,0c-5.5,0-11,0-16.6,0
		c-2.5,0-4-1.4-4-4c0-9,0-18.1,0-27.1c0-2.5,1.4-4,4-4c11.1,0,22.1,0,33.2,0c2.5,0,4,1.4,4,4C-292.6-64.3-292.6-55.2-292.6-46.2z
		 M-288-47.9c-0.7,0-1.5,0-2.3,0c0-7.8,0-15.5,0-23.3c0.8,0,1.5,0,2.3,0C-288-63.4-288-55.7-288-47.9z"/>
	<path class="st0" d="M-298.5-70.3c-4.9,0-9.8,0-14.7,0c-2.7,0-5.5,0-8.3,0c-2.2,0-4.4,0-6.5,0c-2,0-3.5,1.6-3.5,3.5
		c0,2,1.6,3.5,3.7,3.5c9.7,0,19.4,0,29.1,0c0.2,0,0.3,0,0.5,0c1.7-0.1,3.1-1.5,3.2-3.2C-294.8-68.6-296.4-70.3-298.5-70.3z
		 M-299-65.6c-4.7,0-9.4,0-14.2,0c-4.7,0-9.4,0-14.1,0c-1.1,0-1.7-0.4-1.7-1.2c0-0.8,0.6-1.2,1.7-1.2c9.4,0,18.9,0,28.4,0
		c1.1,0,1.7,0.4,1.7,1.2C-297.3-66-297.9-65.6-299-65.6z"/>
	<path class="st0" d="M-298.5-60.9c-4.8,0-9.7,0-14.6,0c-2.7,0-5.4,0-8.1,0c-2.3,0-4.6,0-6.8,0c-2,0-3.5,1.6-3.5,3.5
		c0,2,1.6,3.5,3.7,3.5c9.7,0,19.4,0,29.1,0c0.2,0,0.3,0,0.5,0c1.7-0.1,3.1-1.5,3.2-3.2C-294.8-59.3-296.4-60.9-298.5-60.9z
		 M-299-56.3c-4.7,0-9.4,0-14.2,0c-4.7,0-9.4,0-14.1,0c-1.1,0-1.7-0.4-1.7-1.2c0-0.8,0.6-1.2,1.7-1.2c9.4,0,18.9,0,28.4,0
		c1.1,0,1.7,0.4,1.7,1.2C-297.3-56.7-297.9-56.3-299-56.3z"/>
	<path class="st0" d="M-298.5-51.6c-4.9,0-9.8,0-14.7,0c-0.9,0-1.8,0-2.7,0c-4,0-8,0-12,0c-2.1,0-3.6,1.6-3.5,3.6
		c0.1,1.9,1.6,3.4,3.6,3.4c9.7,0,19.5,0,29.2,0c0.1,0,0.3,0,0.4,0c1.7-0.1,3.1-1.5,3.2-3.2C-294.8-49.9-296.4-51.6-298.5-51.6z
		 M-298-47c-0.3,0-0.6,0.1-0.9,0.1c-4.7,0-9.4,0-14.2,0c-4.7,0-9.3,0-14,0c-0.1,0-0.2,0-0.3,0c-1,0-1.5-0.4-1.5-1.2s0.6-1.2,1.5-1.2
		c9.5,0,19.1,0,28.7,0c0.3,0,0.6,0,0.8,0.1c0.5,0.1,0.7,0.5,0.7,1C-297.3-47.6-297.5-47.2-298-47z"/>
	<path class="st0" d="M-296.5-75c-9.4,0-18.8,0-28.3,0c-0.2,0-0.3,0-0.5,0c-0.7,0-1.2,0.5-1.2,1.2c0,0.7,0.5,1.2,1.2,1.2
		c0.2,0,0.3,0,0.5,0c4.7,0,9.3,0,14,0c4.7,0,9.4,0,14.1,0c1.2,0,1.7-0.4,1.7-1.2C-294.9-74.6-295.5-75-296.5-75z"/>
	
		<ellipse transform="matrix(0.7071 -0.7071 0.7071 0.7071 -44.4952 -254.9288)" class="st0" cx="-330" cy="-73.8" rx="1.2" ry="1.2"/>
</g>
<path class="st0" d="M-39.7,9.6c-0.2-0.1-0.5-0.2-0.6-0.4c-2.3-2.2-4.5-4.5-6.7-6.7c-0.8-0.8-1.3-1.8-1.4-3
	c-0.2-1.9-0.4-3.7-0.6-5.6c-0.2-1.6,0.2-3,1.5-4.1c1.7-1.6,3.3-3.2,4.8-4.9c1.3-1.4,2.8-2,4.7-1.7c1.8,0.3,3.7,0.4,5.6,0.6
	c1.1,0.1,2.1,0.6,2.8,1.4c2.2,2.3,4.5,4.5,6.7,6.7c0.2,0.2,0.3,0.3,0.7,0.7c0.5-0.6,1-1.3,1.6-1.8c2.7-2.4,6.9-1.1,7.7,2.4
	c0.4,1.6,0,3.1-1.1,4.3c-0.5,0.6-1.1,1-1.7,1.6c0.3,0.3,0.4,0.5,0.6,0.6c2.2,2.2,4.5,4.5,6.7,6.7c0.9,0.9,1.4,1.8,1.5,3.1
	c0.2,1.9,0.4,3.7,0.6,5.6c0.2,1.6-0.2,2.8-1.4,3.9c-1.9,1.8-3.7,3.7-5.6,5.5c-1,1.1-2.3,1.4-3.7,1.3c-2-0.2-4.1-0.4-6.2-0.6
	c-1-0.1-1.8-0.6-2.6-1.3c-2.2-2.3-4.5-4.5-6.7-6.7c-0.2-0.2-0.3-0.4-0.6-0.7c-0.2,0.2-0.4,0.4-0.6,0.5c-5.3,5.3-10.4,10.5-15.7,15.7
	c-0.3,0.3-0.4,0.6-0.3,1c0.2,1.1,0.1,2.2-0.7,3.2c-1.2,1.5-2.3,3.1-3.5,4.6c-1.5,1.8-4.1,2-5.8,0.4c-1.9-1.8-3.7-3.6-5.5-5.5
	c-1.6-1.6-1.5-4.3,0.3-5.8c1.6-1.3,3.2-2.6,4.8-3.8c0.9-0.7,2-0.8,3.2-0.6c0.2,0.1,0.6,0,0.8-0.2c5.4-5.3,10.6-10.5,16-15.9
	C-40.1,10.1-40,9.9-39.7,9.6z M-9.8,11.4c-0.1-0.1-0.2-0.1-0.2-0.2c-0.1,0.2-0.3,0.4-0.4,0.6c-2.5,2.5-5.1,5.1-7.6,7.6
	c-0.2,0.2-0.3,0.4-0.5,0.5c-0.5,0.4-1.2,0.3-1.7-0.1c-0.5-0.5-0.5-1.1-0.1-1.7c0.1-0.2,0.3-0.4,0.5-0.5c2.9-2.9,5.8-5.8,8.7-8.7
	c0.2-0.2,0.4-0.4,0.5-0.6c-0.1-0.1-0.2-0.2-0.2-0.3c-7.1-7.1-14-14-21.1-21c-0.3-0.3-0.8-0.5-1.2-0.5c-1.9-0.3-3.8-0.4-5.8-0.7
	c-0.7-0.1-1.2,0.1-1.7,0.6c-1.8,1.7-3.3,3.4-5,4.9c-1,0.9-1.5,1.8-1.2,3.2c0.3,1.1,0.3,2.2,0.4,3.3c0.1,0,0.2,0.1,0.3,0.1
	c0.1-0.2,0.2-0.4,0.4-0.6c2.5-2.6,5.1-5.1,7.6-7.6c0.2-0.2,0.4-0.3,0.5-0.4c0.6-0.5,1.3-0.5,1.8,0.1c0.5,0.5,0.5,1.2,0,1.8
	c-0.1,0.2-0.3,0.3-0.4,0.4c-2.9,2.9-5.8,5.8-8.6,8.6c-0.2,0.2-0.4,0.3-0.7,0.4c0.2,0.3,0.3,0.4,0.4,0.5c7,7,13.9,14,21,21
	c0.3,0.3,0.7,0.5,1.1,0.6c2,0.3,4,0.5,6,0.6c0.5,0,1.1-0.2,1.4-0.5c2-1.9,3.9-3.8,5.8-5.8c0.2-0.2,0.4-0.6,0.4-0.9
	C-9.4,14.5-9.6,13-9.8,11.4z M-57.8,28.7c-0.4,0.2-0.7,0.3-1,0.5c-1.4,1-2.7,2.1-4.1,3.2c-0.9,0.7-0.9,1.5-0.1,2.3
	c1.7,1.7,3.3,3.3,5,5c0.8,0.8,1.7,0.7,2.3-0.1c1.1-1.4,2.1-2.8,3.2-4.2c0.6-0.7,0.5-1.3-0.1-2c-1.4-1.4-2.7-2.8-4.1-4.1
	C-57.1,29.1-57.5,29-57.8,28.7z M-40.1,19.4c-0.9-1-1.9-1.9-2.8-2.8c-3.8,3.8-7.6,7.6-11.3,11.3c0.9,0.9,1.9,1.9,2.8,2.8
	C-47.6,27-43.8,23.2-40.1,19.4z M-35.2,14.7c-0.9-0.9-1.9-1.8-2.7-2.7c-0.9,0.9-1.8,1.8-2.7,2.7c0.9,0.9,1.8,1.8,2.7,2.7
	C-37,16.4-36.1,15.5-35.2,14.7z M-20.7-5.7c1,1,2,2,3,3c0.4-0.4,0.8-0.9,1.2-1.4c0.8-0.9,0.9-2.1,0-2.9c-0.6-0.8-1.9-0.8-2.8-0.1
	C-19.8-6.6-20.3-6.1-20.7-5.7z"/>
<g>
	<path class="st0" d="M675.4-71.1c-0.4-1.4-1-2.4-2.1-2.9c-0.2-0.1-0.4-0.2-0.7-0.3c-0.1,0-0.2-0.1-0.3-0.1l-37.6,0l-0.1,0
		c-1.7,0.5-2.7,1.5-3,3.1c-0.1,0.4-0.1,0.8-0.1,1.1c0,1.1,0,2.2,0,3.3l0,1.7l-1,0c-1,0-2,0-3,0c0,0,0,0,0,0c-1,0-1.9,0.3-2.6,1
		c-0.9,0.8-1.3,1.8-1.3,3.1l0,6.5l-1,0c-0.9,0-1.9,0-2.8,0c-1.6,0-2.8,0.7-3.5,2.1c-0.3,0.5-0.4,1.2-0.4,1.8c0,10.6,0,21.3,0,31.9
		c0,2.3,1.6,3.9,3.9,3.9c5.9,0,11.8,0,17.7,0c6.1,0,12.3,0,18.4,0c2.3,0,3.8-1.5,3.9-3.8c0-0.7,0-1.5,0-2.2l0-0.8c0.4,0,0.8,0,1.2,0
		c0.8,0,1.6,0,2.3,0c1.1,0.1,2.1-0.3,2.9-1c0.8-0.8,1.3-1.9,1.3-3.1v-5l2.6,0c0.5,0,1,0,1.4,0c1.8,0,3.2-1.1,3.7-2.9
		c0-0.1,0.1-0.2,0.1-0.3l0.1-0.2L675.4-71.1z M625.7-22.2c0.7,0.3,1.5,0.4,2.1,0.4c7.7,0,15.3,0,23,0l6,0c0,0.2,0,0.5,0,0.7
		c0,0.9,0,1.8,0,2.7c0,0,0,0.2-0.6,0.5c-0.1,0.1-0.3,0.1-0.5,0l-0.2,0c-10.3,0-20.6,0-30.9,0h-4.4c-1.2,0-1.4-0.2-1.4-1.4v-31.3
		c0-1.1,0.2-1.3,1.4-1.4h3.5v7.7c0,6,0,12,0,18C623.6-24.2,624.3-22.9,625.7-22.2z M626.4-26.1v-0.1c0-11.5,0-23,0-34.5
		c0-0.3,0-0.6,0.1-0.9c0.1-0.4,0.4-0.7,0.8-0.7c0.6,0,1.2,0,1.9,0c0.4,0,0.8,0,1.3,0l1,0v7.2c0,6.7,0,13.4,0,20
		c0,1.8,0.7,3.1,2.1,3.8c0.6,0.3,1.3,0.4,2.1,0.4c7.6,0,15.2,0,22.8,0l6,0l0,1.3c0,1.3,0,2.6,0,3.9c0,0.8-0.3,1.1-1.2,1.1h-35.6
		c-0.9,0-1.2-0.3-1.2-1.2C626.4-25.9,626.4-26,626.4-26.1z M672.5-70.1c0,11.7,0,23.3,0,35c0,1.1-0.3,1.4-1.4,1.4h-35.3
		c-1.1,0-1.4-0.3-1.4-1.4v-34.9c0-1.1,0.3-1.4,1.4-1.4h35.3C672.2-71.5,672.5-71.2,672.5-70.1z"/>
	<path class="st0" d="M660.8-67.3l-22.1,0c-0.7,0-1.2,0.2-1.6,0.5c-0.2,0.2-0.4,0.6-0.4,1c0,0.5,0.3,1.4,1.9,1.4l13.8,0l8.3,0
		c0.7,0,1.2-0.2,1.6-0.5c0.2-0.2,0.4-0.6,0.3-1C662.7-66.6,662.3-67.3,660.8-67.3z"/>
	<path class="st0" d="M666.1-62.9C666.1-62.9,666.1-62.9,666.1-62.9c-0.4,0-1.4,0.2-1.4,1.9v20c0,0.2,0,0.4,0,0.6
		c0.1,0.8,0.6,1.3,1.4,1.4c0,0,0,0,0,0c0.7,0,1.3-0.5,1.4-1.3c0-0.2,0-0.4,0-0.6c0-6.7,0-13.4,0-20.1c0-0.7-0.2-1.2-0.5-1.5
		C666.8-62.7,666.4-62.9,666.1-62.9z"/>
	<path class="st0" d="M665.9-64.5C665.9-64.5,665.9-64.5,665.9-64.5c0.8,0,1.4-0.6,1.4-1.4c0-0.4-0.1-0.8-0.4-1
		c-0.3-0.3-0.6-0.4-1-0.4c-0.8,0-1.4,0.7-1.4,1.4C664.5-65.1,665.1-64.5,665.9-64.5z"/>
</g>
<g>
	<path class="st0" d="M574.2,34.5c-1.7-1.7-3.4-3.4-5.1-5.1c-0.2-0.2-0.3-0.5-0.3-0.8c0-1.2,0-2.3,0-3.5c0-1,0.1-1.9,0.5-2.8
		c1-2.1,0.5-4.2-1.3-5.9c-4.5-4.5-8.9-9-13.4-13.4c-0.3-0.3-0.5-0.5-0.8-0.7c-2.6-2-6-1.7-8.4,0.7c-5.5,5.5-11,11-16.5,16.5
		c-0.2,0.2-0.6,0.4-0.9,0.5c-3,0.7-5.3,3.3-5.9,6.3c-0.1,0.6-0.2,1.2-0.3,1.8c-0.3,1.3-0.6,2.5-0.9,3.8c-1,4.1-1.9,8.2-2.9,12.4
		c-0.1,0.2-0.2,0.5-0.4,0.6c-1.8,0.8-2.6,2.2-2.6,4.2c0,2.8,0,5.6,0,8.4c0,1.3,0.4,1.7,1.7,1.7c15.5,0,31,0,46.5,0
		c1.1,0,1.7-0.4,1.7-1.2c0-0.8-0.6-1.1-1.7-1.1c-6,0-12.1,0-18.1,0c-0.2,0-0.4,0-0.7,0c0-0.3,0-0.6,0-0.8c0-2.5,0-5,0-7.4
		c0-1.7-0.9-2.9-2.4-3.6c-0.3-0.2-0.5-0.3-0.5-0.7c-1.2-5.1-2.4-10.2-3.6-15.3c-0.1-0.4,0-0.7,0.3-1c4.4-4.3,8.7-8.7,13.1-13
		c0.1-0.1,0.2-0.2,0.4-0.4c2.9,2.9,5.8,5.8,8.7,8.7c0.2,0.2,0.2,0.5,0.2,0.7c0,1.5,0,3,0,4.6c0,0.4-0.1,0.7-0.4,1
		c-1.8,1.8-3.5,3.5-5.3,5.3c-0.7,0.7-0.7,1.1-0.3,1.9c0.5,0.9,0.9,1.8,1.4,2.6c0.4,0.8,0.9,1.6,1.3,2.5c0.2,0.4,0.6,0.7,1.1,0.6
		c0.4-0.1,0.7-0.4,1-0.7c0.3-0.4,0.1-0.9-0.1-1.3c-0.7-1.3-1.4-2.6-2.1-3.9c-0.2-0.3-0.2-0.6,0.1-0.9c1.6-1.5,3.1-3.1,4.7-4.7
		c0.2-0.2,0.5-0.3,0.7-0.3c1.4,0,2.8,0,4.2,0c0.2,0,0.5,0.1,0.7,0.3c1.6,1.6,3.1,3.2,4.7,4.7c0.3,0.3,0.3,0.4,0.1,0.8
		c-0.7,1.2-1.3,2.4-2,3.7c-0.1,0.3-0.3,0.5-0.4,0.8c-0.2,0.5,0,0.9,0.4,1.2c0.4,0.3,0.9,0.3,1.3,0c0.2-0.2,0.4-0.4,0.5-0.7
		c1-1.8,1.9-3.6,2.9-5.3c0-0.2,0-0.5,0-0.7C574.7,35.2,574.5,34.8,574.2,34.5z M529.7,22.1c3,0,5.4,2.5,5.4,5.4c0,3-2.5,5.4-5.5,5.4
		c-3,0-5.4-2.4-5.4-5.4C524.3,24.5,526.7,22.1,529.7,22.1z M542,48.9c0,2.4,0,4.9,0,7.3c0,0.2,0,0.3,0,0.5c-8.2,0-16.4,0-24.6,0
		c0-0.2,0-0.3,0-0.5c0-2.4,0-4.8,0-7.3c0-1.4,0.7-2,2-2c6.8,0,13.7,0,20.5,0C541.3,46.9,542,47.5,542,48.9z M539.1,44.5
		c-6.3,0-12.4,0-18.7,0c1-4.2,1.9-8.3,2.9-12.6c1.7,2.2,3.8,3.4,6.4,3.4c2.7,0,4.8-1.1,6.5-3.4C537.1,36.2,538.1,40.3,539.1,44.5z
		 M537.2,25.3c-0.4-1.2-1-2.4-2-3.3c-1-1-2.1-1.6-3.4-2c4-4,8-8,11.9-12c0.6,3,2.4,4.8,5.4,5.4C545.1,17.4,541.2,21.4,537.2,25.3z
		 M550,11.1c-2.1,0-3.9-1.7-3.9-3.9c0-2.2,1.7-3.9,3.9-3.9c2.2,0,3.9,1.8,4,3.9C553.9,9.4,552.1,11.1,550,11.1z M566.3,28.3
		c-1.2,0-2.3,0-3.5,0c0-1.1,0-2.1,0-3c1.2,0,2.3,0,3.5,0C566.3,26.2,566.3,27.2,566.3,28.3z M566.7,22.1c-1,1.2-2.7,1.3-3.9,0.3
		c-0.2-0.1-0.4-0.3-0.5-0.5c-2.9-2.9-5.8-5.8-8.7-8.7c-0.1-0.1-0.3-0.3-0.4-0.5c1.5-1.3,2.7-2.8,3-4.9c0.2,0.2,0.3,0.2,0.4,0.3
		c3.3,3.3,6.5,6.5,9.8,9.8C567.6,19.3,567.7,20.9,566.7,22.1z"/>
	<path class="st0" d="M568.6,56.7c-0.6,0-1.2,0.5-1.2,1.1c0,0.6,0.5,1.2,1.1,1.2c0.6,0,1.2-0.5,1.2-1.1
		C569.7,57.3,569.2,56.7,568.6,56.7z"/>
	<path class="st0" d="M527.3,53c1.6,0,3.2,0,4.9,0c0.8,0,1.3-0.5,1.3-1.2c0-0.7-0.5-1.2-1.4-1.2c-0.8,0-1.6,0-2.4,0
		c-0.8,0-1.6,0-2.4,0c-0.8,0-1.3,0.5-1.3,1.2C525.9,52.5,526.5,53,527.3,53z"/>
	<path class="st0" d="M521.6,53c0.6,0,1.2-0.5,1.2-1.1c0-0.6-0.5-1.2-1.1-1.2c-0.6,0-1.2,0.5-1.2,1.1C520.4,52.4,521,52.9,521.6,53z
		"/>
	<path class="st0" d="M537.8,53c0.6,0,1.1-0.6,1.1-1.2c0-0.6-0.6-1.2-1.2-1.1c-0.6,0-1.2,0.6-1.1,1.2C536.6,52.4,537.2,53,537.8,53z
		"/>
	<path class="st0" d="M529.7,28.7c0.6,0,1.1-0.6,1.1-1.2c0-0.6-0.5-1.2-1.2-1.1c-0.6,0-1.2,0.6-1.1,1.2
		C528.6,28.2,529.1,28.7,529.7,28.7z"/>
	<path class="st0" d="M564.6,19.1c-0.6,0-1.1,0.5-1.1,1.2c0,0.6,0.5,1.2,1.2,1.1c0.6,0,1.2-0.6,1.2-1.2
		C565.7,19.7,565.2,19.1,564.6,19.1z"/>
	<path class="st0" d="M549.9,6.1c-0.6,0-1.2,0.5-1.2,1.2c0,0.6,0.5,1.1,1.2,1.1c0.6,0,1.2-0.5,1.2-1.2
		C551.1,6.6,550.6,6.1,549.9,6.1z"/>
</g>
<g>
	<path class="st0" d="M-191.2,82c-10.3,0-20.5,0-30.8,0c-2.7,0-4.8,2.1-4.8,4.9c0,11.5,0,23.1,0,34.6c0,0.6,0.1,1.2,0.3,1.8
		c0.8,2,2.3,3,4.5,3.2c0,1.3,0,2.5,0,3.8c-0.3,0-0.5,0-0.7,0c-0.8,0-1.2,0.3-1.2,1.1c0,3.1,0,6.2,0,9.3c0,0.7,0.4,1.1,1.1,1.1
		c2.5,0,5,0,7.5,0c0.6,0,1-0.4,1-1c0-3.2,0-6.4,0-9.6c0-0.6-0.4-0.9-1-1c-0.3,0-0.6,0-0.9,0c0-1.3,0-2.6,0-3.8c2.2,0,4.4,0,6.7,0
		c0,1.3,0,2.5,0,3.8c-0.3,0-0.6,0-0.8,0c-0.7,0-1.1,0.4-1.1,1.1c0,3.1,0,6.3,0,9.4c0,0.7,0.4,1.1,1.1,1.1c2.5,0,5,0,7.5,0
		c0.7,0,1.1-0.4,1.1-1.1c0-0.6,0-1.2,0-1.9c0-2.5,0-4.9,0-7.4c0-0.9-0.3-1.2-1.2-1.2c-0.2,0-0.5,0-0.7,0c0-1.3,0-2.6,0-3.8
		c2.2,0,4.5,0,6.7,0c0,1.3,0,2.5,0,3.8c-0.3,0-0.6,0-0.9,0c-0.6,0-1,0.4-1,1c0,3.2,0,6.4,0,9.6c0,0.6,0.4,1,1,1c2.6,0,5.1,0,7.7,0
		c0.6,0,1-0.4,1-1c0-3.2,0-6.4,0-9.6c0-0.6-0.4-1-1-1c-0.3,0-0.6,0-0.9,0c0-1.3,0-2.6,0-3.8c3-0.4,4.8-2.2,4.8-4.9
		c0-11.6,0-23.1,0-34.7C-186.4,84.1-188.5,82-191.2,82z M-216.3,139.8c-1.9,0-3.8,0-5.7,0c0-2.6,0-5.1,0-7.6c1.9,0,3.8,0,5.7,0
		C-216.3,134.7-216.3,137.2-216.3,139.8z M-220.1,130.1c0-1.3,0-2.5,0-3.8c0.6,0,1.2,0,1.9,0c0,1.2,0,2.5,0,3.8
		C-218.8,130.1-219.4,130.1-220.1,130.1z M-203.8,139.8c-1.9,0-3.8,0-5.7,0c0-2.6,0-5.1,0-7.6c1.9,0,3.8,0,5.7,0
		C-203.8,134.7-203.8,137.2-203.8,139.8z M-207.5,130.2c0-1.3,0-2.5,0-3.8c0.6,0,1.2,0,1.8,0c0,1.2,0,2.5,0,3.8
		C-206.3,130.2-206.9,130.2-207.5,130.2z M-191.2,139.8c-1.9,0-3.8,0-5.7,0c0-2.5,0-5.1,0-7.6c1.9,0,3.8,0,5.7,0
		C-191.2,134.7-191.2,137.2-191.2,139.8z M-195,130.2c0-1.2,0-2.5,0-3.8c0.6,0,1.2,0,1.8,0c0,1.3,0,2.5,0,3.8
		C-193.8,130.2-194.4,130.2-195,130.2z M-188.3,121.1c0,2.2-1.1,3.3-3.3,3.3c-10,0-20,0-29.9,0c-2.2,0-3.3-1.1-3.3-3.4
		c0-5.6,0-11.2,0-16.9c0-5.7,0-11.3,0-17c0-2.1,1.1-3.3,3.3-3.3c10,0,20,0,30.1,0c2.2,0,3.3,1.1,3.3,3.3
		C-188.3,98.5-188.3,109.8-188.3,121.1z"/>
	<path class="st0" d="M-195.4,85.9c-7.5,0-15,0-22.5,0c-3.2,0-5.2,2-5.2,5.1c0,4.4,0,8.7,0,13.1c0,4.3,0,8.7,0,13
		c0,3.2,2,5.2,5.2,5.2c7.5,0,14.9,0,22.4,0c3.2,0,5.2-2,5.2-5.2c0-8.7,0-17.4,0-26.1C-190.2,87.9-192.2,85.9-195.4,85.9z
		 M-195.1,120.4c-7.7,0-15.3,0-23,0c-1.8,0-3-1.2-3-3c0-4.1,0-8.2,0-12.3c0.9,0,1.7,0,2.5,0c1,0,1.3-0.3,1.3-1.3c0-2.4,0-4.7,0-7.1
		c0-0.9-0.3-1.3-1.3-1.3c-0.8,0-1.7,0-2.6,0c0-0.9,0-1.7,0-2.5c0-0.7,0-1.5,0-2.2c0-1.6,1.2-2.9,2.9-2.9c7.7,0,15.5,0,23.2,0
		c1.6,0,2.8,1.3,2.9,2.9c0,0.3,0,0.5,0,0.9c-0.9,0-1.7,0-2.6,0c-0.9,0-1.3,0.3-1.3,1.3c0,1.7,0,3.5,0,5.2c0,0.9,0.3,1.2,1.2,1.2
		c0.9,0,1.7,0,2.6,0c0,3.2,0,6.4,0,9.6c-0.4,0-0.7,0-1.1,0c-3,0-2.8-0.2-2.8,2.8c0,1.2,0,2.4,0,3.6c0,1.1,0.3,1.3,1.4,1.3
		c0.8,0,1.5,0,2.3,0c0,0,0.1,0,0.1,0C-191.8,118.7-193.1,120.4-195.1,120.4z M-221.1,103.2c0-1.9,0-3.8,0-5.7c0.6,0,1.2,0,1.9,0
		c0,1.9,0,3.8,0,5.7C-219.8,103.2-220.4,103.2-221.1,103.2z M-192.2,93.6c0,1.3,0,2.5,0,3.8c-0.6,0-1.2,0-1.9,0c0-1.2,0-2.5,0-3.8
		C-193.4,93.6-192.8,93.6-192.2,93.6z M-192.2,110.9c0,1.3,0,2.5,0,3.8c-0.6,0-1.2,0-1.9,0c0-1.3,0-2.5,0-3.8
		C-193.5,110.9-192.9,110.9-192.2,110.9z"/>
	<path class="st0" d="M-205.6,90.6c-0.2-0.4-0.5-0.8-1.1-0.8c-0.5,0-0.8,0.4-1,0.8c-3.1,5.6-6.2,11.1-9.3,16.7
		c-0.6,1.1-0.2,1.8,1.1,1.8c3.1,0,6.1,0,9.2,0c3.1,0,6.2,0,9.3,0c1.3,0,1.7-0.7,1-1.8C-199.4,101.6-202.5,96.1-205.6,90.6z
		 M-214.6,107c2.7-4.8,5.3-9.5,8-14.4c2.7,4.8,5.3,9.6,8,14.4C-204,107-209.3,107-214.6,107z"/>
	<path class="st0" d="M-200,111.5c-0.2,0.2-0.5,0.3-0.8,0.3c-3.9,0-7.9,0-11.8,0c-0.2,0-0.5-0.1-0.7-0.3c-0.4-0.4-0.8-0.9-1.3-1.4
		c-0.5,0.5-0.9,1-1.4,1.5c0.6,0.6,1.3,1.3,1.9,1.9c0.2,0.2,0.5,0.3,0.8,0.3c4.4,0,8.8,0,13.1,0c0.3,0,0.6-0.1,0.8-0.2
		c0.7-0.6,1.3-1.3,1.9-2c-0.4-0.4-0.9-0.9-1.3-1.4C-199.1,110.7-199.5,111.1-200,111.5z"/>
	<path class="st0" d="M-200,115.4c-0.2,0.2-0.5,0.3-0.8,0.3c-3.9,0-7.8,0-11.7,0c-0.3,0-0.6-0.2-0.9-0.4c-0.4-0.4-0.8-0.9-1.1-1.3
		c-0.6,0.5-1,0.9-1.5,1.3c0.7,0.7,1.3,1.4,2,2c0.2,0.2,0.5,0.2,0.8,0.2c4.4,0,8.8,0,13.1,0c0.2,0,0.5,0,0.7-0.2
		c0.7-0.7,1.3-1.4,2-2.1c-0.4-0.4-0.8-0.8-1.3-1.4C-199.1,114.5-199.5,115-200,115.4z"/>
	<path class="st0" d="M-207.6,102.2c0.6,0,1.2,0,1.9,0c0-2.3,0-4.5,0-6.7c-0.7,0-1.3,0-1.9,0C-207.6,97.8-207.6,100-207.6,102.2z"/>
	<path class="st0" d="M-207.6,106c0.6,0,1.2,0,1.9,0c0-0.7,0-1.3,0-1.9c-0.6,0-1.2,0-1.9,0C-207.6,104.8-207.6,105.4-207.6,106z"/>
</g>
<path class="st0" d="M645.8,5c-0.1-2.5-2.1-4.6-4.7-4.8c-1.2-0.1-2.4,0.2-3.4,0.9c-1.3,0.9-2,2.2-2.3,3.7c-0.4-0.1-0.8-0.2-1.2-0.3
	c-1-0.1-1.8,0.2-2.5,0.9c-0.7,0.7-1.4,1.5-2.2,2.2c-0.1-0.1-0.2-0.2-0.2-0.2c-1.5-1.5-3-3-4.6-4.5c-0.9-0.9-2.1-0.9-3-0.1
	c-0.4,0.4-0.8,0.8-1.2,1.2c-1.1,1.1-1.1,2.2,0,3.3c3.2,3.2,6.4,6.4,9.6,9.6c0.1,0.1,0.3,0.3,0.4,0.4c-0.3-0.1-0.5-0.2-0.8-0.3
	c-3.1-1.8-6.3-3.5-9.4-5.3c-0.8-0.4-1.6-0.7-2.5-0.5c-2.1,0.4-3.1,2.7-2.1,4.6c1.2,2.2,2.5,4.4,3.7,6.6c0.1,0.2,0.2,0.3,0.3,0.6
	c-0.3-0.2-0.5-0.2-0.6-0.3c-2.1-1.2-4.1-2.4-6.2-3.5c-0.5-0.3-1.1-0.5-1.7-0.6c-1.2-0.1-2.1,0.4-2.8,1.4c-0.7,1-0.7,2.1-0.1,3.2
	c1.2,2.2,2.5,4.4,3.7,6.6c0.1,0.2,0.2,0.4,0.3,0.7c-0.3-0.2-0.5-0.2-0.6-0.3c-2.1-1.2-4.2-2.4-6.3-3.5c-0.7-0.4-1.4-0.7-2.3-0.6
	c-2.2,0.3-3.4,2.6-2.3,4.6c1.2,2.2,2.5,4.4,3.7,6.6c0.1,0.2,0.2,0.4,0.3,0.7c-0.3-0.2-0.5-0.3-0.7-0.4c-2.2-1.2-4.3-2.4-6.5-3.7
	c-1.1-0.6-2.2-0.6-3.3,0c-0.5,0.3-0.9,0.7-1.5,1.1c-1.1-0.7-1.8-0.6-3,0.5c-0.4,0.4-0.7,0.7-1.1,1.1c-1,1-1,2.1,0,3.1
	c1,1,2,2,2.9,2.9c0.4,0.4,0.9,0.8,1.3,1.3c-0.8,0.8-1.5,1.5-2.3,2.2c-0.6,0.6-1,1.3-0.9,2.1c0,0.5,0.2,1.1,0.3,1.6
	c-2.4,0.5-3.8,1.8-4.4,3.9c-0.1,0.2-0.1,0.4-0.2,0.6c0,0.5,0,0.9,0,1.4c0.1,0.3,0.2,0.6,0.3,0.9c0.7,1.8,1.9,2.9,3.8,3.4
	c0.1,0,0.3,0.1,0.4,0.1c0.5,0,1,0,1.5,0c1-0.3,2-0.6,2.7-1.4c0.9-0.9,1.5-2,1.6-3.3c1.6,0.7,2.9,0.4,4-0.9c0.6-0.7,1.2-1.3,2-2
	c0.2,0.3,0.3,0.4,0.4,0.6c1.2,1.3,2.5,2.5,3.8,3.8c1,0.9,2.1,0.9,3,0c0.4-0.4,0.8-0.8,1.2-1.2c1.1-1.1,1.1-2.2,0-3.3
	c-3-3-6.1-6.1-9.1-9.1c-0.1-0.1-0.3-0.3-0.4-0.4c0.2,0,0.4,0.1,0.6,0.2c3.3,1.9,6.6,3.7,9.9,5.6c1.4,0.8,3,0.5,4-0.6
	c0.9-1,1-2.4,0.2-3.7c-1.2-2.2-2.4-4.3-3.7-6.5c-0.1-0.1-0.2-0.3-0.3-0.6c2.5,1.4,4.8,2.7,7.1,4c0.7,0.4,1.5,0.6,2.3,0.4
	c2.1-0.5,3.1-2.7,2-4.7c-1.2-2.2-2.5-4.4-3.7-6.6c-0.1-0.1-0.1-0.3-0.3-0.6c0.3,0.2,0.5,0.3,0.7,0.4c2.2,1.2,4.3,2.5,6.5,3.7
	c1.3,0.7,2.6,0.6,3.6-0.4c1.1-1,1.3-2.6,0.5-4c-1.2-2.1-2.4-4.3-3.6-6.4c-0.1-0.2-0.2-0.4-0.3-0.7c0.3,0.1,0.5,0.2,0.6,0.3
	c2.2,1.2,4.3,2.4,6.5,3.7c1.1,0.6,2.2,0.7,3.3,0c0.5-0.3,0.9-0.9,1.4-1.4c0.8,0.3,1.6,0.2,2.2-0.4c0.5-0.5,1-1,1.5-1.5
	c0.8-0.8,0.8-2,0-2.8c-0.5-0.5-1-1-1.5-1.5c-0.8-0.8-1.5-1.5-2.4-2.4c0.7-0.6,1.2-1.2,1.9-1.8c1.3-1.2,1.8-2.5,1-4.1
	C644.2,9.7,645.9,7.7,645.8,5z M591.1,58c-1.8,0-3.2-1.4-3.2-3.2c0-1.7,1.4-3.2,3.1-3.2c1.8,0,3.2,1.4,3.2,3.2
	C594.3,56.6,592.9,57.9,591.1,58z M598.4,53.5c-0.4,0.4-0.9,0.4-1.3,0c-1.5-1.5-3.1-3-4.6-4.6c-0.4-0.4-0.4-1,0.1-1.5
	c0.7-0.7,1.5-1.5,2.2-2.2c0.2,0.1,0.3,0.2,0.4,0.3c1.9,1.9,3.7,3.7,5.6,5.6C599.9,51.9,599.2,52.7,598.4,53.5z M609.4,54
	c-0.4,0.4-0.9,0.9-1.4,1.4c-5.8-5.8-11.6-11.6-17.5-17.5c0.5-0.5,1-1,1.4-1.4C597.7,42.3,603.6,48.2,609.4,54z M613.5,44.8
	c0.5,0.3,0.9,0.5,0.9,1.1c0,0.9-0.9,1.3-1.7,0.9c-1.6-0.9-3.2-1.8-4.8-2.7c-4-2.2-7.9-4.5-11.9-6.7c-0.7-0.4-1-1-0.6-1.6
	c0.3-0.5,1-0.7,1.6-0.3c1.9,1.1,3.9,2.2,5.8,3.3C606.3,40.8,609.9,42.8,613.5,44.8z M612,41.6c0,0,0,0,0,0.1
	c-1.2-0.7-2.3-1.3-3.3-1.9c-0.2-0.1-0.3-0.3-0.4-0.4c-1.8-3.3-3.7-6.5-5.5-9.8c-0.3-0.4-0.4-0.9,0-1.3c0.2-0.2,0.7-0.4,1-0.4
	c0.3,0,0.7,0.3,0.8,0.5C607.1,32.8,609.5,37.2,612,41.6z M620.9,37.5c0.3,0.2,0.7,0.6,0.7,0.9c0.1,0.3-0.1,0.8-0.4,1
	c-0.3,0.2-0.8,0.3-1.1,0.1c-0.6-0.2-1.2-0.6-1.7-0.9c-2.7-1.5-5.4-3-8.1-4.6c-0.3-0.2-0.5-0.4-0.7-0.7c-0.6-1-1.2-2-1.8-3.2
	c0.3,0.1,0.4,0.2,0.5,0.3C612.6,32.7,616.8,35.1,620.9,37.5z M619.3,34c0,0.1,0.1,0.1,0.2,0.3c-1.2-0.7-2.4-1.3-3.4-2
	c-0.2-0.1-0.3-0.3-0.4-0.4c-1.8-3.2-3.7-6.5-5.5-9.8c-0.4-0.7-0.2-1.3,0.3-1.6c0.6-0.3,1.2-0.1,1.6,0.5
	C614.5,25.4,616.9,29.7,619.3,34z M628.5,30.2c0.4,0.3,0.7,0.6,0.6,1.2c-0.1,0.5-0.4,0.8-0.8,0.9c-0.3,0-0.6,0-0.8-0.1
	c-3.3-1.8-6.6-3.7-9.9-5.6c-0.1,0-0.2-0.1-0.2-0.2c-0.7-1.1-1.3-2.3-2-3.4c0,0,0.1-0.1,0.1-0.1c3.2,1.8,6.3,3.6,9.5,5.3
	C626.1,28.8,627.3,29.5,628.5,30.2z M626.8,26.8C626.8,26.8,626.8,26.9,626.8,26.8c-1.2-0.6-2.4-1.2-3.5-1.9
	c-0.1-0.1-0.2-0.2-0.2-0.3c-1.9-3.3-3.7-6.6-5.6-9.9c-0.2-0.3-0.2-0.9,0-1.2c0.1-0.3,0.6-0.4,1-0.5c0.5-0.1,0.8,0.3,1,0.7
	c1.9,3.3,3.7,6.6,5.6,9.9C625.7,24.7,626.3,25.8,626.8,26.8z M636.4,24.3c-0.3,0.6-1,0.7-1.6,0.3c-3.3-1.8-6.5-3.7-9.8-5.5
	c-0.1-0.1-0.3-0.2-0.4-0.3c-0.6-1.1-1.3-2.3-1.9-3.4c0,0,0.1-0.1,0.1-0.1c3.4,1.9,6.9,3.9,10.3,5.8c0.9,0.5,1.8,1,2.7,1.5
	C636.5,23.1,636.7,23.7,636.4,24.3z M640.7,21.7c-0.4,0.4-0.9,0.9-1.4,1.4c-5.8-5.8-11.7-11.7-17.5-17.5c0.4-0.4,0.9-0.9,1.3-1.4
	C629,10,634.8,15.9,640.7,21.7z M639.2,12.7c-0.7,0.7-1.4,1.5-2.2,2.3c-1.9-1.9-3.8-3.8-5.7-5.7c-0.1-0.1-0.2-0.2-0.3-0.3
	c0.8-0.8,1.5-1.6,2.3-2.4c0.4-0.4,0.9-0.3,1.3,0c1.5,1.5,3.1,3,4.6,4.6C639.7,11.7,639.6,12.3,639.2,12.7z M640.6,8.4
	c-1.8,0-3.2-1.4-3.2-3.1c0-1.8,1.4-3.2,3.2-3.2c1.7,0,3.2,1.4,3.2,3.1C643.8,7,642.4,8.4,640.6,8.4z"/>
<g>
	<path class="st0" d="M-243.3,109.3C-243.4,109.3-243.4,109.2-243.3,109.3c-0.1-0.1-0.1-0.2,0-0.2c4.1-7.4,3.3-16.1-1.9-22.7
		c-0.1-0.2-0.2-0.4-0.2-0.7c0-1.2,0-2.3,0-3.5c0-1.3,0-2.7,0-4c0-2-1-3.6-2.8-4.6c-0.3-0.2-0.6-0.3-0.9-0.4c0,0-0.1,0-0.1,0v-0.4
		c0-3.3-2.2-5.5-5.6-5.5l-2.1,0c-1.3,0-2.6,0-3.8,0c-3.2,0-5.8,1.3-7.8,3.9c-0.8,1-1.5,2-2.3,3.1c-1,1.4-2.1,2.7-3.1,4.1
		c-0.2,0.3-0.3,0.4-0.7,0.3c-7.1,0-14.2,0-21.3,0l-2.9,0c-1.2,0-1.7,0.5-1.7,1.7c0,3,0,6,0,9c0,1,0.4,1.5,1.3,1.7l15,2.9
		c0.9,0.2,1.7,0.3,2.6,0.5l0.6,0.1c-1.2,5.1-0.4,10,2.1,14.6c-0.3,0.3-0.6,0.6-0.9,0.9l-0.1,0.1c-2.2,2.3-2.2,5.6-0.1,7.8
		c1.1,1.1,2.4,1.6,3.8,1.6c1.4,0,2.8-0.6,3.9-1.7c0.3-0.3,0.6-0.6,0.9-0.9l0.1-0.1l0.3,0.2c2.9,1.6,6.1,2.4,9.3,2.5
		c3.6,0.1,7.1-0.8,10.3-2.6c0.1-0.1,0.1-0.1,0.2-0.1c0,0,0,0,0.1,0.1c0.3,0.4,0.7,0.7,1.2,1.2c2.2,2,5.4,1.9,7.5-0.2
		c2.1-2,2.2-5.4,0.2-7.5C-242.6,110-242.9,109.7-243.3,109.3z M-294.9,81.7V89l-0.2,0c-0.9-0.2-1.7-0.3-2.6-0.5c0-2,0-4,0-6v-0.8
		H-294.9z M-275.5,116.7c-1.1,0.2-2.2-0.2-2.8-1.2c-0.6-1-0.5-2.1,0.2-3c0.2-0.3,0.5-0.5,0.8-0.8l3.6,3.6c0,0,0,0,0,0
		C-274.3,116-274.8,116.5-275.5,116.7z M-261.2,81.7C-261.2,81.7-261.2,81.7-261.2,81.7c4.7,0,9.1,1.8,12.4,5.2
		c3.3,3.3,5.1,7.7,5.1,12.4c0,4.7-1.8,9.1-5.2,12.4c-3.3,3.3-7.7,5.1-12.4,5.1c0,0,0,0,0,0c-4.7,0-9.1-1.8-12.4-5.2
		c-3.3-3.3-5.1-7.7-5.1-12.4C-278.7,89.5-270.8,81.7-261.2,81.7z M-258.8,73.1V76l3.2,0c1.6,0,3.1,0,4.7,0c1.5,0,2.5,1,2.5,2.5
		c0,1.3,0,2.7,0,4v0.8l-0.1-0.1c-3.7-2.9-7.9-4.4-12.5-4.4c-1.3,0-2.6,0-3.9,0c-1,0-1.9,0-2.9,0l-2.8,0l2.1-2.8
		c0.8-1,1.5-2.1,2.3-3.1c1.3-1.8,3-2.6,5.2-2.6c0,0,0,0,0,0c0.6,0,1.2,0,1.8,0c1.4,0,2.7,0,4.1,0c1-0.1,1.8,0.2,2.3,0.8
		c0.5,0.5,0.7,1.2,0.6,2H-258.8z M-276.3,85.5c-1.7,1.8-3,4-3.9,6.3l-11.8-2.2v-7.9h20.3C-273.4,82.8-274.9,84-276.3,85.5z
		 M-245,111.7C-245,111.8-245,111.8-245,111.7c0.6,0.6,1.1,1,1.3,1.8c0.3,1.1-0.2,2.2-1.1,2.8c-1,0.6-2.2,0.5-3-0.2
		c-0.3-0.2-0.5-0.5-0.8-0.8L-245,111.7z"/>
	<path class="st0" d="M-299.1,67.4c2.1,0,3.3,1.8,3.3,3.3c0,0.4,0.1,0.8,0.4,1c0.3,0.3,0.6,0.4,1,0.4c0,0,0,0,0,0
		c0.8,0,1.3-0.6,1.4-1.4c0.2-2.1,1.3-3.2,3.3-3.3c0.8-0.1,1.4-0.6,1.4-1.4c0-0.8-0.6-1.4-1.4-1.5c-2-0.2-3.1-1.3-3.3-3.3
		c-0.1-0.8-0.7-1.4-1.4-1.4c-0.4,0-0.8,0.1-1,0.4c-0.3,0.3-0.4,0.6-0.4,1c0,1.8-1.5,3.3-3.3,3.3c-0.8,0-1.4,0.6-1.4,1.4
		C-300.6,66.8-300,67.4-299.1,67.4z M-295,66l0.6-0.6l0.6,0.6l-0.6,0.6L-295,66z"/>
	<path class="st0" d="M-280.3,67.4c2.3,0.3,3.1,1.1,3.4,3.5c0.1,0.8,0.7,1.3,1.4,1.3c0,0,0,0,0,0c0.8,0,1.3-0.6,1.4-1.5
		c0.1-1.8,1.4-3.1,3.2-3.2c0.9-0.1,1.5-0.6,1.5-1.4c0-0.8-0.6-1.4-1.6-1.5c-1.8-0.1-3.1-1.4-3.2-3.2c-0.1-1-0.6-1.6-1.4-1.6
		c0,0,0,0,0,0c-1.1,0-1.4,1.1-1.5,1.5c-0.1,0.6-0.3,1.3-0.7,1.9c-0.5,0.8-1.4,1.3-2.6,1.3c-0.8,0-1.4,0.6-1.5,1.4
		C-281.6,66.7-281.1,67.3-280.3,67.4z M-276,66l0.6-0.6l0.6,0.6l-0.6,0.6L-276,66z"/>
	<path class="st0" d="M-261.2,92.1C-261.2,92.1-261.2,92.1-261.2,92.1c-3.9,0-7.1,3.2-7.1,7.1c0,3.9,3.2,7.1,7.1,7.1
		c3.9,0,7.1-3.2,7.1-7.1c0-1.9-0.7-3.7-2.1-5C-257.5,92.8-259.3,92.1-261.2,92.1z M-256.9,99.2c0,1.1-0.5,2.2-1.3,3
		c-0.8,0.8-1.9,1.2-3,1.2c0,0,0,0,0,0c-1.1,0-2.2-0.5-3-1.3c-0.8-0.8-1.2-1.9-1.2-3c0-2.3,1.9-4.2,4.3-4.2c0,0,0,0,0,0
		c1.1,0,2.2,0.4,3,1.3C-257.4,97-256.9,98.1-256.9,99.2z"/>
	<path class="st0" d="M-267,91.1c4.7-2.8,8.9-2.5,12.5,0.8c3.9,3.6,4.4,8.1,1.5,13.2l-0.2,0.4l2.2,1.6l0.3-0.4
		c3.4-4.3,3.6-12-1.8-17c-5.1-4.6-12.3-4-16.1-0.8l-0.3,0.3l1.5,2.1L-267,91.1z"/>
	<path class="st0" d="M-269.7,108.8c2.6,2.3,5.6,3.3,8.6,3.3c2.9,0,5.6-0.9,7.4-2.5l0.3-0.3l-1.6-2.1l-0.4,0.2
		c-4.7,2.8-8.9,2.5-12.5-0.8c-4-3.6-4.5-8.1-1.5-13.3l0.2-0.4l-2.2-1.6l-0.3,0.4C-274.9,96.1-275.2,103.9-269.7,108.8z"/>
</g>
<g>
	<path class="st0" d="M45.2,49L45.2,49c-0.5-0.2-1-0.1-1.5,0.4c-0.7,0.7-1.4,1.4-2.1,2.1l-1,1c-0.5,0.5-0.8,0.4-1,0.2
		c-1-0.6-1.9-1.3-2.9-2L36,50.1c0.1-0.1,0.3-0.2,0.4-0.3c0.5-0.4,1-0.7,1.5-1.1c1.5-1.2,2.7-2.5,3.7-4c0.2-0.4,0.3-1,0.1-1.4
		c-0.2-0.3-0.8-0.6-1.2-0.6c-0.5,0.1-0.9,0.5-1,0.7c-4.2,5.4-9.6,7.6-16.2,6.6c-4.2-0.7-8-3.1-10.6-6.7C10,39.7,9,35.2,9.8,31
		c0.9-4.5,3.5-8.4,7.3-10.8c3.8-2.4,8.3-3.2,12.8-2.1c0.5,0.1,1,0.1,1.3-0.1c0.3-0.2,0.4-0.4,0.5-0.8c0.2-0.7-0.3-1.3-1.2-1.6
		c-2.2-0.5-4.4-0.7-6.6-0.4c-0.6,0.1-1.2,0.2-1.8,0.3c-0.2,0-0.3,0.1-0.5,0.1l0.2-1c0.2-1.1,0.4-2.2,0.6-3.2c0.1-0.7,0.3-0.9,1-0.9
		c0.5,0,1,0,1.5,0c0.5,0,1,0,1.5,0c0.9,0,1.4-0.5,1.4-1.3c0-0.8-0.5-1.2-1.4-1.2c-1,0-2.1,0-3.1,0c-1.8,0-3,1-3.4,2.8
		c-0.2,1.2-0.5,2.4-0.7,3.7l-0.3,1.7c0,0.3-0.1,0.4-0.1,0.4c0,0-0.1,0-0.4-0.2c-0.6-0.4-1.1-0.8-1.7-1.2c-0.9-0.7-1.9-1.3-2.8-2
		c-1.4-1-3.1-0.8-4.3,0.4c-1.3,1.3-2.6,2.6-3.9,3.9c-1.2,1.3-1.4,2.9-0.4,4.4c0.6,0.9,1.3,1.8,1.9,2.8l1.2,1.7
		c0.2,0.3,0.2,0.4,0.2,0.4c0,0,0,0.1-0.4,0.2c-0.5,0.1-1,0.2-1.5,0.3c-1.1,0.2-2.2,0.4-3.2,0.6C1.6,28,0.5,28.9,0,30.4l0,7l0,0.1
		c0.5,1.6,1.6,2.5,3.5,2.7c1.1,0.2,2.3,0.4,3.4,0.6c0.4,0.1,0.8,0.2,1.3,0.2c0.3,0.1,0.4,0.1,0.4,0.2s0,0.1-0.2,0.4
		c-0.5,0.7-1,1.4-1.4,2c-0.5,0.7-1,1.5-1.6,2.2c-1.1,1.5-1,3.2,0.4,4.5C7,51.7,8.2,53,9.5,54.2c1.3,1.3,2.9,1.4,4.5,0.4
		c1-0.7,2-1.3,2.9-2l1.5-1c0.3-0.2,0.4-0.2,0.4-0.2c0,0,0.1,0,0.2,0.4c0.1,0.4,0.2,0.8,0.2,1.3c0.2,1.1,0.4,2.2,0.6,3.3
		c0.2,1.9,1.1,3,2.8,3.5l7,0l0,0c1.6-0.5,2.5-1.6,2.8-3.4c0.1-1.1,0.4-2.2,0.6-3.3c0.1-0.5,0.2-0.9,0.3-1.4c0.1-0.4,0.2-0.4,0.2-0.4
		c0,0,0.1,0,0.4,0.2c0.6,0.4,1.1,0.8,1.7,1.1c0.9,0.7,1.9,1.3,2.8,2c1.3,0.9,2.9,0.8,3.9-0.1c1.2-1.1,2.3-2.3,3.6-3.6
		c0.3-0.3,0.4-0.7,0.3-1.1C45.9,49.5,45.6,49.2,45.2,49z M23.1,57.4c-0.2,0-0.7-0.1-0.8-0.6c-0.2-1.2-0.4-2.4-0.6-3.6l-0.1-0.9
		c3,0.7,5.8,0.7,8.8,0l-0.2,1.1c-0.2,1.2-0.4,2.3-0.6,3.4c-0.1,0.5-0.5,0.6-0.8,0.6C27,57.4,25.2,57.4,23.1,57.4z M7.6,38.4L4,37.7
		c-0.3,0-0.5-0.1-0.8-0.1c-0.5-0.1-0.7-0.4-0.7-0.8c0-1.7,0-3.6,0-5.6c0-0.5,0.2-0.7,0.6-0.8c1.1-0.2,2.2-0.4,3.4-0.6l1-0.2
		C6.9,32.5,6.9,35.4,7.6,38.4z M7.3,47.6c0.6-1,1.3-1.9,2-2.9l0.6-0.9c2.5,3.4,2.7,3.5,6.2,6.2L13.4,52c-0.3,0.2-0.7,0.5-1,0.7
		c-0.4,0.3-0.7,0.2-1.1-0.1c-1.3-1.3-2.6-2.6-3.9-3.9C7.1,48.3,7.1,48,7.3,47.6z M12.3,15.3c1,0.6,1.9,1.3,2.9,2l0.9,0.6
		c-2.6,1.6-4.7,3.7-6.3,6.3l-0.6-0.8c-0.7-1-1.4-2-2-3v0C7,20,7.1,19.7,7.3,19.5c1.3-1.4,2.7-2.7,4.1-4.1c0.1-0.1,0.3-0.2,0.5-0.2
		C12,15.1,12.2,15.2,12.3,15.3z"/>
	<path class="st0" d="M57.6-0.1c-8.6,0-17.2,0-25.9,0c-1.5,0-2.4,0.9-2.4,2.4c0,2.9,0,5.9,0,8.8c0,1.3,0.8,2.2,2.1,2.4
		c0.3,0,0.4,0.1,0.5,0.4c0.7,1.7,1.3,3.3,2,5l0.9,2.4c-1,0.4-1.5,1.1-1.5,2.1c0,1.2,0,2.2,0,3c0.1,1.3,1,2.2,2.4,2.2
		c0.2,0,0.4,0,0.6,0h0l0,1.1c0,0.5,0,1.1,0,1.6c0,1.4,0.9,2.2,2.3,2.3c0.2,0,0.4,0,0.6,0l0.1,0l0,1.8c0,1.2,0,2.5,0,3.7
		c0,0.6,0.2,1.1,0.7,1.5c0.5,0.4,1,0.8,1.6,1.2c0.5,0.4,0.9,0.7,1.4,1.1c0.2,0.2,0.3,0.3,0.3,0.6c0,0.7,0,1.5,0,2.2l0,0.6
		c0,0.9,0.5,1.5,1.2,1.5c0,0,0,0,0,0c0.3,0,0.6-0.1,0.8-0.3c0.3-0.3,0.4-0.7,0.4-1.2c0-0.3,0-0.7,0-1c0-0.6,0-1.2,0-1.8
		c0-0.2,0.1-0.5,0.3-0.6c0.9-0.7,1.9-1.5,3-2.2c0.6-0.4,0.8-0.9,0.8-1.6c0-1.2,0-2.4,0-3.6l0-1.9c0.1,0,0.3,0,0.4,0
		c1.9,0,2.7-0.8,2.7-2.7v-2.3H53c0.2,0,0.4,0,0.6,0c1.5,0,2.4-0.9,2.4-2.4c0-0.3,0-0.6,0-0.9c0-0.5,0-1,0-1.5
		c0.1-1.3-0.4-2.2-1.5-2.7L55,20c0.8-2.1,1.7-4.2,2.5-6.3c0,0,0.2-0.1,0.3-0.2c1.4-0.2,2.2-1.1,2.2-2.5c0-2.9,0-5.8,0-8.7
		C60,0.9,59.1-0.1,57.6-0.1z M47.4,34.7c0,1.4,0,2.7,0,4c0,0.1-0.1,0.2-0.2,0.3c-0.4,0.3-0.8,0.6-1.2,0.9c-0.4,0.3-0.8,0.6-1.2,0.9
		c-0.1,0.1-0.2,0.1-0.4,0c-0.4-0.3-0.8-0.6-1.2-0.9c-0.4-0.3-0.8-0.6-1.2-0.9c-0.1-0.1-0.2-0.2-0.2-0.3c0-1.4,0-2.8,0-4.2l0-0.9h5.6
		L47.4,34.7z M57.5,10.7c0,0.2,0,0.3,0,0.3c0,0-0.1,0-0.3,0c0,0,0,0,0,0c-6.5,0-12.9,0-19.4,0L32,11c-0.1,0-0.1,0-0.2,0V2.5h25.7
		c0,0.1,0,0.2,0,0.2v2.5C57.5,7,57.5,8.9,57.5,10.7z M43.4,27.4c0,0.7,0.6,1.2,1.3,1.2c0.9,0,1.8,0,2.8,0l2.9,0v2.5H38.9v-2.5l0.3,0
		c0.4,0,0.8,0,1.2,0c0.9,0,1.4-0.5,1.5-1.2c0-0.3-0.1-0.6-0.3-0.9c-0.3-0.3-0.7-0.4-1.1-0.4c-1,0-1.9,0-2.9,0l-1.7,0v-2.5h17.6v2.5
		l-8.2,0l-0.1,0c-0.1,0-0.3,0-0.4,0C43.9,26.2,43.4,26.7,43.4,27.4z M51.5,21.1c-2.5,0-4.9,0-7.4,0c-2.1,0-4.3,0-6.4,0
		c-0.3,0-0.3,0-0.4-0.2c-0.7-1.8-1.4-3.5-2.1-5.3l-0.8-2.1h20.4c0,0.1,0,0.1-0.1,0.2l-0.8,2.1c-0.6,1.6-1.3,3.3-1.9,4.9
		C51.9,21.1,51.8,21.1,51.5,21.1z"/>
	<path class="st0" d="M25.9,40.8C26,40.8,26,40.8,25.9,40.8c1.8,0,3.5-0.7,4.8-2c1.3-1.3,2-3,2-4.8c0-3.7-3-6.8-6.8-6.8
		c-1.8,0-3.5,0.7-4.8,1.9c-1.3,1.3-2,3-2.1,4.8C19.1,37.7,22.2,40.7,25.9,40.8z M26,29.7C26,29.7,26,29.7,26,29.7
		c1.2,0,2.2,0.4,3,1.3c0.8,0.8,1.2,1.9,1.2,3.1c0,1.2-0.5,2.2-1.3,3c-0.8,0.8-1.9,1.2-3,1.2c-2.3,0-4.3-2-4.3-4.3
		c0-1.1,0.5-2.2,1.3-3C23.7,30.1,24.8,29.7,26,29.7z"/>
	<path class="st0" d="M18.7,22.3c-1.4,0.7-2.6,1.7-3.6,2.8c-1.9,2.3-2.9,5.1-3.1,8.9c0,0,0,0.2,0,0.4c0,0.8,0.5,1.3,1.2,1.3
		c0,0,0,0,0,0c0.7,0,1.2-0.5,1.2-1.2c0-0.2,0-0.4,0-0.7c0-0.2,0-0.3,0-0.5c0.3-4.2,2-7.1,5.3-8.9c0.3-0.2,0.6-0.5,0.7-0.8
		c0.1-0.3,0-0.7-0.1-1v0C20.1,22.1,19.4,22,18.7,22.3z"/>
	<path class="st0" d="M22.4,22.6C22.4,22.6,22.4,22.6,22.4,22.6c0.4,0,0.7-0.1,0.9-0.4c0.2-0.2,0.4-0.6,0.4-0.9
		c0-0.7-0.6-1.2-1.2-1.2c0,0,0,0,0,0c-0.7,0-1.2,0.6-1.2,1.2C21.2,22,21.7,22.6,22.4,22.6z"/>
	<path class="st0" d="M54.6,4c-1.6,0-3.3,0-4.9,0l-4,0c-1.6,0-3.3,0-4.9,0c0,0,0,0,0,0c-0.7,0-1.1,0.3-1.3,0.8
		c-0.1,0.4-0.1,0.8,0.1,1.1c0.2,0.3,0.6,0.5,1.1,0.5c2.3,0,4.6,0,6.8,0c2.4,0,4.8,0,7.2,0c0.4,0,0.7-0.1,0.9-0.4
		c0.2-0.2,0.3-0.6,0.3-0.9C55.9,4.5,55.4,4,54.6,4z"/>
	<path class="st0" d="M36.6,4c-0.7,0-1.4,0-2.2,0c-0.7,0-1.2,0.6-1.2,1.2c0,0.7,0.5,1.2,1.2,1.2c0.1,0,0.3,0,0.4,0
		c0.1,0,0.2,0,0.3,0l0.5,0c0.1,0,0.1,0,0.2,0c0.3,0,0.6,0,0.8,0c0.7-0.1,1.1-0.6,1.1-1.3C37.8,4.5,37.3,4,36.6,4z"/>
</g>
</svg>
