<?xml version="1.0" encoding="utf-8"?>
<!-- Generator: Adobe Illustrator 26.0.0, SVG Export Plug-In . SVG Version: 6.00 Build 0)  -->
<svg version="1.1" id="Layer_1" xmlns="http://www.w3.org/2000/svg" xmlns:xlink="http://www.w3.org/1999/xlink" x="0px" y="0px"
	 viewBox="0 0 60 60" style="enable-background:new 0 0 60 60;" xml:space="preserve">
<style type="text/css">
	.st0{fill:#FFFFFF;}
</style>
<g>
	<path class="st0" d="M0.1-54.7c0.5-1.1,1.5-0.9,2.5-0.9c0-0.7,0-1.4,0-2.1c0-1.1,0.5-1.6,1.6-1.6c1,0,2.1,0,3.1,0
		c0.3,0,0.5-0.1,0.6-0.4c1.3-3.5,5.4-4.4,8.1-2c0.1,0.1,0.2,0.2,0.3,0.2c3.2-2.2,4.6-2.2,7.5,0c1-1,2.2-1.7,3.7-1.7s2.7,0.6,3.7,1.6
		c3.2-2.2,4.7-2.2,7.6,0c1-1,2.2-1.7,3.7-1.7s2.7,0.6,3.6,1.6c0.8-0.5,1.5-1,2.3-1.3c3-1.1,6.3,1.1,6.5,4.3c0.1,0.9,0,1.9,0,2.9
		c0.9,0,1.7,0,2.5,0c0-0.3,0-0.5,0-0.7c0-2.9,0-5.7,0-8.6c0-0.2,0-0.4,0-0.6c0.1-0.8,0.6-1.3,1.3-1.2c0.7,0,1.2,0.6,1.2,1.3
		c0,2.6,0,5.1,0,7.7c0,1.1,0,2.1,0,3.2c0,1-0.5,1.5-1.5,1.5c-1.1,0-2.2,0-3.4,0c0,0.3,0,0.5,0,0.8c0,8.7,0,17.4,0,26.2
		c0,0.9-0.1,1.8-0.5,2.7c-0.7,1.5-1.9,2.4-3.4,2.7c-0.1,0-0.2,0.1-0.3,0.1c-0.5,0-1,0-1.5,0c-1.1-0.3-2.2-0.8-3-1.7
		c-0.8,1-1.8,1.3-2.9,1.7c-0.5,0-1.1,0-1.6,0c-1.1-0.3-2.2-0.8-2.9-1.6c-0.5,0.4-0.9,0.7-1.4,1s-1,0.4-1.5,0.6c-0.5,0-1.1,0-1.6,0
		c-1.1-0.3-2.2-0.8-3-1.7c-0.8,0.9-1.8,1.3-2.9,1.7c-0.5,0-1.1,0-1.6,0c-1.1-0.3-2.2-0.8-3-1.7c-0.8,0.9-1.8,1.3-2.9,1.7
		c-0.5,0-1.1,0-1.6,0c-1.1-0.3-2.2-0.8-3-1.7c-0.8,0.9-1.8,1.3-2.9,1.7c-0.5,0-1.1,0-1.6,0l-0.1-0.1c-2.6-0.5-4.2-2.8-4.2-5.5
		c0.1-7.5,0-15,0-22.4c0-0.2,0-0.5,0-0.7c-1.2,0-2.3,0-3.4,0S2.6-49.9,2.6-51c0-0.7,0-1.4,0-2.1c-1,0-2,0.2-2.5-0.9
		C0.1-54.2,0.1-54.5,0.1-54.7z M15.1-41.8c0-5.3,0-10.5,0-15.8c0-0.4,0-0.8-0.1-1.2c-0.3-1.1-1.3-1.8-2.4-1.8s-2.1,0.7-2.4,1.8
		c-0.1,0.4-0.1,0.8-0.1,1.2c0,10.5,0,20.9,0,31.4c0,0.3,0,0.6,0.1,0.9c0.1,1,1,1.9,2,2c1.7,0.2,2.9-0.9,2.9-2.7
		C15.1-31.2,15.1-36.5,15.1-41.8z M17.6-41.9c0,5.2,0,10.4,0,15.6c0,0.3,0,0.6,0,0.9c0.1,0.8,0.5,1.4,1.1,1.8
		c0.8,0.5,1.7,0.5,2.5,0.1c0.9-0.5,1.3-1.3,1.3-2.3c0-10.7,0-21.4,0-32.1c0-0.3,0-0.5-0.1-0.8c-0.3-1-0.9-1.6-1.9-1.8
		c-1-0.2-1.8,0.1-2.4,0.9c-0.5,0.6-0.5,1.3-0.5,2C17.6-52.4,17.6-47.1,17.6-41.9z M25.1-41.9c0,5.2,0,10.4,0,15.6c0,0.3,0,0.6,0,0.9
		c0.1,0.8,0.5,1.4,1.1,1.8c0.8,0.5,1.7,0.5,2.5,0.1c0.9-0.5,1.3-1.3,1.3-2.3c0-10.7,0-21.4,0-32.1c0-0.3,0-0.5-0.1-0.8
		c-0.3-1-0.9-1.6-1.9-1.8c-1-0.2-1.8,0.1-2.4,0.9c-0.5,0.6-0.5,1.3-0.5,2C25.1-52.4,25.1-47.1,25.1-41.9z M37.6-41.9
		c0-4.7,0-9.5,0-14.2c0-0.7,0-1.3,0-2c-0.1-1.8-1.8-3-3.4-2.3c-1.2,0.5-1.6,1.4-1.6,2.6c0,10.6,0,21.2,0,31.9c0,0.3,0,0.5,0.1,0.8
		c0.2,1,1,1.9,2,2c1.7,0.2,2.9-0.9,2.9-2.7C37.6-31.2,37.6-36.6,37.6-41.9z M45.1-41.8c0-5.3,0-10.5,0-15.8c0-0.3,0-0.7-0.1-1
		c-0.2-1.1-1.2-1.9-2.3-1.9c-1.2,0-2.2,0.7-2.5,1.8c-0.1,0.4-0.1,0.8-0.1,1.3c0,10.5,0,20.9,0,31.4c0,0.3,0,0.6,0.1,0.9
		c0.1,1.1,1,1.9,2.1,2c1.6,0.2,2.8-0.9,2.8-2.7C45.1-31.2,45.1-36.5,45.1-41.8z M47.6-41.8c0,5.2,0,10.4,0,15.6c0,0.3,0,0.6,0,0.9
		c0.1,0.8,0.5,1.5,1.2,1.9c1.7,1,3.7-0.3,3.7-2.4c0-10.7,0-21.4,0-32c0-0.3,0-0.6-0.1-0.9c-0.3-1-0.9-1.6-2-1.8
		c-1-0.2-1.8,0.2-2.4,1c-0.4,0.6-0.5,1.3-0.5,1.9C47.6-52.4,47.6-47.1,47.6-41.8z M7.6-51.9c0-1.7,0-3.3,0-4.9c-0.8,0-1.6,0-2.4,0
		c0,1.7,0,3.3,0,4.9C6-51.9,6.8-51.9,7.6-51.9z"/>
	<path class="st0" d="M33.8-76c0,1.3-0.4,2.4-1.2,3.4c-1.4,1.6-1.3,3.2-0.3,4.9c0.4,0.7,0.4,1.4-0.1,1.8c-0.6,0.5-1.4,0.4-1.8-0.2
		c-1.6-2.3-2.1-5.2-0.1-7.6c1.3-1.5,1.1-3.1,0.3-4.5c-0.1-0.2-0.2-0.3-0.3-0.5c-0.3-0.6-0.1-1.3,0.5-1.7c0.6-0.3,1.3-0.2,1.7,0.4
		C33.2-78.8,33.7-77.5,33.8-76z"/>
	<path class="st0" d="M43.4-72.3c0,0.9-0.3,1.7-0.9,2.4c-0.7,0.8-0.7,1.2-0.2,2.2c0.2,0.4,0.3,0.8,0.3,1.2c0,0.5-0.4,0.8-0.9,0.9
		s-0.9,0-1.2-0.4c-1.2-1.5-1.6-3.6-0.2-5.3c0.8-0.9,0.8-1.2,0.2-2.2c-0.2-0.3-0.3-0.7-0.3-1c0-0.5,0.3-0.9,0.8-1
		c0.5-0.2,1,0,1.4,0.4C43-74.3,43.4-73.4,43.4-72.3z"/>
	<path class="st0" d="M23.4-72c0,0.6-0.3,1.4-0.9,2c-0.7,0.9-0.8,1.3-0.2,2.2c0.1,0.2,0.3,0.4,0.3,0.7c0.1,0.5-0.2,1.1-0.7,1.3
		c-0.5,0.3-1.1,0.2-1.5-0.2c-1.1-1.4-1.7-3.5-0.2-5.3c0.8-0.9,0.8-1.2,0.2-2.2c-0.3-0.4-0.4-0.9-0.2-1.4c0.4-0.9,1.5-1,2.2-0.2
		C23-74.4,23.4-73.2,23.4-72z"/>
</g>
<g>
	<path class="st0" d="M176.1-58.5c0,0.6,0.1,1.3,0,1.8c-0.2,0.8,0.1,1.2,0.8,1.6c2.3,1.4,4.5,2.9,6.8,4.4c0.9,0.6,1,1,0.7,2
		c-1.4,4.2-3.6,8-6.6,11.3c-0.6,0.7-1.1,0.8-2,0.3c-2.6-1.3-5.2-2.6-7.8-4c-0.4-0.2-0.6-0.2-1,0c-4.1,2.8-8.7,4.1-13.6,3.8
		c-4-0.2-7.7-1.5-11-3.8c-0.4-0.3-0.7-0.3-1.1,0c-2.6,1.3-5.2,2.6-7.7,4c-0.8,0.4-1.3,0.3-2-0.3c-2.9-3.3-5.2-7-6.6-11.2
		c-0.3-1.1-0.2-1.4,0.7-2.1c2.4-1.5,4.7-3.1,7.1-4.6c0.4-0.2,0.5-0.4,0.5-0.9c-0.6-5.7,0.8-10.9,4.3-15.5c2.2-2.9,4.9-5,8.2-6.5
		c0.2-0.1,0.4-0.4,0.4-0.7c0.2-2.8,0.3-5.6,0.4-8.5c0-1.3,0.3-1.6,1.6-1.9c4.2-0.8,8.4-0.8,12.7,0c1.2,0.2,1.5,0.6,1.5,1.8
		c0.1,2.8,0.3,5.6,0.4,8.5c0,0.4,0.1,0.6,0.5,0.8c7,3.3,11.1,8.9,12.4,16.5c0.1,0.5,0.1,1,0.1,1.5C176.2-59.6,176.2-59.1,176.1-58.5
		L176.1-58.5z M133-39.6c2.7-1.4,5.4-2.7,8.1-4.2c0.7-0.4,1.3-0.3,2,0.2c6.6,5.1,15.6,5.3,22.3,0.6c2-1.4,1.6-1.4,3.9-0.2
		c2.3,1.2,4.6,2.4,6.9,3.5c0.1,0,0.1,0,0.2-0.1c2.3-2.6,4-5.5,5.2-8.7c0-0.1-0.1-0.6-0.3-0.7c-2.3-1.5-4.7-3.1-7.1-4.6
		c-0.7-0.4-0.9-1-0.8-1.9c0.6-3.6,0.1-7.1-1.3-10.4c-2.1-4.8-5.6-8.2-10.5-10.2c-0.7-0.3-1.1-0.7-1.1-1.5c0-0.9-0.1-1.8-0.1-2.7
		c-0.1-2.1-0.2-4.2-0.3-6.4c-3.6-0.6-7.1-0.7-10.7,0c-0.1,3.1-0.3,6.1-0.5,9.1c0,0.7-0.3,1.2-1,1.5c-3.3,1.3-6.1,3.3-8.2,6.2
		c-3.2,4.2-4.4,8.9-3.7,14.2c0.1,1.1-0.1,1.7-1,2.3c-2.3,1.4-4.5,2.9-6.8,4.4c-0.2,0.1-0.4,0.5-0.4,0.7
		C128.9-45.1,130.7-42.2,133-39.6z"/>
	<path class="st0" d="M132.2-47.3c0.8,1.2,1.6,2.4,2.3,3.6c0.2,0.4,0.4,0.9,0.3,1.3c-0.2,1-1.5,1.4-2.1,0.5
		c-1.2-1.8-2.3-3.7-3.3-5.7c-0.3-0.5,0.1-1.1,0.6-1.5c2.2-1.4,4.4-2.9,6.7-4.3c0.6-0.3,0.7-0.7,0.5-1.4c-1-4.8-0.2-9.3,2.4-13.4
		c2.2-3.4,5.2-5.8,9-7.1c1-0.3,1.3-0.8,1.3-1.8c0-2.4,0.2-4.8,0.3-7.2c0-1.2,0.3-1.6,1.5-1.7c1.8,0,3.7-0.1,5.6,0
		c1.1,0,1.5,0.5,1.5,1.7c0.1,2.6,0.2,5.3,0.4,7.9c0,0.5,0.2,0.7,0.7,0.9c3.5,1.1,6.4,3.1,8.6,6.1c0.1,0.2,0.2,0.3,0.4,0.5
		c0.4,0.7,0.4,1.4-0.2,1.8c-0.6,0.4-1.3,0.3-1.9-0.3c-1.3-1.7-2.8-3.2-4.7-4.3c-1.3-0.7-2.8-1.3-4.2-1.8c-0.8-0.3-1.2-0.8-1.2-1.7
		c-0.1-2.7-0.3-5.5-0.4-8.3c-1.1,0-2.3,0-3.5,0c-0.1,2.1-0.2,4.2-0.3,6.3c0,0.7-0.1,1.4-0.1,2.1c0,0.8-0.4,1.3-1.2,1.6
		c-1.5,0.6-3.2,1.2-4.6,2c-5.3,3.1-8.1,9.5-7,15.5c0.1,0.7,0.2,1.5,0.4,2.2c0.2,0.8-0.1,1.3-0.8,1.8c-2.2,1.4-4.4,2.8-6.6,4.2
		C132.5-47.6,132.4-47.5,132.2-47.3z"/>
	<path class="st0" d="M166.5-58.8c0,6.5-5.3,11.9-11.8,11.9s-11.8-5.3-11.9-11.9c0-6.5,5.3-11.8,11.8-11.9
		C161.2-70.6,166.5-65.3,166.5-58.8z M154.7-49.5c5.1,0,9.3-4.1,9.3-9.3s-4.1-9.3-9.3-9.3c-5.1,0-9.3,4.2-9.3,9.3
		C145.4-53.6,149.5-49.5,154.7-49.5z"/>
</g>
<g>
	<path class="st0" d="M-28-73.5c-1.1,0-2.1,0-3.2,0c0-0.2,0-0.3,0-0.5c-0.1-3-2.7-5.6-5.7-5.6c-11.5,0-23,0-34.4,0
		c-2.2,0-3.8,1.1-4.9,2.9c-0.6,1-0.8,2-0.8,3.2c-1.1,0-2.1,0-3.2,0c-1.1,0-1.5,0.4-1.5,1.5c0,1.1,0,2.2,0,3.3c-1.1,0-2.1,0-3.1,0
		c-0.7,0-1.2,0.2-1.6,0.8c0,5.6,0,11.2-0.1,16.8c0.3,0.6,0.8,0.9,1.5,0.8c0.4,0,0.9,0,1.3,0c0.6,0,1.2,0,1.9,0c0,0.6,0,1.2,0,1.8
		c0,0.6,0,1.2,0,1.8c0,0.7,0.4,1.2,1,1.2c0.2,0,0.5,0,0.7,0c1,0,2,0,3,0c0.3,2.9,1.9,4.7,4.6,5.5c0,0.1,0,0.2-0.1,0.3
		c-0.5,1.7-1.1,3.3-1.6,5c-0.4,1.1,0.1,1.8,1.2,1.8c4.9,0,9.8,0,14.8,0c1.1,0,1.6-0.7,1.2-1.7c-0.3-0.9-0.6-1.8-0.9-2.7
		c-0.3-0.9-0.5-1.7-0.8-2.5c3.1,0,6.2,0,9.3,0c-0.6,1.8-1.2,3.5-1.7,5.2c-0.3,1.1,0.1,1.8,1.3,1.8c4.9,0,9.8,0,14.7,0
		c1.2,0,1.7-0.7,1.3-1.8c-0.5-1.4-1-2.9-1.4-4.4c-0.1-0.3-0.2-0.7-0.3-1c1.2-0.4,2.3-1.1,3.1-2c0.8-1,1.2-2.2,1.3-3.4
		c0.1,0,0.1,0,0.2,0c1,0,2,0,3,0c1.1,0,1.5-0.4,1.5-1.5c0-8.3,0-16.6,0-25C-26.5-73.2-26.9-73.5-28-73.5z M-81.7-52.6
		c-0.7,0-1.5,0-2.3,0c0-4.6,0-9.2,0-13.8c0.8,0,1.5,0,2.3,0C-81.7-61.8-81.7-57.2-81.7-52.6z M-77-47.9c-0.8,0-1.5,0-2.3,0
		c0-7.8,0-15.5,0-23.3c0.7,0,1.5,0,2.3,0C-77-63.5-77-55.7-77-47.9z M-65.7-35.2c-1.9,0-3.7,0-5.7,0c0.5-1.6,1-3.1,1.5-4.7
		c1.9,0,3.8,0,5.7,0C-64.7-38.3-65.2-36.8-65.7-35.2z M-63.2-35.2c0.5-1.5,1-3,1.5-4.5c0-0.1,0.2-0.2,0.4-0.2c0.1,0,0.3,0.1,0.3,0.2
		c0.5,1.4,1,2.9,1.5,4.4C-60.8-35.2-62-35.2-63.2-35.2z M-42.5-35.4c0,0.1-0.2,0.2-0.3,0.2c-1.8,0-3.5,0-5.4,0c0.5-1.5,1-3,1.5-4.5
		c0-0.1,0.2-0.2,0.3-0.2c1.8,0,3.5,0,5.4,0C-41.6-38.4-42.1-36.9-42.5-35.4z M-40.1-35.2c0.5-1.4,0.9-2.7,1.4-4.1
		c0-0.1,0-0.3,0.1-0.4c0.1-0.2,0.6-0.1,0.7,0.1c0.5,1.4,1,2.9,1.5,4.4C-37.6-35.2-38.8-35.2-40.1-35.2z M-33.5-46.2c0,2.5-1.4,4-4,4
		c-5.5,0-11.1,0-16.6,0s-11,0-16.6,0c-2.5,0-4-1.4-4-4c0-9,0-18.1,0-27.1c0-2.5,1.4-4,4-4c11.1,0,22.1,0,33.2,0c2.5,0,4,1.4,4,4
		C-33.5-64.3-33.5-55.2-33.5-46.2z M-28.8-47.9c-0.7,0-1.5,0-2.3,0c0-7.8,0-15.5,0-23.3c0.8,0,1.5,0,2.3,0
		C-28.8-63.4-28.8-55.7-28.8-47.9z"/>
	<path class="st0" d="M-39.4-70.3c-4.9,0-9.8,0-14.7,0c-2.7,0-5.5,0-8.3,0c-2.2,0-4.4,0-6.5,0c-2,0-3.5,1.6-3.5,3.5
		c0,2,1.6,3.5,3.7,3.5c9.7,0,19.4,0,29.1,0c0.2,0,0.3,0,0.5,0c1.7-0.1,3.1-1.5,3.2-3.2C-35.7-68.6-37.3-70.3-39.4-70.3z M-39.9-65.6
		c-4.7,0-9.4,0-14.2,0c-4.7,0-9.4,0-14.1,0c-1.1,0-1.7-0.4-1.7-1.2c0-0.8,0.6-1.2,1.7-1.2c9.4,0,18.9,0,28.4,0
		c1.1,0,1.7,0.4,1.7,1.2C-38.2-66-38.7-65.6-39.9-65.6z"/>
	<path class="st0" d="M-39.4-60.9c-4.8,0-9.7,0-14.6,0c-2.7,0-5.4,0-8.1,0c-2.3,0-4.6,0-6.8,0c-2,0-3.5,1.6-3.5,3.5
		c0,2,1.6,3.5,3.7,3.5c9.7,0,19.4,0,29.1,0c0.2,0,0.3,0,0.5,0c1.7-0.1,3.1-1.5,3.2-3.2C-35.7-59.3-37.3-60.9-39.4-60.9z M-39.9-56.3
		c-4.7,0-9.4,0-14.2,0c-4.7,0-9.4,0-14.1,0c-1.1,0-1.7-0.4-1.7-1.2c0-0.8,0.6-1.2,1.7-1.2c9.4,0,18.9,0,28.4,0
		c1.1,0,1.7,0.4,1.7,1.2C-38.2-56.7-38.7-56.3-39.9-56.3z"/>
	<path class="st0" d="M-39.4-51.6c-4.9,0-9.8,0-14.7,0c-0.9,0-1.8,0-2.7,0c-4,0-8,0-12,0c-2.1,0-3.6,1.6-3.5,3.6
		c0.1,1.9,1.6,3.4,3.6,3.4c9.7,0,19.5,0,29.2,0c0.1,0,0.3,0,0.4,0c1.7-0.1,3.1-1.5,3.2-3.2C-35.7-49.9-37.3-51.6-39.4-51.6z
		 M-38.9-47c-0.3,0-0.6,0.1-0.9,0.1c-4.7,0-9.4,0-14.2,0c-4.7,0-9.3,0-14,0c-0.1,0-0.2,0-0.3,0c-1,0-1.5-0.4-1.5-1.2
		s0.6-1.2,1.5-1.2c9.5,0,19.1,0,28.7,0c0.3,0,0.6,0,0.8,0.1c0.5,0.1,0.7,0.5,0.7,1C-38.1-47.6-38.4-47.2-38.9-47z"/>
	<path class="st0" d="M-37.4-75c-9.4,0-18.8,0-28.3,0c-0.2,0-0.3,0-0.5,0c-0.7,0-1.2,0.5-1.2,1.2c0,0.7,0.5,1.2,1.2,1.2
		c0.2,0,0.3,0,0.5,0c4.7,0,9.3,0,14,0c4.7,0,9.4,0,14.1,0c1.2,0,1.7-0.4,1.7-1.2C-35.8-74.6-36.4-75-37.4-75z"/>
	
		<ellipse transform="matrix(0.7071 -0.7071 0.7071 0.7071 31.4027 -71.6952)" class="st0" cx="-70.8" cy="-73.8" rx="1.2" ry="1.2"/>
</g>
<path class="st0" d="M-80.4,26.5c-0.2-0.1-0.5-0.2-0.6-0.4c-2.3-2.2-4.5-4.5-6.7-6.7c-0.8-0.8-1.3-1.8-1.4-3
	c-0.2-1.9-0.4-3.7-0.6-5.6c-0.2-1.6,0.2-3,1.5-4.1c1.7-1.6,3.3-3.2,4.8-4.9c1.3-1.4,2.8-2,4.7-1.7c1.8,0.3,3.7,0.4,5.6,0.6
	c1.1,0.1,2.1,0.6,2.8,1.4c2.2,2.3,4.5,4.5,6.7,6.7c0.2,0.2,0.3,0.3,0.7,0.7c0.5-0.6,1-1.3,1.6-1.8c2.7-2.4,6.9-1.1,7.7,2.4
	c0.4,1.6,0,3.1-1.1,4.3c-0.5,0.6-1.1,1-1.7,1.6c0.3,0.3,0.4,0.5,0.6,0.6c2.2,2.2,4.5,4.5,6.7,6.7c0.9,0.9,1.4,1.8,1.5,3.1
	c0.2,1.9,0.4,3.7,0.6,5.6c0.2,1.6-0.2,2.8-1.4,3.9c-1.9,1.8-3.7,3.7-5.6,5.5c-1,1.1-2.3,1.4-3.7,1.3c-2-0.2-4.1-0.4-6.2-0.6
	c-1-0.1-1.8-0.6-2.6-1.3c-2.2-2.3-4.5-4.5-6.7-6.7c-0.2-0.2-0.3-0.4-0.6-0.7c-0.2,0.2-0.4,0.4-0.6,0.5c-5.3,5.3-10.4,10.5-15.7,15.7
	c-0.3,0.3-0.4,0.6-0.3,1c0.2,1.1,0.1,2.2-0.7,3.2c-1.2,1.5-2.3,3.1-3.5,4.6c-1.5,1.8-4.1,2-5.8,0.4c-1.9-1.8-3.7-3.6-5.5-5.5
	c-1.6-1.6-1.5-4.3,0.3-5.8c1.6-1.3,3.2-2.6,4.8-3.8c0.9-0.7,2-0.8,3.2-0.6c0.2,0.1,0.6,0,0.8-0.2c5.4-5.3,10.6-10.5,16-15.9
	C-80.8,27-80.7,26.8-80.4,26.5z M-50.5,28.3c-0.1-0.1-0.2-0.1-0.2-0.2c-0.1,0.2-0.3,0.4-0.4,0.6c-2.5,2.5-5.1,5.1-7.6,7.6
	c-0.2,0.2-0.3,0.4-0.5,0.5c-0.5,0.4-1.2,0.3-1.7-0.1c-0.5-0.5-0.5-1.1-0.1-1.7c0.1-0.2,0.3-0.4,0.5-0.5c2.9-2.9,5.8-5.8,8.7-8.7
	c0.2-0.2,0.4-0.4,0.5-0.6c-0.1-0.1-0.2-0.2-0.2-0.3c-7.1-7.1-14-14-21.1-21c-0.3-0.3-0.8-0.5-1.2-0.5c-1.9-0.3-3.8-0.4-5.8-0.7
	c-0.7-0.1-1.2,0.1-1.7,0.6c-1.8,1.7-3.3,3.4-5,4.9c-1,0.9-1.5,1.8-1.2,3.2c0.3,1.1,0.3,2.2,0.4,3.3c0.1,0,0.2,0.1,0.3,0.1
	c0.1-0.2,0.2-0.4,0.4-0.6c2.5-2.6,5.1-5.1,7.6-7.6c0.2-0.2,0.4-0.3,0.5-0.4c0.6-0.5,1.3-0.5,1.8,0.1c0.5,0.5,0.5,1.2,0,1.8
	c-0.1,0.2-0.3,0.3-0.4,0.4c-2.9,2.9-5.8,5.8-8.6,8.6c-0.2,0.2-0.4,0.3-0.7,0.4c0.2,0.3,0.3,0.4,0.4,0.5c7,7,13.9,14,21,21
	c0.3,0.3,0.7,0.5,1.1,0.6c2,0.3,4,0.5,6,0.6c0.5,0,1.1-0.2,1.4-0.5c2-1.9,3.9-3.8,5.8-5.8c0.2-0.2,0.4-0.6,0.4-0.9
	C-50.1,31.4-50.3,29.9-50.5,28.3z M-98.5,45.6c-0.4,0.2-0.7,0.3-1,0.5c-1.4,1-2.7,2.1-4.1,3.2c-0.9,0.7-0.9,1.5-0.1,2.3
	c1.7,1.7,3.3,3.3,5,5c0.8,0.8,1.7,0.7,2.3-0.1c1.1-1.4,2.1-2.8,3.2-4.2c0.6-0.7,0.5-1.3-0.1-2c-1.4-1.4-2.7-2.8-4.1-4.1
	C-97.8,46-98.2,45.9-98.5,45.6z M-80.8,36.4c-0.9-1-1.9-1.9-2.8-2.8c-3.8,3.8-7.6,7.6-11.3,11.3c0.9,0.9,1.9,1.9,2.8,2.8
	C-88.4,43.9-84.6,40.1-80.8,36.4z M-75.9,31.6c-0.9-0.9-1.9-1.8-2.7-2.7c-0.9,0.9-1.8,1.8-2.7,2.7c0.9,0.9,1.8,1.8,2.7,2.7
	C-77.7,33.4-76.8,32.5-75.9,31.6z M-61.4,11.2c1,1,2,2,3,3c0.4-0.4,0.8-0.9,1.2-1.4c0.8-0.9,0.9-2.1,0-2.9c-0.6-0.8-1.9-0.8-2.8-0.1
	C-60.5,10.3-61,10.8-61.4,11.2z"/>
<g>
	<path class="st0" d="M59.8,3.6c-0.4-1.4-1-2.4-2.1-2.9c-0.2-0.1-0.4-0.2-0.7-0.3c-0.1,0-0.2-0.1-0.3-0.1l-37.6,0l-0.1,0
		c-1.7,0.5-2.7,1.5-3,3.1c-0.1,0.4-0.1,0.8-0.1,1.1c0,1.1,0,2.2,0,3.3l0,1.7l-1,0c-1,0-2,0-3,0c0,0,0,0,0,0c-1,0-1.9,0.3-2.6,1
		C8.4,11.2,8,12.2,8,13.5L8,20l-1,0c-0.9,0-1.9,0-2.8,0c-1.6,0-2.8,0.7-3.5,2.1c-0.3,0.5-0.4,1.2-0.4,1.8c0,10.6,0,21.3,0,31.9
		c0,2.3,1.6,3.9,3.9,3.9c5.9,0,11.8,0,17.7,0c6.1,0,12.3,0,18.4,0c2.3,0,3.8-1.5,3.9-3.8c0-0.7,0-1.5,0-2.2l0-0.8c0.4,0,0.8,0,1.2,0
		c0.8,0,1.6,0,2.3,0c1.1,0.1,2.1-0.3,2.9-1c0.8-0.8,1.3-1.9,1.3-3.1v-5l2.6,0c0.5,0,1,0,1.4,0c1.8,0,3.2-1.1,3.7-2.9
		c0-0.1,0.1-0.2,0.1-0.3l0.1-0.2L59.8,3.6z M10,52.4c0.7,0.3,1.5,0.4,2.1,0.4c7.7,0,15.3,0,23,0l6,0c0,0.2,0,0.5,0,0.7
		c0,0.9,0,1.8,0,2.7c0,0,0,0.2-0.6,0.5c-0.1,0.1-0.3,0.1-0.5,0l-0.2,0c-10.3,0-20.6,0-30.9,0H4.5c-1.2,0-1.4-0.2-1.4-1.4V24.3
		c0-1.1,0.2-1.3,1.4-1.4H8v7.7c0,6,0,12,0,18C8,50.5,8.7,51.7,10,52.4z M10.8,48.5v-0.1c0-11.5,0-23,0-34.5c0-0.3,0-0.6,0.1-0.9
		c0.1-0.4,0.4-0.7,0.8-0.7c0.6,0,1.2,0,1.9,0c0.4,0,0.8,0,1.3,0l1,0v7.2c0,6.7,0,13.4,0,20c0,1.8,0.7,3.1,2.1,3.8
		c0.6,0.3,1.3,0.4,2.1,0.4c7.6,0,15.2,0,22.8,0l6,0l0,1.3c0,1.3,0,2.6,0,3.9c0,0.8-0.3,1.1-1.2,1.1H12.1c-0.9,0-1.2-0.3-1.2-1.2
		C10.8,48.7,10.8,48.6,10.8,48.5z M56.9,4.5c0,11.7,0,23.3,0,35c0,1.1-0.3,1.4-1.4,1.4H20.2c-1.1,0-1.4-0.3-1.4-1.4V4.5
		c0-1.1,0.3-1.4,1.4-1.4h35.3C56.6,3.1,56.9,3.4,56.9,4.5z"/>
	<path class="st0" d="M45.1,7.3L23,7.3c-0.7,0-1.2,0.2-1.6,0.5c-0.2,0.2-0.4,0.6-0.4,1c0,0.5,0.3,1.4,1.9,1.4l13.8,0l8.3,0
		c0.7,0,1.2-0.2,1.6-0.5c0.2-0.2,0.4-0.6,0.3-1C47.1,8.1,46.7,7.3,45.1,7.3z"/>
	<path class="st0" d="M50.5,11.8C50.5,11.8,50.5,11.8,50.5,11.8C50,11.8,49,12,49,13.7v20c0,0.2,0,0.4,0,0.6
		c0.1,0.8,0.6,1.3,1.4,1.4c0,0,0,0,0,0c0.7,0,1.3-0.5,1.4-1.3c0-0.2,0-0.4,0-0.6c0-6.7,0-13.4,0-20.1c0-0.7-0.2-1.2-0.5-1.5
		C51.2,11.9,50.8,11.8,50.5,11.8z"/>
	<path class="st0" d="M50.3,10.1C50.3,10.1,50.3,10.1,50.3,10.1c0.8,0,1.4-0.6,1.4-1.4c0-0.4-0.1-0.8-0.4-1c-0.3-0.3-0.6-0.4-1-0.4
		c-0.8,0-1.4,0.7-1.4,1.4C48.9,9.5,49.5,10.1,50.3,10.1z"/>
</g>
</svg>
