<?xml version="1.0" encoding="utf-8"?>
<!-- Generator: Adobe Illustrator 26.0.0, SVG Export Plug-In . SVG Version: 6.00 Build 0)  -->
<svg version="1.1" id="Layer_1" xmlns="http://www.w3.org/2000/svg" xmlns:xlink="http://www.w3.org/1999/xlink" x="0px" y="0px"
	 viewBox="0 0 60 60" style="enable-background:new 0 0 60 60;" xml:space="preserve">
<style type="text/css">
	.st0{fill:#FFFFFF;}
</style>
<g>
	<path class="st0" d="M-179.8,25.9c0.5-1.1,1.5-0.9,2.5-0.9c0-0.7,0-1.4,0-2.1c0-1.1,0.5-1.6,1.6-1.6c1,0,2.1,0,3.1,0
		c0.3,0,0.5-0.1,0.6-0.4c1.3-3.5,5.4-4.4,8.1-2c0.1,0.1,0.2,0.2,0.3,0.2c3.2-2.2,4.6-2.2,7.5,0c1-1,2.2-1.7,3.7-1.7
		c1.5,0,2.7,0.6,3.7,1.6c3.2-2.2,4.7-2.2,7.6,0c1-1,2.2-1.7,3.7-1.7c1.5,0,2.7,0.6,3.6,1.6c0.8-0.5,1.5-1,2.3-1.3
		c3-1.1,6.3,1.1,6.5,4.3c0.1,0.9,0,1.9,0,2.9c0.9,0,1.7,0,2.5,0c0-0.3,0-0.5,0-0.7c0-2.9,0-5.7,0-8.6c0-0.2,0-0.4,0-0.6
		c0.1-0.8,0.6-1.3,1.3-1.2c0.7,0,1.2,0.6,1.2,1.3c0,2.6,0,5.1,0,7.7c0,1.1,0,2.1,0,3.2c0,1-0.5,1.5-1.5,1.5c-1.1,0-2.2,0-3.4,0
		c0,0.3,0,0.5,0,0.8c0,8.7,0,17.4,0,26.2c0,0.9-0.1,1.8-0.5,2.7c-0.7,1.5-1.9,2.4-3.4,2.7c-0.1,0-0.2,0.1-0.3,0.1c-0.5,0-1,0-1.5,0
		c-1.1-0.3-2.2-0.8-3-1.7c-0.8,1-1.8,1.3-2.9,1.7c-0.5,0-1.1,0-1.6,0c-1.1-0.3-2.2-0.8-2.9-1.6c-0.5,0.4-0.9,0.7-1.4,1
		c-0.5,0.3-1,0.4-1.5,0.6c-0.5,0-1.1,0-1.6,0c-1.1-0.3-2.2-0.8-3-1.7c-0.8,0.9-1.8,1.3-2.9,1.7c-0.5,0-1.1,0-1.6,0
		c-1.1-0.3-2.2-0.8-3-1.7c-0.8,0.9-1.8,1.3-2.9,1.7c-0.5,0-1.1,0-1.6,0c-1.1-0.3-2.2-0.8-3-1.7c-0.8,0.9-1.8,1.3-2.9,1.7
		c-0.5,0-1.1,0-1.6,0c0,0-0.1-0.1-0.1-0.1c-2.6-0.5-4.2-2.8-4.2-5.5c0.1-7.5,0-15,0-22.4c0-0.2,0-0.5,0-0.7c-1.2,0-2.3,0-3.4,0
		c-1.1,0-1.6-0.5-1.6-1.6c0-0.7,0-1.4,0-2.1c-1,0-2,0.2-2.5-0.9C-179.8,26.4-179.8,26.1-179.8,25.9z M-164.8,38.8
		c0-5.3,0-10.5,0-15.8c0-0.4,0-0.8-0.1-1.2c-0.3-1.1-1.3-1.8-2.4-1.8c-1.1,0-2.1,0.7-2.4,1.8c-0.1,0.4-0.1,0.8-0.1,1.2
		c0,10.5,0,20.9,0,31.4c0,0.3,0,0.6,0.1,0.9c0.1,1,1,1.9,2,2c1.7,0.2,2.9-0.9,2.9-2.7C-164.8,49.4-164.8,44.1-164.8,38.8z
		 M-162.3,38.7c0,5.2,0,10.4,0,15.6c0,0.3,0,0.6,0,0.9c0.1,0.8,0.5,1.4,1.1,1.8c0.8,0.5,1.7,0.5,2.5,0.1c0.9-0.5,1.3-1.3,1.3-2.3
		c0-10.7,0-21.4,0-32.1c0-0.3,0-0.5-0.1-0.8c-0.3-1-0.9-1.6-1.9-1.8c-1-0.2-1.8,0.1-2.4,0.9c-0.5,0.6-0.5,1.3-0.5,2
		C-162.3,28.2-162.3,33.5-162.3,38.7z M-154.8,38.7c0,5.2,0,10.4,0,15.6c0,0.3,0,0.6,0,0.9c0.1,0.8,0.5,1.4,1.1,1.8
		c0.8,0.5,1.7,0.5,2.5,0.1c0.9-0.5,1.3-1.3,1.3-2.3c0-10.7,0-21.4,0-32.1c0-0.3,0-0.5-0.1-0.8c-0.3-1-0.9-1.6-1.9-1.8
		c-1-0.2-1.8,0.1-2.4,0.9c-0.5,0.6-0.5,1.3-0.5,2C-154.8,28.2-154.8,33.5-154.8,38.7z M-142.3,38.7c0-4.7,0-9.5,0-14.2
		c0-0.7,0-1.3,0-2c-0.1-1.8-1.8-3-3.4-2.3c-1.2,0.5-1.6,1.4-1.6,2.6c0,10.6,0,21.2,0,31.9c0,0.3,0,0.5,0.1,0.8c0.2,1,1,1.9,2,2
		c1.7,0.2,2.9-0.9,2.9-2.7C-142.3,49.4-142.3,44-142.3,38.7z M-134.8,38.8c0-5.3,0-10.5,0-15.8c0-0.3,0-0.7-0.1-1
		c-0.2-1.1-1.2-1.9-2.3-1.9c-1.2,0-2.2,0.7-2.5,1.8c-0.1,0.4-0.1,0.8-0.1,1.3c0,10.5,0,20.9,0,31.4c0,0.3,0,0.6,0.1,0.9
		c0.1,1.1,1,1.9,2.1,2c1.6,0.2,2.8-0.9,2.8-2.7C-134.8,49.4-134.8,44.1-134.8,38.8z M-132.3,38.8c0,5.2,0,10.4,0,15.6
		c0,0.3,0,0.6,0,0.9c0.1,0.8,0.5,1.5,1.2,1.9c1.7,1,3.7-0.3,3.7-2.4c0-10.7,0-21.4,0-32c0-0.3,0-0.6-0.1-0.9c-0.3-1-0.9-1.6-2-1.8
		c-1-0.2-1.8,0.2-2.4,1c-0.4,0.6-0.5,1.3-0.5,1.9C-132.3,28.2-132.3,33.5-132.3,38.8z M-172.3,28.7c0-1.7,0-3.3,0-4.9
		c-0.8,0-1.6,0-2.4,0c0,1.7,0,3.3,0,4.9C-173.9,28.7-173.2,28.7-172.3,28.7z"/>
	<path class="st0" d="M-146.2,4.6c0,1.3-0.4,2.4-1.2,3.4c-1.4,1.6-1.3,3.2-0.3,4.9c0.4,0.7,0.4,1.4-0.1,1.8
		c-0.6,0.5-1.4,0.4-1.8-0.2c-1.6-2.3-2.1-5.2-0.1-7.6c1.3-1.5,1.1-3.1,0.3-4.5c-0.1-0.2-0.2-0.3-0.3-0.5c-0.3-0.6-0.1-1.3,0.5-1.7
		c0.6-0.3,1.3-0.2,1.7,0.4C-146.7,1.8-146.2,3.1-146.2,4.6z"/>
	<path class="st0" d="M-136.6,8.3c0,0.9-0.3,1.7-0.9,2.4c-0.7,0.8-0.7,1.2-0.2,2.2c0.2,0.4,0.3,0.8,0.3,1.2c0,0.5-0.4,0.8-0.9,0.9
		c-0.5,0.1-0.9,0-1.2-0.4c-1.2-1.5-1.6-3.6-0.2-5.3c0.8-0.9,0.8-1.2,0.2-2.2c-0.2-0.3-0.3-0.7-0.3-1c0-0.5,0.3-0.9,0.8-1
		c0.5-0.2,1,0,1.4,0.4C-136.9,6.3-136.6,7.2-136.6,8.3z"/>
	<path class="st0" d="M-156.6,8.6c0,0.6-0.3,1.4-0.9,2c-0.7,0.9-0.8,1.3-0.2,2.2c0.1,0.2,0.3,0.4,0.3,0.7c0.1,0.5-0.2,1.1-0.7,1.3
		c-0.5,0.3-1.1,0.2-1.5-0.2c-1.1-1.4-1.7-3.5-0.2-5.3c0.8-0.9,0.8-1.2,0.2-2.2c-0.3-0.4-0.4-0.9-0.2-1.4c0.4-0.9,1.5-1,2.2-0.2
		C-157,6.2-156.5,7.4-156.6,8.6z"/>
</g>
<g>
	<path class="st0" d="M51.5,35.2c0,0.6,0.1,1.3,0,1.9c-0.2,0.8,0.1,1.2,0.8,1.6c2.3,1.4,4.6,2.9,6.8,4.4c0.9,0.6,1,1,0.7,2
		c-1.4,4.2-3.6,8-6.6,11.3c-0.6,0.7-1.1,0.8-2,0.4c-2.6-1.3-5.2-2.7-7.8-4c-0.4-0.2-0.6-0.2-1,0.1c-4.1,2.8-8.7,4.2-13.7,3.9
		c-4-0.2-7.7-1.5-11-3.8c-0.4-0.3-0.7-0.3-1.1-0.1c-2.6,1.4-5.2,2.7-7.8,4c-0.9,0.4-1.4,0.3-2-0.4c-3-3.3-5.2-7-6.6-11.2
		C-0.1,44,0.1,43.7,1.1,43c2.4-1.5,4.8-3.1,7.1-4.6c0.4-0.2,0.5-0.5,0.5-1C8.1,31.8,9.5,26.6,13,22c2.2-2.9,5-5,8.2-6.5
		c0.2-0.1,0.5-0.4,0.5-0.7c0.2-2.8,0.3-5.7,0.4-8.5c0.1-1.3,0.3-1.7,1.6-1.9c4.2-0.8,8.4-0.8,12.7,0C37.6,4.7,37.9,5,38,6.2
		c0.1,2.8,0.3,5.7,0.4,8.5c0,0.4,0.2,0.6,0.6,0.8c7,3.3,11.1,8.9,12.4,16.5c0.1,0.5,0.1,1,0.2,1.5C51.6,34.1,51.5,34.6,51.5,35.2
		C51.5,35.2,51.5,35.2,51.5,35.2z M8.4,54.1c2.8-1.4,5.4-2.8,8.1-4.2c0.7-0.4,1.3-0.3,2,0.2c6.6,5.1,15.6,5.4,22.3,0.6
		c2-1.4,1.6-1.4,3.9-0.2c2.3,1.2,4.6,2.4,6.9,3.5c0.1-0.1,0.2-0.1,0.2-0.1c2.3-2.6,4-5.5,5.2-8.7c0.1-0.2-0.2-0.6-0.4-0.7
		C54.3,43,52,41.5,49.6,40c-0.7-0.5-1-1.1-0.8-1.9c0.6-3.6,0.2-7.1-1.3-10.4c-2.1-4.8-5.6-8.2-10.5-10.2c-0.7-0.3-1.1-0.7-1.1-1.6
		c0-0.9-0.1-1.8-0.1-2.7c-0.1-2.1-0.2-4.3-0.3-6.4c-3.6-0.7-7.1-0.7-10.7,0c-0.2,3.1-0.3,6.1-0.5,9.1c0,0.7-0.4,1.2-1,1.5
		c-3.3,1.3-6.1,3.4-8.2,6.2c-3.2,4.2-4.4,9-3.7,14.2c0.1,1.1-0.1,1.7-1,2.3c-2.3,1.4-4.6,2.9-6.8,4.4c-0.2,0.1-0.5,0.5-0.4,0.7
		C4.3,48.5,6,51.5,8.4,54.1z"/>
	<path class="st0" d="M7.5,46.4c0.8,1.2,1.6,2.4,2.3,3.7c0.2,0.4,0.4,0.9,0.4,1.3c-0.2,1-1.5,1.4-2.1,0.5c-1.2-1.8-2.3-3.8-3.4-5.7
		c-0.3-0.6,0.1-1.1,0.7-1.5c2.2-1.4,4.5-2.9,6.7-4.3c0.6-0.4,0.7-0.7,0.6-1.4c-1-4.8-0.2-9.3,2.4-13.4c2.2-3.4,5.2-5.8,9-7.1
		c1-0.3,1.3-0.8,1.3-1.8c0-2.4,0.2-4.8,0.3-7.2c0.1-1.2,0.4-1.6,1.5-1.7c1.9-0.1,3.7-0.1,5.6,0c1.2,0,1.5,0.5,1.5,1.7
		c0.1,2.6,0.3,5.3,0.4,7.9c0,0.5,0.2,0.8,0.7,0.9c3.5,1.2,6.4,3.2,8.7,6.1c0.1,0.2,0.3,0.4,0.4,0.5c0.5,0.7,0.4,1.4-0.2,1.9
		c-0.6,0.5-1.4,0.3-1.9-0.4c-1.3-1.7-2.8-3.3-4.7-4.3c-1.4-0.7-2.8-1.3-4.2-1.8c-0.8-0.3-1.2-0.8-1.3-1.7c-0.1-2.8-0.3-5.5-0.4-8.3
		c-1.2,0-2.3,0-3.5,0c-0.1,2.1-0.2,4.2-0.3,6.3c0,0.7-0.1,1.4-0.1,2.2c0,0.9-0.4,1.3-1.2,1.6c-1.6,0.6-3.2,1.2-4.6,2.1
		c-5.3,3.2-8.1,9.5-7,15.5c0.1,0.7,0.2,1.5,0.4,2.2c0.2,0.8-0.1,1.4-0.8,1.8c-2.2,1.4-4.4,2.8-6.6,4.2C7.9,46.1,7.8,46.2,7.5,46.4z"
		/>
	<path class="st0" d="M41.9,34.9c0,6.5-5.3,11.9-11.8,11.9c-6.5,0-11.9-5.3-11.9-11.9c0-6.5,5.3-11.9,11.8-11.9
		C36.6,23.1,41.9,28.3,41.9,34.9z M30.1,44.2c5.1,0,9.3-4.2,9.3-9.3c0-5.1-4.2-9.3-9.3-9.3c-5.1,0-9.3,4.2-9.3,9.3
		C20.8,40.1,24.9,44.2,30.1,44.2z"/>
</g>
<g>
	<path class="st0" d="M-72.8-31.6c0.3-0.6,0.9-0.9,1.6-0.8c1,0,2,0,3.1,0c0-1.1,0-2.2,0-3.3c0-1.1,0.4-1.5,1.5-1.5c1,0,2.1,0,3.2,0
		c0-1.2,0.2-2.2,0.8-3.2c1.1-1.8,2.8-2.9,4.9-2.9c11.5,0,23,0,34.5,0c3,0,5.6,2.6,5.7,5.6c0,0.1,0,0.3,0,0.5c1.1,0,2.1,0,3.2,0
		c1.1,0,1.5,0.4,1.5,1.5c0,8.4,0,16.7,0,25.1c0,1.1-0.4,1.5-1.5,1.5c-1,0-2,0-3,0c0,0-0.1,0-0.2,0c-0.1,1.2-0.5,2.4-1.3,3.4
		c-0.8,1-1.8,1.6-3.1,2c0.1,0.4,0.2,0.7,0.3,1c0.5,1.5,1,2.9,1.5,4.4c0.4,1.2-0.1,1.8-1.3,1.8c-4.9,0-9.8,0-14.7,0
		c-1.1,0-1.6-0.7-1.3-1.8c0.6-1.7,1.2-3.5,1.7-5.2c-3.1,0-6.2,0-9.4,0c0.3,0.9,0.6,1.7,0.8,2.5c0.3,0.9,0.6,1.8,0.9,2.7
		c0.3,1.1-0.2,1.7-1.2,1.7c-4.9,0-9.9,0-14.8,0c-1.1,0-1.6-0.7-1.3-1.8c0.5-1.7,1.1-3.3,1.7-5c0-0.1,0.1-0.2,0.1-0.4
		c-2.7-0.8-4.3-2.6-4.6-5.5c-1,0-2,0-3,0c-0.2,0-0.5,0-0.7,0c-0.6-0.1-0.9-0.6-1-1.2c0-0.6,0-1.2,0-1.8c0-0.6,0-1.1,0-1.8
		c-0.6,0-1.2,0-1.9,0c-0.4,0-0.9,0-1.3,0c-0.7,0.1-1.2-0.3-1.5-0.8C-72.8-20.3-72.8-26-72.8-31.6z M-40.4-5.8c5.5,0,11.1,0,16.6,0
		c2.6,0,4-1.4,4-4c0-9.1,0-18.1,0-27.2c0-2.6-1.4-4-4-4c-11.1,0-22.2,0-33.3,0c-2.6,0-4,1.4-4,4c0,9.1,0,18.1,0,27.2
		c0,2.6,1.4,4,4,4C-51.5-5.8-46-5.8-40.4-5.8z M-63.4-11.5c0-7.8,0-15.6,0-23.4c-0.8,0-1.5,0-2.3,0c0,7.8,0,15.6,0,23.4
		C-64.9-11.5-64.2-11.5-63.4-11.5z M-17.4-34.9c0,7.8,0,15.6,0,23.4c0.8,0,1.5,0,2.3,0c0-7.8,0-15.6,0-23.4
		C-15.9-34.9-16.6-34.9-17.4-34.9z M-70.4-30.1c0,4.6,0,9.2,0,13.8c0.8,0,1.5,0,2.3,0c0-4.6,0-9.2,0-13.8
		C-68.9-30.1-69.6-30.1-70.4-30.1z M-52.2,1.2c0.5-1.5,1-3.1,1.6-4.7c-1.9,0-3.8,0-5.7,0c-0.5,1.5-1,3.1-1.6,4.7
		C-55.9,1.2-54.1,1.2-52.2,1.2z M-27.4-3.5c-1.9,0-3.6,0-5.4,0c-0.1,0-0.3,0.1-0.3,0.2c-0.5,1.5-1,2.9-1.5,4.5c1.9,0,3.6,0,5.4,0
		c0.1,0,0.3-0.1,0.3-0.2C-28.4-0.5-27.9-1.9-27.4-3.5z M-45.9,1.2c-0.5-1.5-1-3-1.5-4.4c0-0.1-0.2-0.2-0.3-0.2
		c-0.1,0-0.4,0.1-0.4,0.2c-0.5,1.5-1,3-1.5,4.5C-48.4,1.2-47.2,1.2-45.9,1.2z M-22.7,1.2c-0.5-1.5-1-3-1.5-4.4
		c-0.1-0.2-0.6-0.3-0.7-0.1C-25-3.3-25-3.1-25.1-2.9c-0.5,1.4-0.9,2.7-1.4,4.1C-25.2,1.2-24,1.2-22.7,1.2z"/>
	<path class="st0" d="M-40.4-33.9c4.9,0,9.8,0,14.7,0c2.1,0,3.7,1.7,3.6,3.8c-0.1,1.7-1.5,3.1-3.2,3.2c-0.2,0-0.3,0-0.5,0
		c-9.7,0-19.4,0-29.2,0c-2.1,0-3.7-1.5-3.7-3.5c0-1.9,1.5-3.5,3.5-3.5c2.2,0,4.4,0,6.6,0C-45.9-33.9-43.2-33.9-40.4-33.9z
		 M-40.4-29.2c4.7,0,9.5,0,14.2,0c1.1,0,1.7-0.4,1.7-1.2c0-0.8-0.6-1.2-1.7-1.2c-9.5,0-19,0-28.5,0c-1.1,0-1.7,0.4-1.7,1.2
		c0,0.8,0.6,1.2,1.7,1.2C-49.9-29.2-45.2-29.2-40.4-29.2z"/>
	<path class="st0" d="M-40.4-24.6c4.9,0,9.8,0,14.6,0c2.1,0,3.7,1.7,3.6,3.8c-0.1,1.7-1.5,3.1-3.2,3.2c-0.2,0-0.3,0-0.5,0
		c-9.7,0-19.4,0-29.2,0c-2.1,0-3.7-1.5-3.7-3.5c0-1.9,1.5-3.5,3.5-3.5c2.3,0,4.6,0,6.9,0C-45.7-24.6-43-24.6-40.4-24.6z M-40.4-19.9
		c4.7,0,9.5,0,14.2,0c1.1,0,1.7-0.4,1.7-1.2c0-0.8-0.6-1.2-1.7-1.2c-9.5,0-19,0-28.5,0c-1.1,0-1.7,0.4-1.7,1.2
		c0,0.8,0.6,1.2,1.7,1.2C-49.9-19.9-45.2-19.9-40.4-19.9z"/>
	<path class="st0" d="M-40.4-15.2c4.9,0,9.8,0,14.7,0c2.1,0,3.7,1.7,3.6,3.8c-0.1,1.7-1.5,3.1-3.2,3.2c-0.1,0-0.3,0-0.4,0
		c-9.8,0-19.5,0-29.3,0c-2,0-3.6-1.5-3.6-3.4c-0.1-2.1,1.5-3.7,3.6-3.7c4,0,8,0,12,0C-42.2-15.2-41.3-15.2-40.4-15.2z M-40.4-10.5
		c4.7,0,9.5,0,14.2,0c0.3,0,0.6,0,0.9-0.1c0.5-0.2,0.8-0.6,0.7-1.1c0-0.5-0.3-0.9-0.7-1c-0.3-0.1-0.5-0.1-0.8-0.1
		c-9.6,0-19.2,0-28.8,0c-0.9,0-1.5,0.5-1.5,1.2c0,0.7,0.6,1.2,1.5,1.2c0.1,0,0.2,0,0.4,0C-49.8-10.5-45.1-10.5-40.4-10.5z"/>
	<path class="st0" d="M-38-36.3c-4.7,0-9.4,0-14.1,0c-0.2,0-0.4,0-0.5,0c-0.7,0-1.2-0.5-1.2-1.2c0-0.6,0.5-1.1,1.2-1.2
		c0.2,0,0.3,0,0.5,0c9.5,0,18.9,0,28.4,0c1.1,0,1.6,0.4,1.6,1.2c0,0.8-0.5,1.2-1.7,1.2C-28.5-36.3-33.3-36.3-38-36.3z"/>
	<path class="st0" d="M-56.1-37.5c0,0.6-0.5,1.2-1.2,1.2c-0.6,0-1.1-0.5-1.1-1.2c0-0.6,0.5-1.2,1.2-1.2
		C-56.6-38.6-56.1-38.1-56.1-37.5z"/>
</g>
<path class="st0" d="M-95.2,26.5c-0.2-0.1-0.5-0.2-0.6-0.4c-2.3-2.2-4.5-4.5-6.7-6.7c-0.8-0.8-1.3-1.8-1.4-3
	c-0.2-1.9-0.4-3.7-0.6-5.6c-0.2-1.6,0.2-3,1.5-4.1c1.7-1.6,3.3-3.2,4.8-4.9c1.3-1.4,2.8-2,4.7-1.7c1.8,0.3,3.7,0.4,5.6,0.6
	c1.1,0.1,2.1,0.6,2.8,1.4c2.2,2.3,4.5,4.5,6.7,6.7c0.2,0.2,0.3,0.3,0.7,0.7c0.5-0.6,1-1.3,1.6-1.8c2.7-2.4,6.9-1.1,7.7,2.4
	c0.4,1.6,0,3.1-1.1,4.3c-0.5,0.6-1.1,1-1.7,1.6c0.3,0.3,0.4,0.5,0.6,0.6c2.2,2.2,4.5,4.5,6.7,6.7c0.9,0.9,1.4,1.8,1.5,3.1
	c0.2,1.9,0.4,3.7,0.6,5.6c0.2,1.6-0.2,2.8-1.4,3.9c-1.9,1.8-3.7,3.7-5.6,5.5c-1,1.1-2.3,1.4-3.7,1.3c-2-0.2-4.1-0.4-6.2-0.6
	c-1-0.1-1.8-0.6-2.6-1.3c-2.2-2.3-4.5-4.5-6.7-6.7c-0.2-0.2-0.3-0.4-0.6-0.7c-0.2,0.2-0.4,0.4-0.6,0.5c-5.3,5.3-10.5,10.6-15.8,15.8
	c-0.3,0.3-0.4,0.6-0.3,1c0.2,1.1,0.1,2.2-0.7,3.2c-1.2,1.5-2.3,3.1-3.5,4.6c-1.5,1.8-4.1,2-5.8,0.4c-1.9-1.8-3.7-3.6-5.5-5.5
	c-1.6-1.6-1.5-4.3,0.3-5.8c1.6-1.3,3.2-2.6,4.8-3.8c0.9-0.7,2-0.8,3.2-0.6c0.2,0.1,0.6,0,0.8-0.2c5.4-5.3,10.7-10.6,16.1-16
	C-95.6,27-95.5,26.8-95.2,26.5z M-65.1,28.3c-0.1-0.1-0.2-0.1-0.2-0.2c-0.1,0.2-0.3,0.4-0.4,0.6c-2.5,2.5-5.1,5.1-7.6,7.6
	c-0.2,0.2-0.3,0.4-0.5,0.5c-0.5,0.4-1.2,0.3-1.7-0.1c-0.5-0.5-0.5-1.1-0.1-1.7c0.1-0.2,0.3-0.4,0.5-0.5c2.9-2.9,5.8-5.8,8.8-8.8
	c0.2-0.2,0.4-0.4,0.5-0.6c-0.1-0.1-0.2-0.2-0.2-0.3c-7.1-7.1-14.1-14.1-21.2-21.1c-0.3-0.3-0.8-0.5-1.2-0.5
	c-1.9-0.3-3.8-0.4-5.8-0.7c-0.7-0.1-1.2,0.1-1.7,0.6c-1.6,1.6-3.1,3.3-4.8,4.8c-1,0.9-1.5,1.8-1.2,3.2c0.3,1.1,0.3,2.2,0.4,3.3
	c0.1,0,0.2,0.1,0.3,0.1c0.1-0.2,0.2-0.4,0.4-0.6c2.5-2.6,5.1-5.1,7.6-7.6c0.1-0.1,0.3-0.3,0.4-0.4c0.6-0.5,1.3-0.5,1.8,0.1
	c0.5,0.5,0.5,1.2,0,1.8c-0.1,0.2-0.3,0.3-0.4,0.4c-2.9,2.9-5.8,5.8-8.7,8.7c-0.2,0.2-0.4,0.3-0.7,0.4c0.2,0.3,0.3,0.4,0.4,0.5
	c7,7,14,14.1,21.1,21.1c0.3,0.3,0.7,0.5,1.1,0.6c2,0.3,4,0.5,6,0.6c0.5,0,1.1-0.2,1.4-0.5c2-1.9,3.9-3.8,5.8-5.8
	c0.2-0.2,0.4-0.6,0.4-0.9C-64.7,31.4-64.9,29.9-65.1,28.3z M-113.4,45.7c-0.4,0.2-0.7,0.3-1,0.5c-1.4,1-2.7,2.1-4.1,3.2
	c-0.9,0.7-0.9,1.5-0.1,2.3c1.7,1.7,3.3,3.3,5,5c0.8,0.8,1.7,0.7,2.3-0.1c1.1-1.4,2.1-2.8,3.2-4.2c0.6-0.7,0.5-1.3-0.1-2
	c-1.4-1.4-2.7-2.8-4.1-4.1C-112.7,46.1-113.1,46-113.4,45.7z M-95.6,36.4c-0.9-1-1.9-1.9-2.8-2.8c-3.8,3.8-7.6,7.6-11.4,11.4
	c0.9,0.9,1.9,1.9,2.8,2.8C-103.2,44-99.3,40.2-95.6,36.4z M-90.7,31.6c-0.9-0.9-1.9-1.8-2.7-2.7c-0.9,0.9-1.8,1.8-2.7,2.7
	c0.9,0.9,1.8,1.8,2.7,2.7C-92.5,33.4-91.6,32.5-90.7,31.6z M-76.1,11.1c1,1,2,2,3,3c0.4-0.4,0.8-0.9,1.2-1.4c0.8-0.9,0.9-2.1,0-2.9
	C-72.5,9-73.8,9-74.7,9.7C-75.2,10.2-75.6,10.7-76.1,11.1z"/>
</svg>
