<svg width="108" height="108" viewBox="0 0 108 108" fill="none" xmlns="http://www.w3.org/2000/svg">
<g filter="url(#filter0_d_493_2)">
<rect x="14" y="10" width="80" height="80" rx="16" fill="#F4F4F4"/>
</g>
<path d="M38.5039 19H69.5039V26.7384H77.2539V19C79.3086 19.001 81.2789 19.818 82.7315 21.2713C84.184 22.7246 85 24.6952 85 26.75V73.25C85 75.3048 84.184 77.2754 82.7315 78.7287C81.2789 80.182 79.3086 80.999 77.2539 81V73.2384H69.5039V81H38.5039V73.2384H30.7539V81H30.75C28.6946 81 26.7233 80.1835 25.2699 78.7301C23.8165 77.2767 23 75.3054 23 73.25V26.75C23 24.6946 23.8165 22.7233 25.2699 21.2699C26.7233 19.8165 28.6946 19 30.75 19H30.7539V26.7384H38.5039V19V19ZM46.25 61.625L63.6875 50L46.25 38.375V61.625ZM77.2539 65.4884V53.8634H69.5039V65.4884H77.2539ZM77.2539 46.1134V34.4884H69.5039V46.1134H77.2539ZM38.5039 65.4884V53.8634H30.7539V65.4884H38.5039ZM38.5039 46.1134V34.4884H30.7539V46.1134H38.5039Z" fill="#FF4646"/>
<defs>
<filter id="filter0_d_493_2" x="0" y="0" width="108" height="108" filterUnits="userSpaceOnUse" color-interpolation-filters="sRGB">
<feFlood flood-opacity="0" result="BackgroundImageFix"/>
<feColorMatrix in="SourceAlpha" type="matrix" values="0 0 0 0 0 0 0 0 0 0 0 0 0 0 0 0 0 0 127 0" result="hardAlpha"/>
<feOffset dy="4"/>
<feGaussianBlur stdDeviation="7"/>
<feComposite in2="hardAlpha" operator="out"/>
<feColorMatrix type="matrix" values="0 0 0 0 0 0 0 0 0 0 0 0 0 0 0 0 0 0 0.25 0"/>
<feBlend mode="normal" in2="BackgroundImageFix" result="effect1_dropShadow_493_2"/>
<feBlend mode="normal" in="SourceGraphic" in2="effect1_dropShadow_493_2" result="shape"/>
</filter>
</defs>
</svg>
