<svg width="21" height="13" viewBox="0 0 21 13" fill="none" xmlns="http://www.w3.org/2000/svg">
<path fill-rule="evenodd" clip-rule="evenodd" d="M-2.81768e-07 6.55293C-2.9007e-07 6.363 0.0754491 6.18085 0.20975 6.04655C0.344051 5.91225 0.526202 5.8368 0.716132 5.8368L17.6068 5.8368L13.0995 1.33089C12.965 1.19642 12.8895 1.01404 12.8895 0.823872C12.8895 0.633702 12.965 0.451321 13.0995 0.31685C13.234 0.18238 13.4163 0.106836 13.6065 0.106836C13.7967 0.106836 13.9791 0.18238 14.1135 0.31685L19.8426 6.04591C19.9093 6.11243 19.9622 6.19146 19.9983 6.27846C20.0344 6.36546 20.053 6.45873 20.053 6.55293C20.053 6.64712 20.0344 6.7404 19.9983 6.8274C19.9622 6.9144 19.9093 6.99343 19.8426 7.05995L14.1135 12.789C13.9791 12.9235 13.7967 12.999 13.6065 12.999C13.4163 12.999 13.234 12.9235 13.0995 12.789C12.965 12.6545 12.8895 12.4722 12.8895 12.282C12.8895 12.0918 12.965 11.9094 13.0995 11.775L17.6068 7.26906L0.716132 7.26906C0.526202 7.26906 0.344051 7.19361 0.20975 7.05931C0.0754491 6.92501 -2.73466e-07 6.74286 -2.81768e-07 6.55293Z" fill="#F4F4F4"/>
</svg>
