<svg width="28" height="28" viewBox="0 0 28 28" fill="none" xmlns="http://www.w3.org/2000/svg">
<path d="M23.6641 13.8921H18.7627C18.4715 13.892 18.1878 13.9842 17.9524 14.1556C17.717 14.327 17.542 14.5686 17.4526 14.8458C17.2186 15.5771 16.7579 16.215 16.1373 16.6671C15.5167 17.1193 14.7684 17.3623 14.0005 17.361C13.2326 17.3624 12.4842 17.1194 11.8636 16.6672C11.243 16.2151 10.7824 15.5771 10.5484 14.8458C10.4589 14.5686 10.2838 14.3269 10.0483 14.1555C9.81279 13.9842 9.52897 13.8919 9.2377 13.8921H4.3363C4.15542 13.8921 3.9763 13.9277 3.80918 13.9969C3.64206 14.0661 3.49021 14.1675 3.36231 14.2954C3.23441 14.4233 3.13296 14.5752 3.06375 14.7423C2.99455 14.9094 2.95895 15.0885 2.95898 15.2694V23.1245C2.95921 23.4897 3.10441 23.8398 3.36267 24.098C3.62094 24.3562 3.97114 24.5012 4.3363 24.5013H23.6641C23.845 24.5013 24.024 24.4657 24.1911 24.3966C24.3582 24.3274 24.51 24.226 24.6379 24.0982C24.7658 23.9703 24.8673 23.8185 24.9365 23.6515C25.0058 23.4844 25.0414 23.3054 25.0415 23.1245V15.2694C25.0415 14.5081 24.4255 13.8921 23.6641 13.8921Z" fill="#F4F4F4"/>
<path d="M13.7112 14.6263C13.7804 14.7232 13.8935 14.7811 14.0125 14.7811H14.0134C14.1332 14.7811 14.2446 14.7232 14.3146 14.6249L18.1238 9.26766C18.1629 9.21209 18.1861 9.14686 18.1909 9.07905C18.1956 9.01123 18.1817 8.94341 18.1506 8.88294C18.1195 8.82239 18.0723 8.77163 18.0141 8.73625C17.956 8.70087 17.8892 8.68225 17.8211 8.68246H16.0294V3.86982C16.0294 3.66402 15.8633 3.49854 15.6589 3.49854H12.342C12.1371 3.49854 11.9716 3.66402 11.9716 3.86982V8.68246H10.1785C10.1105 8.68256 10.0439 8.70135 9.98591 8.73678C9.92792 8.77221 9.88079 8.82291 9.84968 8.88333C9.81857 8.94375 9.80469 9.01157 9.80954 9.07935C9.81439 9.14714 9.8378 9.21228 9.8772 9.26766L13.7112 14.6263Z" fill="#F4F4F4"/>
</svg>
