<svg width="42" height="27" viewBox="0 0 42 27" fill="none" xmlns="http://www.w3.org/2000/svg">
<path fill-rule="evenodd" clip-rule="evenodd" d="M0.111328 13.446C0.111328 13.0498 0.26871 12.6698 0.548852 12.3897C0.828995 12.1095 1.20895 11.9522 1.60513 11.9522L36.838 11.9522L27.436 2.55316C27.1555 2.27266 26.9979 1.89222 26.9979 1.49554C26.9979 1.09886 27.1555 0.718426 27.436 0.43793C27.7165 0.157433 28.0969 -0.000146182 28.4936 -0.000146199C28.8903 -0.000146216 29.2707 0.157433 29.5512 0.43793L41.5016 12.3884C41.6407 12.5271 41.7511 12.692 41.8264 12.8734C41.9017 13.0549 41.9405 13.2495 41.9405 13.446C41.9405 13.6425 41.9017 13.837 41.8264 14.0185C41.7511 14.2 41.6407 14.3648 41.5016 14.5036L29.5512 26.454C29.2707 26.7345 28.8903 26.8921 28.4936 26.8921C28.0969 26.8921 27.7165 26.7345 27.436 26.454C27.1555 26.1735 26.9979 25.7931 26.9979 25.3964C26.9979 24.9997 27.1555 24.6193 27.436 24.3388L36.838 14.9398L1.60513 14.9398C1.20895 14.9398 0.828995 14.7824 0.548852 14.5022C0.26871 14.2221 0.111328 13.8422 0.111328 13.446Z" fill="#F4F4F4"/>
</svg>
