<svg width="26" height="16" viewBox="0 0 26 16" fill="none" xmlns="http://www.w3.org/2000/svg">
<path fill-rule="evenodd" clip-rule="evenodd" d="M0.496093 7.90994C0.496093 7.67688 0.590966 7.45336 0.75984 7.28856C0.928715 7.12376 1.15776 7.03118 1.39658 7.03118L22.6355 7.03118L16.9678 1.50207C16.7987 1.33706 16.7038 1.11326 16.7038 0.87991C16.7038 0.646555 16.7987 0.422758 16.9678 0.257753C17.1369 0.092746 17.3663 4.69641e-05 17.6054 4.69539e-05C17.8445 4.69437e-05 18.0738 0.092746 18.2429 0.257753L25.4468 7.28778C25.5307 7.36941 25.5972 7.46638 25.6426 7.57314C25.688 7.6799 25.7114 7.79435 25.7114 7.90993C25.7114 8.02552 25.688 8.13997 25.6426 8.24673C25.5972 8.35349 25.5307 8.45046 25.4468 8.53209L18.2429 15.5621C18.0738 15.7271 17.8445 15.8198 17.6054 15.8198C17.3663 15.8198 17.1369 15.7271 16.9678 15.5621C16.7987 15.3971 16.7038 15.1733 16.7038 14.94C16.7038 14.7066 16.7987 14.4828 16.9678 14.3178L22.6355 8.78869L1.39658 8.78869C1.15776 8.78869 0.928715 8.69611 0.75984 8.53131C0.590966 8.36651 0.496093 8.143 0.496093 7.90994Z" fill="#212E30"/>
</svg>
