<svg width="19" height="35" viewBox="0 0 19 35" fill="none" xmlns="http://www.w3.org/2000/svg">
<path d="M0.42294 0.41187C0.151797 0.681136 0 1.0426 0 1.41901C0 1.79541 0.151797 2.15687 0.42294 2.42614L15.5713 17.5L0.42294 32.5708C0.151797 32.8401 0 33.2016 0 33.578C0 33.9544 0.151797 34.3159 0.42294 34.5851C0.554733 34.7164 0.712309 34.8208 0.886365 34.892C1.06042 34.9633 1.24743 35 1.43635 35C1.62528 35 1.81229 34.9633 1.98634 34.892C2.1604 34.8208 2.31798 34.7164 2.44977 34.5851L18.5587 18.5524C18.8416 18.2708 19 17.8932 19 17.5C19 17.1068 18.8416 16.7292 18.5587 16.4476L2.44977 0.414886C2.31798 0.283586 2.1604 0.179227 1.98634 0.10797C1.81229 0.0367122 1.62528 0 1.43635 0C1.24743 0 1.06042 0.0367122 0.886365 0.10797C0.712309 0.179227 0.554733 0.283586 0.42294 0.414886V0.41187Z" fill="#B0B0B0"/>
</svg>
