<svg width="6" height="13" viewBox="0 0 6 13" fill="none" xmlns="http://www.w3.org/2000/svg">
<path d="M0.13356 0.15298C0.0479359 0.252994 0 0.387253 0 0.527059C0 0.666865 0.0479359 0.801125 0.13356 0.901138L4.91726 6.5L0.13356 12.0977C0.0479359 12.1978 0 12.332 0 12.4718C0 12.6116 0.0479359 12.7459 0.13356 12.8459C0.175179 12.8947 0.22494 12.9334 0.279905 12.9599C0.33487 12.9864 0.393925 13 0.453586 13C0.513246 13 0.572302 12.9864 0.627267 12.9599C0.682232 12.9334 0.731993 12.8947 0.773612 12.8459L5.86065 6.89088C5.95 6.7863 6 6.64604 6 6.5C6 6.35396 5.95 6.2137 5.86065 6.10912L0.773612 0.1541C0.731993 0.105332 0.682232 0.0665702 0.627267 0.0401031C0.572302 0.013636 0.513246 0 0.453586 0C0.393925 0 0.33487 0.013636 0.279905 0.0401031C0.22494 0.0665702 0.175179 0.105332 0.13356 0.1541V0.15298Z" fill="#B0B0B0"/>
</svg>
