<svg width="19" height="35" viewBox="0 0 19 35" fill="none" xmlns="http://www.w3.org/2000/svg">
<path d="M0.42294 0.41187C0.151797 0.681136 1.82295e-07 1.0426 2.48107e-07 1.41901C3.13919e-07 1.79541 0.151797 2.15687 0.42294 2.42614L15.5713 17.5L0.422945 32.5708C0.151803 32.8401 5.80515e-06 33.2016 5.87096e-06 33.578C5.93677e-06 33.9544 0.151803 34.3159 0.422946 34.5851C0.554739 34.7164 0.712315 34.8208 0.886371 34.892C1.06043 34.9633 1.24744 35 1.43636 35C1.62528 35 1.81229 34.9633 1.98635 34.892C2.16041 34.8208 2.31798 34.7164 2.44978 34.5851L18.5587 18.5524C18.8417 18.2708 19 17.8932 19 17.5C19 17.1068 18.8417 16.7292 18.5587 16.4476L2.44977 0.414886C2.31798 0.283586 2.1604 0.179227 1.98634 0.107969C1.81229 0.0367119 1.62528 -2.84173e-07 1.43635 -2.5114e-07C1.24743 -2.18108e-07 1.06042 0.036712 0.886365 0.10797C0.712309 0.179227 0.554733 0.283586 0.42294 0.414886L0.42294 0.41187Z" fill="#F4F4F4"/>
</svg>
